<?xml version="1.0" encoding="UTF-8" standalone="no"?>
<!DOCTYPE svg PUBLIC "-//W3C//DTD SVG 1.1//EN"
 "http://www.w3.org/Graphics/SVG/1.1/DTD/svg11.dtd">
<!-- Generated by graphviz version 5.0.0 (20220707.2338)
 -->
<!-- Title: _kiss_fft_guts.h Pages: 1 -->
<svg width="253pt" height="140pt"
 viewBox="0.00 0.00 252.50 140.00" xmlns="http://www.w3.org/2000/svg" xmlns:xlink="http://www.w3.org/1999/xlink">
<g id="graph0" class="graph" transform="scale(1 1) rotate(0) translate(4 136)">
<title>_kiss_fft_guts.h</title>
<polygon fill="white" stroke="transparent" points="-4,4 -4,-136 248.5,-136 248.5,4 -4,4"/>
<!-- Node1 -->
<g id="node1" class="node">
<title>Node1</title>
<polygon fill="#bfbfbf" stroke="black" points="113,-112.5 113,-131.5 199,-131.5 199,-112.5 113,-112.5"/>
<text text-anchor="middle" x="156" y="-119.5" font-family="Helvetica,sans-Serif" font-size="10.00">_kiss_fft_guts.h</text>
</g>
<!-- Node2 -->
<g id="node2" class="node">
<title>Node2</title>
<g id="a_node2"><a xlink:href="kiss__fft_8h.html" target="_top" xlink:title="kiss_fft.h">
<polygon fill="white" stroke="black" points="92.5,-56.5 92.5,-75.5 149.5,-75.5 149.5,-56.5 92.5,-56.5"/>
<text text-anchor="middle" x="121" y="-63.5" font-family="Helvetica,sans-Serif" font-size="10.00">kiss_fft.h</text>
</a>
</g>
</g>
<!-- Node1&#45;&gt;Node2 -->
<g id="edge1" class="edge">
<title>Node1&#45;&gt;Node2</title>
<path fill="none" stroke="midnightblue" d="M150.22,-112.08C145.33,-104.53 138.17,-93.49 132.17,-84.23"/>
<polygon fill="midnightblue" stroke="midnightblue" points="135.05,-82.24 126.67,-75.75 129.17,-86.05 135.05,-82.24"/>
</g>
<!-- Node7 -->
<g id="node7" class="node">
<title>Node7</title>
<polygon fill="white" stroke="#bfbfbf" points="168,-56.5 168,-75.5 216,-75.5 216,-56.5 168,-56.5"/>
<text text-anchor="middle" x="192" y="-63.5" font-family="Helvetica,sans-Serif" font-size="10.00">limits.h</text>
</g>
<!-- Node1&#45;&gt;Node7 -->
<g id="edge6" class="edge">
<title>Node1&#45;&gt;Node7</title>
<path fill="none" stroke="midnightblue" d="M161.94,-112.08C166.98,-104.53 174.34,-93.49 180.51,-84.23"/>
<polygon fill="midnightblue" stroke="midnightblue" points="183.53,-86.01 186.17,-75.75 177.71,-82.13 183.53,-86.01"/>
</g>
<!-- Node3 -->
<g id="node3" class="node">
<title>Node3</title>
<polygon fill="white" stroke="#bfbfbf" points="0,-0.5 0,-19.5 48,-19.5 48,-0.5 0,-0.5"/>
<text text-anchor="middle" x="24" y="-7.5" font-family="Helvetica,sans-Serif" font-size="10.00">stdlib.h</text>
</g>
<!-- Node2&#45;&gt;Node3 -->
<g id="edge2" class="edge">
<title>Node2&#45;&gt;Node3</title>
<path fill="none" stroke="midnightblue" d="M105.42,-56.32C90,-47.74 66.19,-34.49 48.29,-24.52"/>
<polygon fill="midnightblue" stroke="midnightblue" points="49.99,-21.46 39.55,-19.65 46.58,-27.58 49.99,-21.46"/>
</g>
<!-- Node4 -->
<g id="node4" class="node">
<title>Node4</title>
<polygon fill="white" stroke="#bfbfbf" points="66,-0.5 66,-19.5 112,-19.5 112,-0.5 66,-0.5"/>
<text text-anchor="middle" x="89" y="-7.5" font-family="Helvetica,sans-Serif" font-size="10.00">stdio.h</text>
</g>
<!-- Node2&#45;&gt;Node4 -->
<g id="edge3" class="edge">
<title>Node2&#45;&gt;Node4</title>
<path fill="none" stroke="midnightblue" d="M115.72,-56.08C111.29,-48.61 104.84,-37.72 99.38,-28.52"/>
<polygon fill="midnightblue" stroke="midnightblue" points="102.29,-26.57 94.19,-19.75 96.27,-30.14 102.29,-26.57"/>
</g>
<!-- Node5 -->
<g id="node5" class="node">
<title>Node5</title>
<polygon fill="white" stroke="#bfbfbf" points="130.5,-0.5 130.5,-19.5 177.5,-19.5 177.5,-0.5 130.5,-0.5"/>
<text text-anchor="middle" x="154" y="-7.5" font-family="Helvetica,sans-Serif" font-size="10.00">math.h</text>
</g>
<!-- Node2&#45;&gt;Node5 -->
<g id="edge4" class="edge">
<title>Node2&#45;&gt;Node5</title>
<path fill="none" stroke="midnightblue" d="M126.45,-56.08C131.01,-48.61 137.67,-37.72 143.29,-28.52"/>
<polygon fill="midnightblue" stroke="midnightblue" points="146.42,-30.11 148.65,-19.75 140.45,-26.46 146.42,-30.11"/>
</g>
<!-- Node6 -->
<g id="node6" class="node">
<title>Node6</title>
<polygon fill="white" stroke="#bfbfbf" points="195.5,-0.5 195.5,-19.5 244.5,-19.5 244.5,-0.5 195.5,-0.5"/>
<text text-anchor="middle" x="220" y="-7.5" font-family="Helvetica,sans-Serif" font-size="10.00">string.h</text>
</g>
<!-- Node2&#45;&gt;Node6 -->
<g id="edge5" class="edge">
<title>Node2&#45;&gt;Node6</title>
<path fill="none" stroke="midnightblue" d="M136.91,-56.32C152.64,-47.74 176.94,-34.49 195.21,-24.52"/>
<polygon fill="midnightblue" stroke="midnightblue" points="197.03,-27.52 204.13,-19.65 193.68,-21.37 197.03,-27.52"/>
</g>
</g>
</svg>
