<?xml version="1.0" encoding="UTF-8" standalone="no"?>
<!DOCTYPE svg PUBLIC "-//W3C//DTD SVG 1.1//EN"
 "http://www.w3.org/Graphics/SVG/1.1/DTD/svg11.dtd">
<!-- Generated by graphviz version 5.0.0 (20220707.2338)
 -->
<!-- Title: add_crc_impl.h Pages: 1 -->
<svg width="948pt" height="207pt"
 viewBox="0.00 0.00 947.50 207.00" xmlns="http://www.w3.org/2000/svg" xmlns:xlink="http://www.w3.org/1999/xlink">
<g id="graph0" class="graph" transform="scale(1 1) rotate(0) translate(4 203)">
<title>add_crc_impl.h</title>
<polygon fill="white" stroke="transparent" points="-4,4 -4,-203 943.5,-203 943.5,4 -4,4"/>
<!-- Node1 -->
<g id="node1" class="node">
<title>Node1</title>
<polygon fill="#bfbfbf" stroke="black" points="280,-179.5 280,-198.5 363,-198.5 363,-179.5 280,-179.5"/>
<text text-anchor="middle" x="321.5" y="-186.5" font-family="Helvetica,sans-Serif" font-size="10.00">add_crc_impl.h</text>
</g>
<!-- Node2 -->
<g id="node2" class="node">
<title>Node2</title>
<g id="a_node2"><a xlink:href="add__crc_8h.html" target="_top" xlink:title="gnuradio/lora_sdr/add\l_crc.h">
<polygon fill="white" stroke="black" points="122.5,-112.5 122.5,-142.5 232.5,-142.5 232.5,-112.5 122.5,-112.5"/>
<text text-anchor="start" x="130.5" y="-130.5" font-family="Helvetica,sans-Serif" font-size="10.00">gnuradio/lora_sdr/add</text>
<text text-anchor="middle" x="177.5" y="-119.5" font-family="Helvetica,sans-Serif" font-size="10.00">_crc.h</text>
</a>
</g>
</g>
<!-- Node1&#45;&gt;Node2 -->
<g id="edge1" class="edge">
<title>Node1&#45;&gt;Node2</title>
<path fill="none" stroke="midnightblue" d="M300.87,-179.48C280.09,-170.89 247.4,-157.38 220.89,-146.43"/>
<polygon fill="midnightblue" stroke="midnightblue" points="222.02,-143.11 211.44,-142.52 219.34,-149.58 222.02,-143.11"/>
</g>
<!-- Node6 -->
<g id="node6" class="node">
<title>Node6</title>
<g id="a_node6"><a xlink:href="utilities_8h.html" target="_top" xlink:title="gnuradio/lora_sdr/utilities.h">
<polygon fill="white" stroke="black" points="441,-118 441,-137 574,-137 574,-118 441,-118"/>
<text text-anchor="middle" x="507.5" y="-125" font-family="Helvetica,sans-Serif" font-size="10.00">gnuradio/lora_sdr/utilities.h</text>
</a>
</g>
</g>
<!-- Node1&#45;&gt;Node6 -->
<g id="edge5" class="edge">
<title>Node1&#45;&gt;Node6</title>
<path fill="none" stroke="midnightblue" d="M348.15,-179.48C380.47,-169.14 435.1,-151.66 471.23,-140.1"/>
<polygon fill="midnightblue" stroke="midnightblue" points="472.44,-143.39 480.9,-137.01 470.31,-136.72 472.44,-143.39"/>
</g>
<!-- Node3 -->
<g id="node3" class="node">
<title>Node3</title>
<g id="a_node3"><a xlink:href="api_8h.html" target="_top" xlink:title="gnuradio/lora_sdr/api.h">
<polygon fill="white" stroke="black" points="0,-56.5 0,-75.5 115,-75.5 115,-56.5 0,-56.5"/>
<text text-anchor="middle" x="57.5" y="-63.5" font-family="Helvetica,sans-Serif" font-size="10.00">gnuradio/lora_sdr/api.h</text>
</a>
</g>
</g>
<!-- Node2&#45;&gt;Node3 -->
<g id="edge2" class="edge">
<title>Node2&#45;&gt;Node3</title>
<path fill="none" stroke="midnightblue" d="M149.06,-112.4C129.38,-102.64 103.36,-89.74 84.09,-80.18"/>
<polygon fill="midnightblue" stroke="midnightblue" points="85.48,-76.96 74.96,-75.66 82.37,-83.24 85.48,-76.96"/>
</g>
<!-- Node5 -->
<g id="node5" class="node">
<title>Node5</title>
<polygon fill="white" stroke="#bfbfbf" points="133.5,-56.5 133.5,-75.5 221.5,-75.5 221.5,-56.5 133.5,-56.5"/>
<text text-anchor="middle" x="177.5" y="-63.5" font-family="Helvetica,sans-Serif" font-size="10.00">gnuradio/block.h</text>
</g>
<!-- Node2&#45;&gt;Node5 -->
<g id="edge4" class="edge">
<title>Node2&#45;&gt;Node5</title>
<path fill="none" stroke="midnightblue" d="M177.5,-112.4C177.5,-104.47 177.5,-94.46 177.5,-85.86"/>
<polygon fill="midnightblue" stroke="midnightblue" points="181,-85.66 177.5,-75.66 174,-85.66 181,-85.66"/>
</g>
<!-- Node4 -->
<g id="node4" class="node">
<title>Node4</title>
<polygon fill="white" stroke="#bfbfbf" points="5,-0.5 5,-19.5 110,-19.5 110,-0.5 5,-0.5"/>
<text text-anchor="middle" x="57.5" y="-7.5" font-family="Helvetica,sans-Serif" font-size="10.00">gnuradio/attributes.h</text>
</g>
<!-- Node3&#45;&gt;Node4 -->
<g id="edge3" class="edge">
<title>Node3&#45;&gt;Node4</title>
<path fill="none" stroke="midnightblue" d="M57.5,-56.08C57.5,-49.01 57.5,-38.86 57.5,-29.99"/>
<polygon fill="midnightblue" stroke="midnightblue" points="61,-29.75 57.5,-19.75 54,-29.75 61,-29.75"/>
</g>
<!-- Node7 -->
<g id="node7" class="node">
<title>Node7</title>
<polygon fill="white" stroke="#bfbfbf" points="239.5,-56.5 239.5,-75.5 285.5,-75.5 285.5,-56.5 239.5,-56.5"/>
<text text-anchor="middle" x="262.5" y="-63.5" font-family="Helvetica,sans-Serif" font-size="10.00">cstdint</text>
</g>
<!-- Node6&#45;&gt;Node7 -->
<g id="edge6" class="edge">
<title>Node6&#45;&gt;Node7</title>
<path fill="none" stroke="midnightblue" d="M469.29,-117.94C428.57,-108.71 362,-93.3 295.37,-76.15"/>
<polygon fill="midnightblue" stroke="midnightblue" points="296.1,-72.72 285.54,-73.6 294.35,-79.5 296.1,-72.72"/>
</g>
<!-- Node8 -->
<g id="node8" class="node">
<title>Node8</title>
<polygon fill="white" stroke="#bfbfbf" points="304,-56.5 304,-75.5 353,-75.5 353,-56.5 304,-56.5"/>
<text text-anchor="middle" x="328.5" y="-63.5" font-family="Helvetica,sans-Serif" font-size="10.00">string.h</text>
</g>
<!-- Node6&#45;&gt;Node8 -->
<g id="edge7" class="edge">
<title>Node6&#45;&gt;Node8</title>
<path fill="none" stroke="midnightblue" d="M481.85,-117.98C450.62,-107.59 397.73,-90.01 362.96,-78.46"/>
<polygon fill="midnightblue" stroke="midnightblue" points="363.83,-75.06 353.23,-75.22 361.62,-81.7 363.83,-75.06"/>
</g>
<!-- Node9 -->
<g id="node9" class="node">
<title>Node9</title>
<polygon fill="white" stroke="#bfbfbf" points="371.5,-56.5 371.5,-75.5 421.5,-75.5 421.5,-56.5 371.5,-56.5"/>
<text text-anchor="middle" x="396.5" y="-63.5" font-family="Helvetica,sans-Serif" font-size="10.00">iomanip</text>
</g>
<!-- Node6&#45;&gt;Node9 -->
<g id="edge8" class="edge">
<title>Node6&#45;&gt;Node9</title>
<path fill="none" stroke="midnightblue" d="M491.6,-117.98C473.22,-108.12 442.74,-91.79 421.26,-80.27"/>
<polygon fill="midnightblue" stroke="midnightblue" points="422.84,-77.15 412.37,-75.51 419.53,-83.32 422.84,-77.15"/>
</g>
<!-- Node10 -->
<g id="node10" class="node">
<title>Node10</title>
<polygon fill="white" stroke="#bfbfbf" points="440,-56.5 440,-75.5 491,-75.5 491,-56.5 440,-56.5"/>
<text text-anchor="middle" x="465.5" y="-63.5" font-family="Helvetica,sans-Serif" font-size="10.00">numeric</text>
</g>
<!-- Node6&#45;&gt;Node10 -->
<g id="edge9" class="edge">
<title>Node6&#45;&gt;Node10</title>
<path fill="none" stroke="midnightblue" d="M501.48,-117.98C495.24,-109.14 485.33,-95.09 477.48,-83.98"/>
<polygon fill="midnightblue" stroke="midnightblue" points="480.13,-81.66 471.51,-75.51 474.41,-85.7 480.13,-81.66"/>
</g>
<!-- Node11 -->
<g id="node11" class="node">
<title>Node11</title>
<polygon fill="white" stroke="#bfbfbf" points="509,-56.5 509,-75.5 592,-75.5 592,-56.5 509,-56.5"/>
<text text-anchor="middle" x="550.5" y="-63.5" font-family="Helvetica,sans-Serif" font-size="10.00">gnuradio/expj.h</text>
</g>
<!-- Node6&#45;&gt;Node11 -->
<g id="edge10" class="edge">
<title>Node6&#45;&gt;Node11</title>
<path fill="none" stroke="midnightblue" d="M513.66,-117.98C520.11,-109.05 530.4,-94.81 538.47,-83.64"/>
<polygon fill="midnightblue" stroke="midnightblue" points="541.33,-85.66 544.35,-75.51 535.66,-81.56 541.33,-85.66"/>
</g>
<!-- Node12 -->
<g id="node12" class="node">
<title>Node12</title>
<polygon fill="white" stroke="#bfbfbf" points="610,-56.5 610,-75.5 691,-75.5 691,-56.5 610,-56.5"/>
<text text-anchor="middle" x="650.5" y="-63.5" font-family="Helvetica,sans-Serif" font-size="10.00">sys/resource.h</text>
</g>
<!-- Node6&#45;&gt;Node12 -->
<g id="edge11" class="edge">
<title>Node6&#45;&gt;Node12</title>
<path fill="none" stroke="midnightblue" d="M527.99,-117.98C552.31,-107.86 593.05,-90.9 620.82,-79.35"/>
<polygon fill="midnightblue" stroke="midnightblue" points="622.16,-82.58 630.05,-75.51 619.47,-76.12 622.16,-82.58"/>
</g>
<!-- Node13 -->
<g id="node13" class="node">
<title>Node13</title>
<polygon fill="white" stroke="#bfbfbf" points="709.5,-56.5 709.5,-75.5 783.5,-75.5 783.5,-56.5 709.5,-56.5"/>
<text text-anchor="middle" x="746.5" y="-63.5" font-family="Helvetica,sans-Serif" font-size="10.00">sys/syscall.h</text>
</g>
<!-- Node6&#45;&gt;Node13 -->
<g id="edge12" class="edge">
<title>Node6&#45;&gt;Node13</title>
<path fill="none" stroke="midnightblue" d="M541.74,-117.98C584.07,-107.44 656.18,-89.49 702.55,-77.94"/>
<polygon fill="midnightblue" stroke="midnightblue" points="703.46,-81.32 712.32,-75.51 701.77,-74.53 703.46,-81.32"/>
</g>
<!-- Node14 -->
<g id="node14" class="node">
<title>Node14</title>
<polygon fill="white" stroke="#bfbfbf" points="801.5,-56.5 801.5,-75.5 865.5,-75.5 865.5,-56.5 801.5,-56.5"/>
<text text-anchor="middle" x="833.5" y="-63.5" font-family="Helvetica,sans-Serif" font-size="10.00">volk/volk.h</text>
</g>
<!-- Node6&#45;&gt;Node14 -->
<g id="edge13" class="edge">
<title>Node6&#45;&gt;Node14</title>
<path fill="none" stroke="midnightblue" d="M559.36,-117.96C614.45,-108.75 704.32,-93.3 791.26,-76.18"/>
<polygon fill="midnightblue" stroke="midnightblue" points="792.17,-79.57 801.3,-74.2 790.81,-72.71 792.17,-79.57"/>
</g>
<!-- Node15 -->
<g id="node15" class="node">
<title>Node15</title>
<polygon fill="white" stroke="#bfbfbf" points="883.5,-56.5 883.5,-75.5 939.5,-75.5 939.5,-56.5 883.5,-56.5"/>
<text text-anchor="middle" x="911.5" y="-63.5" font-family="Helvetica,sans-Serif" font-size="10.00">algorithm</text>
</g>
<!-- Node6&#45;&gt;Node15 -->
<g id="edge14" class="edge">
<title>Node6&#45;&gt;Node15</title>
<path fill="none" stroke="midnightblue" d="M574.13,-119.4C645.76,-111.3 763.12,-96.69 873.33,-76.06"/>
<polygon fill="midnightblue" stroke="midnightblue" points="874.11,-79.48 883.28,-74.18 872.81,-72.6 874.11,-79.48"/>
</g>
</g>
</svg>
