<?xml version="1.0" encoding="UTF-8" standalone="no"?>
<!DOCTYPE svg PUBLIC "-//W3C//DTD SVG 1.1//EN"
 "http://www.w3.org/Graphics/SVG/1.1/DTD/svg11.dtd">
<!-- Generated by graphviz version 5.0.0 (20220707.2338)
 -->
<!-- Title: api.h Pages: 1 -->
<svg width="2114pt" height="140pt"
 viewBox="0.00 0.00 2114.00 140.00" xmlns="http://www.w3.org/2000/svg" xmlns:xlink="http://www.w3.org/1999/xlink">
<g id="graph0" class="graph" transform="scale(1 1) rotate(0) translate(4 136)">
<title>api.h</title>
<polygon fill="white" stroke="transparent" points="-4,4 -4,-136 2110,-136 2110,4 -4,4"/>
<!-- Node1 -->
<g id="node1" class="node">
<title>Node1</title>
<polygon fill="#bfbfbf" stroke="black" points="1068.5,-112.5 1068.5,-131.5 1106.5,-131.5 1106.5,-112.5 1068.5,-112.5"/>
<text text-anchor="middle" x="1087.5" y="-119.5" font-family="Helvetica,sans-Serif" font-size="10.00">api.h</text>
</g>
<!-- Node2 -->
<g id="node2" class="node">
<title>Node2</title>
<g id="a_node2"><a xlink:href="add__crc_8h.html" target="_top" xlink:title="add_crc.h">
<polygon fill="white" stroke="black" points="36,-56.5 36,-75.5 95,-75.5 95,-56.5 36,-56.5"/>
<text text-anchor="middle" x="65.5" y="-63.5" font-family="Helvetica,sans-Serif" font-size="10.00">add_crc.h</text>
</a>
</g>
</g>
<!-- Node1&#45;&gt;Node2 -->
<g id="edge1" class="edge">
<title>Node1&#45;&gt;Node2</title>
<path fill="none" stroke="midnightblue" d="M1058.18,-121.01C939.91,-120.77 486.53,-117.05 116.5,-76 109.53,-75.23 102.07,-74.09 95.07,-72.88"/>
<polygon fill="midnightblue" stroke="midnightblue" points="1058.26,-124.51 1068.26,-121.03 1058.27,-117.51 1058.26,-124.51"/>
</g>
<!-- Node4 -->
<g id="node4" class="node">
<title>Node4</title>
<g id="a_node4"><a xlink:href="crc__verif_8h.html" target="_top" xlink:title="crc_verif.h">
<polygon fill="white" stroke="black" points="125.5,-56.5 125.5,-75.5 187.5,-75.5 187.5,-56.5 125.5,-56.5"/>
<text text-anchor="middle" x="156.5" y="-63.5" font-family="Helvetica,sans-Serif" font-size="10.00">crc_verif.h</text>
</a>
</g>
</g>
<!-- Node1&#45;&gt;Node4 -->
<g id="edge3" class="edge">
<title>Node1&#45;&gt;Node4</title>
<path fill="none" stroke="midnightblue" d="M1058.2,-120.41C948.05,-118.01 548.28,-107.49 220.5,-76 209.78,-74.97 198.1,-73.45 187.68,-71.95"/>
<polygon fill="midnightblue" stroke="midnightblue" points="1058.16,-123.91 1068.23,-120.63 1058.31,-116.91 1058.16,-123.91"/>
</g>
<!-- Node6 -->
<g id="node6" class="node">
<title>Node6</title>
<g id="a_node6"><a xlink:href="data__source_8h.html" target="_top" xlink:title="data_source.h">
<polygon fill="white" stroke="black" points="229.5,-56.5 229.5,-75.5 307.5,-75.5 307.5,-56.5 229.5,-56.5"/>
<text text-anchor="middle" x="268.5" y="-63.5" font-family="Helvetica,sans-Serif" font-size="10.00">data_source.h</text>
</a>
</g>
</g>
<!-- Node1&#45;&gt;Node6 -->
<g id="edge5" class="edge">
<title>Node1&#45;&gt;Node6</title>
<path fill="none" stroke="midnightblue" d="M1058.11,-119.93C957.63,-116.12 618.54,-102.05 339.5,-76 329.11,-75.03 317.89,-73.73 307.51,-72.42"/>
<polygon fill="midnightblue" stroke="midnightblue" points="1058.27,-123.44 1068.39,-120.32 1058.53,-116.44 1058.27,-123.44"/>
</g>
<!-- Node8 -->
<g id="node8" class="node">
<title>Node8</title>
<g id="a_node8"><a xlink:href="deinterleaver_8h.html" target="_top" xlink:title="deinterleaver.h">
<polygon fill="white" stroke="black" points="348.5,-56.5 348.5,-75.5 428.5,-75.5 428.5,-56.5 348.5,-56.5"/>
<text text-anchor="middle" x="388.5" y="-63.5" font-family="Helvetica,sans-Serif" font-size="10.00">deinterleaver.h</text>
</a>
</g>
</g>
<!-- Node1&#45;&gt;Node8 -->
<g id="edge7" class="edge">
<title>Node1&#45;&gt;Node8</title>
<path fill="none" stroke="midnightblue" d="M1058.29,-119.45C968.78,-114.59 690.4,-98.6 460.5,-76 450.22,-74.99 439.14,-73.7 428.82,-72.42"/>
<polygon fill="midnightblue" stroke="midnightblue" points="1058.31,-122.96 1068.49,-120 1058.69,-115.97 1058.31,-122.96"/>
</g>
<!-- Node10 -->
<g id="node10" class="node">
<title>Node10</title>
<g id="a_node10"><a xlink:href="dewhitening_8h.html" target="_top" xlink:title="dewhitening.h">
<polygon fill="white" stroke="black" points="470,-56.5 470,-75.5 547,-75.5 547,-56.5 470,-56.5"/>
<text text-anchor="middle" x="508.5" y="-63.5" font-family="Helvetica,sans-Serif" font-size="10.00">dewhitening.h</text>
</a>
</g>
</g>
<!-- Node1&#45;&gt;Node10 -->
<g id="edge9" class="edge">
<title>Node1&#45;&gt;Node10</title>
<path fill="none" stroke="midnightblue" d="M1058.09,-118.76C980.13,-112.74 761.77,-95.37 580.5,-76 569.73,-74.85 558.07,-73.46 547.33,-72.11"/>
<polygon fill="midnightblue" stroke="midnightblue" points="1057.9,-122.26 1068.14,-119.53 1058.43,-115.28 1057.9,-122.26"/>
</g>
<!-- Node12 -->
<g id="node12" class="node">
<title>Node12</title>
<g id="a_node12"><a xlink:href="fft__demod_8h.html" target="_top" xlink:title="fft_demod.h">
<polygon fill="white" stroke="black" points="589.5,-56.5 589.5,-75.5 657.5,-75.5 657.5,-56.5 589.5,-56.5"/>
<text text-anchor="middle" x="623.5" y="-63.5" font-family="Helvetica,sans-Serif" font-size="10.00">fft_demod.h</text>
</a>
</g>
</g>
<!-- Node1&#45;&gt;Node12 -->
<g id="edge11" class="edge">
<title>Node1&#45;&gt;Node12</title>
<path fill="none" stroke="midnightblue" d="M1058.38,-117.94C992.59,-110.97 827.42,-93.2 689.5,-76 679.17,-74.71 667.95,-73.22 657.74,-71.82"/>
<polygon fill="midnightblue" stroke="midnightblue" points="1058.11,-121.43 1068.43,-119 1058.85,-114.47 1058.11,-121.43"/>
</g>
<!-- Node14 -->
<g id="node14" class="node">
<title>Node14</title>
<g id="a_node14"><a xlink:href="frame__sync_8h.html" target="_top" xlink:title="frame_sync.h">
<polygon fill="white" stroke="black" points="698.5,-56.5 698.5,-75.5 774.5,-75.5 774.5,-56.5 698.5,-56.5"/>
<text text-anchor="middle" x="736.5" y="-63.5" font-family="Helvetica,sans-Serif" font-size="10.00">frame_sync.h</text>
</a>
</g>
</g>
<!-- Node1&#45;&gt;Node14 -->
<g id="edge13" class="edge">
<title>Node1&#45;&gt;Node14</title>
<path fill="none" stroke="midnightblue" d="M1058.29,-116.51C994.98,-106.77 845.14,-83.71 774.55,-72.85"/>
<polygon fill="midnightblue" stroke="midnightblue" points="1057.96,-120 1068.38,-118.06 1059.03,-113.08 1057.96,-120"/>
</g>
<!-- Node16 -->
<g id="node16" class="node">
<title>Node16</title>
<g id="a_node16"><a xlink:href="gray__demap_8h.html" target="_top" xlink:title="gray_demap.h">
<polygon fill="white" stroke="black" points="815.5,-56.5 815.5,-75.5 893.5,-75.5 893.5,-56.5 815.5,-56.5"/>
<text text-anchor="middle" x="854.5" y="-63.5" font-family="Helvetica,sans-Serif" font-size="10.00">gray_demap.h</text>
</a>
</g>
</g>
<!-- Node1&#45;&gt;Node16 -->
<g id="edge15" class="edge">
<title>Node1&#45;&gt;Node16</title>
<path fill="none" stroke="midnightblue" d="M1058.5,-114.28C1016.17,-104.47 937.5,-86.24 891.2,-75.51"/>
<polygon fill="midnightblue" stroke="midnightblue" points="1057.9,-117.73 1068.43,-116.58 1059.48,-110.91 1057.9,-117.73"/>
</g>
<!-- Node18 -->
<g id="node18" class="node">
<title>Node18</title>
<g id="a_node18"><a xlink:href="gray__mapping_8h.html" target="_top" xlink:title="gray_mapping.h">
<polygon fill="white" stroke="black" points="929.5,-56.5 929.5,-75.5 1015.5,-75.5 1015.5,-56.5 929.5,-56.5"/>
<text text-anchor="middle" x="972.5" y="-63.5" font-family="Helvetica,sans-Serif" font-size="10.00">gray_mapping.h</text>
</a>
</g>
</g>
<!-- Node1&#45;&gt;Node18 -->
<g id="edge17" class="edge">
<title>Node1&#45;&gt;Node18</title>
<path fill="none" stroke="midnightblue" d="M1060.02,-108.1C1038.53,-98.01 1009.28,-84.27 990.64,-75.52"/>
<polygon fill="midnightblue" stroke="midnightblue" points="1058.74,-111.36 1069.28,-112.44 1061.71,-105.02 1058.74,-111.36"/>
</g>
<!-- Node20 -->
<g id="node20" class="node">
<title>Node20</title>
<g id="a_node20"><a xlink:href="hamming__dec_8h.html" target="_top" xlink:title="hamming_dec.h">
<polygon fill="white" stroke="black" points="1044.5,-56.5 1044.5,-75.5 1130.5,-75.5 1130.5,-56.5 1044.5,-56.5"/>
<text text-anchor="middle" x="1087.5" y="-63.5" font-family="Helvetica,sans-Serif" font-size="10.00">hamming_dec.h</text>
</a>
</g>
</g>
<!-- Node1&#45;&gt;Node20 -->
<g id="edge19" class="edge">
<title>Node1&#45;&gt;Node20</title>
<path fill="none" stroke="midnightblue" d="M1087.5,-101.8C1087.5,-92.91 1087.5,-82.78 1087.5,-75.75"/>
<polygon fill="midnightblue" stroke="midnightblue" points="1084,-102.08 1087.5,-112.08 1091,-102.08 1084,-102.08"/>
</g>
<!-- Node22 -->
<g id="node22" class="node">
<title>Node22</title>
<g id="a_node22"><a xlink:href="hamming__enc_8h.html" target="_top" xlink:title="hamming_enc.h">
<polygon fill="white" stroke="black" points="1148.5,-56.5 1148.5,-75.5 1234.5,-75.5 1234.5,-56.5 1148.5,-56.5"/>
<text text-anchor="middle" x="1191.5" y="-63.5" font-family="Helvetica,sans-Serif" font-size="10.00">hamming_enc.h</text>
</a>
</g>
</g>
<!-- Node1&#45;&gt;Node22 -->
<g id="edge21" class="edge">
<title>Node1&#45;&gt;Node22</title>
<path fill="none" stroke="midnightblue" d="M1113.33,-107.59C1132.56,-97.61 1158.24,-84.27 1174.83,-75.65"/>
<polygon fill="midnightblue" stroke="midnightblue" points="1111.47,-104.61 1104.21,-112.32 1114.7,-110.82 1111.47,-104.61"/>
</g>
<!-- Node24 -->
<g id="node24" class="node">
<title>Node24</title>
<g id="a_node24"><a xlink:href="header_8h.html" target="_top" xlink:title="header.h">
<polygon fill="white" stroke="black" points="1253,-56.5 1253,-75.5 1306,-75.5 1306,-56.5 1253,-56.5"/>
<text text-anchor="middle" x="1279.5" y="-63.5" font-family="Helvetica,sans-Serif" font-size="10.00">header.h</text>
</a>
</g>
</g>
<!-- Node1&#45;&gt;Node24 -->
<g id="edge23" class="edge">
<title>Node1&#45;&gt;Node24</title>
<path fill="none" stroke="midnightblue" d="M1116.29,-112.9C1153.26,-102.5 1216.93,-84.6 1252.84,-74.5"/>
<polygon fill="midnightblue" stroke="midnightblue" points="1115.29,-109.55 1106.61,-115.62 1117.19,-116.29 1115.29,-109.55"/>
</g>
<!-- Node26 -->
<g id="node26" class="node">
<title>Node26</title>
<g id="a_node26"><a xlink:href="header__decoder_8h.html" target="_top" xlink:title="header_decoder.h">
<polygon fill="white" stroke="black" points="1324,-56.5 1324,-75.5 1417,-75.5 1417,-56.5 1324,-56.5"/>
<text text-anchor="middle" x="1370.5" y="-63.5" font-family="Helvetica,sans-Serif" font-size="10.00">header_decoder.h</text>
</a>
</g>
</g>
<!-- Node1&#45;&gt;Node26 -->
<g id="edge25" class="edge">
<title>Node1&#45;&gt;Node26</title>
<path fill="none" stroke="midnightblue" d="M1116.54,-115.46C1166.07,-106.01 1267.19,-86.71 1325.79,-75.53"/>
<polygon fill="midnightblue" stroke="midnightblue" points="1115.67,-112.06 1106.51,-117.37 1116.99,-118.94 1115.67,-112.06"/>
</g>
<!-- Node28 -->
<g id="node28" class="node">
<title>Node28</title>
<g id="a_node28"><a xlink:href="interleaver_8h.html" target="_top" xlink:title="interleaver.h">
<polygon fill="white" stroke="black" points="1435,-56.5 1435,-75.5 1504,-75.5 1504,-56.5 1435,-56.5"/>
<text text-anchor="middle" x="1469.5" y="-63.5" font-family="Helvetica,sans-Serif" font-size="10.00">interleaver.h</text>
</a>
</g>
</g>
<!-- Node1&#45;&gt;Node28 -->
<g id="edge27" class="edge">
<title>Node1&#45;&gt;Node28</title>
<path fill="none" stroke="midnightblue" d="M1116.65,-117.81C1175.32,-111.24 1311.75,-95.18 1425.5,-76 1428.58,-75.48 1431.76,-74.91 1434.96,-74.3"/>
<polygon fill="midnightblue" stroke="midnightblue" points="1116.18,-114.34 1106.63,-118.92 1116.95,-121.3 1116.18,-114.34"/>
</g>
<!-- Node30 -->
<g id="node30" class="node">
<title>Node30</title>
<g id="a_node30"><a xlink:href="modulate_8h.html" target="_top" xlink:title="modulate.h">
<polygon fill="white" stroke="black" points="1522,-56.5 1522,-75.5 1587,-75.5 1587,-56.5 1522,-56.5"/>
<text text-anchor="middle" x="1554.5" y="-63.5" font-family="Helvetica,sans-Serif" font-size="10.00">modulate.h</text>
</a>
</g>
</g>
<!-- Node1&#45;&gt;Node30 -->
<g id="edge29" class="edge">
<title>Node1&#45;&gt;Node30</title>
<path fill="none" stroke="midnightblue" d="M1116.8,-118.97C1185.96,-113.94 1364.71,-99.59 1512.5,-76 1515.45,-75.53 1518.5,-74.99 1521.55,-74.41"/>
<polygon fill="midnightblue" stroke="midnightblue" points="1116.38,-115.49 1106.66,-119.7 1116.88,-122.47 1116.38,-115.49"/>
</g>
<!-- Node32 -->
<g id="node32" class="node">
<title>Node32</title>
<g id="a_node32"><a xlink:href="no__sfo__frame__sync_8h.html" target="_top" xlink:title="no_sfo_frame_sync.h">
<polygon fill="white" stroke="black" points="1605.5,-56.5 1605.5,-75.5 1715.5,-75.5 1715.5,-56.5 1605.5,-56.5"/>
<text text-anchor="middle" x="1660.5" y="-63.5" font-family="Helvetica,sans-Serif" font-size="10.00">no_sfo_frame_sync.h</text>
</a>
</g>
</g>
<!-- Node1&#45;&gt;Node32 -->
<g id="edge31" class="edge">
<title>Node1&#45;&gt;Node32</title>
<path fill="none" stroke="midnightblue" d="M1116.99,-118.9C1195.14,-113.22 1414.01,-96.59 1595.5,-76 1598.67,-75.64 1601.92,-75.25 1605.21,-74.84"/>
<polygon fill="midnightblue" stroke="midnightblue" points="1116.63,-115.41 1106.91,-119.63 1117.14,-122.4 1116.63,-115.41"/>
</g>
<!-- Node33 -->
<g id="node33" class="node">
<title>Node33</title>
<g id="a_node33"><a xlink:href="payload__id__inc_8h.html" target="_top" xlink:title="payload_id_inc.h">
<polygon fill="white" stroke="black" points="1746,-56.5 1746,-75.5 1835,-75.5 1835,-56.5 1746,-56.5"/>
<text text-anchor="middle" x="1790.5" y="-63.5" font-family="Helvetica,sans-Serif" font-size="10.00">payload_id_inc.h</text>
</a>
</g>
</g>
<!-- Node1&#45;&gt;Node33 -->
<g id="edge32" class="edge">
<title>Node1&#45;&gt;Node33</title>
<path fill="none" stroke="midnightblue" d="M1116.6,-119.62C1206.95,-115.19 1490.57,-100.19 1724.5,-76 1731.4,-75.29 1738.69,-74.41 1745.81,-73.49"/>
<polygon fill="midnightblue" stroke="midnightblue" points="1116.38,-116.13 1106.56,-120.11 1116.72,-123.12 1116.38,-116.13"/>
</g>
<!-- Node35 -->
<g id="node35" class="node">
<title>Node35</title>
<g id="a_node35"><a xlink:href="RH__RF95__header_8h.html" target="_top" xlink:title="RH_RF95_header.h">
<polygon fill="white" stroke="black" points="1871,-56.5 1871,-75.5 1974,-75.5 1974,-56.5 1871,-56.5"/>
<text text-anchor="middle" x="1922.5" y="-63.5" font-family="Helvetica,sans-Serif" font-size="10.00">RH_RF95_header.h</text>
</a>
</g>
</g>
<!-- Node1&#45;&gt;Node35 -->
<g id="edge34" class="edge">
<title>Node1&#45;&gt;Node35</title>
<path fill="none" stroke="midnightblue" d="M1116.54,-119.84C1217.24,-115.68 1560.71,-100.51 1843.5,-76 1852.3,-75.24 1861.64,-74.29 1870.7,-73.31"/>
<polygon fill="midnightblue" stroke="midnightblue" points="1116.36,-116.34 1106.52,-120.25 1116.65,-123.34 1116.36,-116.34"/>
</g>
<!-- Node37 -->
<g id="node37" class="node">
<title>Node37</title>
<g id="a_node37"><a xlink:href="whitening_8h.html" target="_top" xlink:title="whitening.h">
<polygon fill="white" stroke="black" points="2013.5,-56.5 2013.5,-75.5 2079.5,-75.5 2079.5,-56.5 2013.5,-56.5"/>
<text text-anchor="middle" x="2046.5" y="-63.5" font-family="Helvetica,sans-Serif" font-size="10.00">whitening.h</text>
</a>
</g>
</g>
<!-- Node1&#45;&gt;Node37 -->
<g id="edge36" class="edge">
<title>Node1&#45;&gt;Node37</title>
<path fill="none" stroke="midnightblue" d="M1117.03,-120.5C1229.8,-118.38 1644.04,-108.7 1983.5,-76 1993.18,-75.07 2003.65,-73.71 2013.22,-72.34"/>
<polygon fill="midnightblue" stroke="midnightblue" points="1116.71,-117.01 1106.78,-120.69 1116.84,-124 1116.71,-117.01"/>
</g>
<!-- Node3 -->
<g id="node3" class="node">
<title>Node3</title>
<g id="a_node3"><a xlink:href="add__crc__impl_8h.html" target="_top" xlink:title="add_crc_impl.h">
<polygon fill="white" stroke="black" points="0,-0.5 0,-19.5 83,-19.5 83,-0.5 0,-0.5"/>
<text text-anchor="middle" x="41.5" y="-7.5" font-family="Helvetica,sans-Serif" font-size="10.00">add_crc_impl.h</text>
</a>
</g>
</g>
<!-- Node2&#45;&gt;Node3 -->
<g id="edge2" class="edge">
<title>Node2&#45;&gt;Node3</title>
<path fill="none" stroke="midnightblue" d="M57.36,-46.69C53.32,-37.59 48.62,-27.01 45.39,-19.75"/>
<polygon fill="midnightblue" stroke="midnightblue" points="54.28,-48.37 61.54,-56.08 60.67,-45.52 54.28,-48.37"/>
</g>
<!-- Node5 -->
<g id="node5" class="node">
<title>Node5</title>
<g id="a_node5"><a xlink:href="crc__verif__impl_8h.html" target="_top" xlink:title="crc_verif_impl.h">
<polygon fill="white" stroke="black" points="101.5,-0.5 101.5,-19.5 187.5,-19.5 187.5,-0.5 101.5,-0.5"/>
<text text-anchor="middle" x="144.5" y="-7.5" font-family="Helvetica,sans-Serif" font-size="10.00">crc_verif_impl.h</text>
</a>
</g>
</g>
<!-- Node4&#45;&gt;Node5 -->
<g id="edge4" class="edge">
<title>Node4&#45;&gt;Node5</title>
<path fill="none" stroke="midnightblue" d="M152.3,-46.1C150.31,-37.14 148.02,-26.86 146.44,-19.75"/>
<polygon fill="midnightblue" stroke="midnightblue" points="148.93,-47.08 154.52,-56.08 155.77,-45.56 148.93,-47.08"/>
</g>
<!-- Node7 -->
<g id="node7" class="node">
<title>Node7</title>
<g id="a_node7"><a xlink:href="data__source__impl_8h.html" target="_top" xlink:title="data_source_impl.h">
<polygon fill="white" stroke="black" points="206,-0.5 206,-19.5 307,-19.5 307,-0.5 206,-0.5"/>
<text text-anchor="middle" x="256.5" y="-7.5" font-family="Helvetica,sans-Serif" font-size="10.00">data_source_impl.h</text>
</a>
</g>
</g>
<!-- Node6&#45;&gt;Node7 -->
<g id="edge6" class="edge">
<title>Node6&#45;&gt;Node7</title>
<path fill="none" stroke="midnightblue" d="M264.3,-46.1C262.31,-37.14 260.02,-26.86 258.44,-19.75"/>
<polygon fill="midnightblue" stroke="midnightblue" points="260.93,-47.08 266.52,-56.08 267.77,-45.56 260.93,-47.08"/>
</g>
<!-- Node9 -->
<g id="node9" class="node">
<title>Node9</title>
<g id="a_node9"><a xlink:href="deinterleaver__impl_8h.html" target="_top" xlink:title="deinterleaver_impl.h">
<polygon fill="white" stroke="black" points="325.5,-0.5 325.5,-19.5 429.5,-19.5 429.5,-0.5 325.5,-0.5"/>
<text text-anchor="middle" x="377.5" y="-7.5" font-family="Helvetica,sans-Serif" font-size="10.00">deinterleaver_impl.h</text>
</a>
</g>
</g>
<!-- Node8&#45;&gt;Node9 -->
<g id="edge8" class="edge">
<title>Node8&#45;&gt;Node9</title>
<path fill="none" stroke="midnightblue" d="M384.65,-46.1C382.82,-37.14 380.73,-26.86 379.28,-19.75"/>
<polygon fill="midnightblue" stroke="midnightblue" points="381.26,-46.98 386.68,-56.08 388.12,-45.59 381.26,-46.98"/>
</g>
<!-- Node11 -->
<g id="node11" class="node">
<title>Node11</title>
<g id="a_node11"><a xlink:href="dewhitening__impl_8h.html" target="_top" xlink:title="dewhitening_impl.h">
<polygon fill="white" stroke="black" points="447.5,-0.5 447.5,-19.5 547.5,-19.5 547.5,-0.5 447.5,-0.5"/>
<text text-anchor="middle" x="497.5" y="-7.5" font-family="Helvetica,sans-Serif" font-size="10.00">dewhitening_impl.h</text>
</a>
</g>
</g>
<!-- Node10&#45;&gt;Node11 -->
<g id="edge10" class="edge">
<title>Node10&#45;&gt;Node11</title>
<path fill="none" stroke="midnightblue" d="M504.65,-46.1C502.82,-37.14 500.73,-26.86 499.28,-19.75"/>
<polygon fill="midnightblue" stroke="midnightblue" points="501.26,-46.98 506.68,-56.08 508.12,-45.59 501.26,-46.98"/>
</g>
<!-- Node13 -->
<g id="node13" class="node">
<title>Node13</title>
<g id="a_node13"><a xlink:href="fft__demod__impl_8h.html" target="_top" xlink:title="fft_demod_impl.h">
<polygon fill="white" stroke="black" points="565.5,-0.5 565.5,-19.5 657.5,-19.5 657.5,-0.5 565.5,-0.5"/>
<text text-anchor="middle" x="611.5" y="-7.5" font-family="Helvetica,sans-Serif" font-size="10.00">fft_demod_impl.h</text>
</a>
</g>
</g>
<!-- Node12&#45;&gt;Node13 -->
<g id="edge12" class="edge">
<title>Node12&#45;&gt;Node13</title>
<path fill="none" stroke="midnightblue" d="M619.3,-46.1C617.31,-37.14 615.02,-26.86 613.44,-19.75"/>
<polygon fill="midnightblue" stroke="midnightblue" points="615.93,-47.08 621.52,-56.08 622.77,-45.56 615.93,-47.08"/>
</g>
<!-- Node15 -->
<g id="node15" class="node">
<title>Node15</title>
<g id="a_node15"><a xlink:href="frame__sync__impl_8h.html" target="_top" xlink:title="frame_sync_impl.h">
<polygon fill="white" stroke="black" points="676,-0.5 676,-19.5 775,-19.5 775,-0.5 676,-0.5"/>
<text text-anchor="middle" x="725.5" y="-7.5" font-family="Helvetica,sans-Serif" font-size="10.00">frame_sync_impl.h</text>
</a>
</g>
</g>
<!-- Node14&#45;&gt;Node15 -->
<g id="edge14" class="edge">
<title>Node14&#45;&gt;Node15</title>
<path fill="none" stroke="midnightblue" d="M732.65,-46.1C730.82,-37.14 728.73,-26.86 727.28,-19.75"/>
<polygon fill="midnightblue" stroke="midnightblue" points="729.26,-46.98 734.68,-56.08 736.12,-45.59 729.26,-46.98"/>
</g>
<!-- Node17 -->
<g id="node17" class="node">
<title>Node17</title>
<g id="a_node17"><a xlink:href="gray__demap__impl_8h.html" target="_top" xlink:title="gray_demap_impl.h">
<polygon fill="white" stroke="black" points="793,-0.5 793,-19.5 894,-19.5 894,-0.5 793,-0.5"/>
<text text-anchor="middle" x="843.5" y="-7.5" font-family="Helvetica,sans-Serif" font-size="10.00">gray_demap_impl.h</text>
</a>
</g>
</g>
<!-- Node16&#45;&gt;Node17 -->
<g id="edge16" class="edge">
<title>Node16&#45;&gt;Node17</title>
<path fill="none" stroke="midnightblue" d="M850.65,-46.1C848.82,-37.14 846.73,-26.86 845.28,-19.75"/>
<polygon fill="midnightblue" stroke="midnightblue" points="847.26,-46.98 852.68,-56.08 854.12,-45.59 847.26,-46.98"/>
</g>
<!-- Node19 -->
<g id="node19" class="node">
<title>Node19</title>
<g id="a_node19"><a xlink:href="gray__mapping__impl_8h.html" target="_top" xlink:title="gray_mapping_impl.h">
<polygon fill="white" stroke="black" points="912,-0.5 912,-19.5 1021,-19.5 1021,-0.5 912,-0.5"/>
<text text-anchor="middle" x="966.5" y="-7.5" font-family="Helvetica,sans-Serif" font-size="10.00">gray_mapping_impl.h</text>
</a>
</g>
</g>
<!-- Node18&#45;&gt;Node19 -->
<g id="edge18" class="edge">
<title>Node18&#45;&gt;Node19</title>
<path fill="none" stroke="midnightblue" d="M970.4,-46.1C969.4,-37.14 968.26,-26.86 967.47,-19.75"/>
<polygon fill="midnightblue" stroke="midnightblue" points="966.93,-46.53 971.51,-56.08 973.88,-45.76 966.93,-46.53"/>
</g>
<!-- Node21 -->
<g id="node21" class="node">
<title>Node21</title>
<g id="a_node21"><a xlink:href="hamming__dec__impl_8h.html" target="_top" xlink:title="hamming_dec_impl.h">
<polygon fill="white" stroke="black" points="1039,-0.5 1039,-19.5 1148,-19.5 1148,-0.5 1039,-0.5"/>
<text text-anchor="middle" x="1093.5" y="-7.5" font-family="Helvetica,sans-Serif" font-size="10.00">hamming_dec_impl.h</text>
</a>
</g>
</g>
<!-- Node20&#45;&gt;Node21 -->
<g id="edge20" class="edge">
<title>Node20&#45;&gt;Node21</title>
<path fill="none" stroke="midnightblue" d="M1089.6,-46.1C1090.6,-37.14 1091.74,-26.86 1092.53,-19.75"/>
<polygon fill="midnightblue" stroke="midnightblue" points="1086.12,-45.76 1088.49,-56.08 1093.07,-46.53 1086.12,-45.76"/>
</g>
<!-- Node23 -->
<g id="node23" class="node">
<title>Node23</title>
<g id="a_node23"><a xlink:href="hamming__enc__impl_8h.html" target="_top" xlink:title="hamming_enc_impl.h">
<polygon fill="white" stroke="black" points="1166,-0.5 1166,-19.5 1275,-19.5 1275,-0.5 1166,-0.5"/>
<text text-anchor="middle" x="1220.5" y="-7.5" font-family="Helvetica,sans-Serif" font-size="10.00">hamming_enc_impl.h</text>
</a>
</g>
</g>
<!-- Node22&#45;&gt;Node23 -->
<g id="edge22" class="edge">
<title>Node22&#45;&gt;Node23</title>
<path fill="none" stroke="midnightblue" d="M1201.18,-46.98C1206.1,-37.82 1211.86,-27.09 1215.8,-19.75"/>
<polygon fill="midnightblue" stroke="midnightblue" points="1197.94,-45.62 1196.29,-56.08 1204.1,-48.93 1197.94,-45.62"/>
</g>
<!-- Node25 -->
<g id="node25" class="node">
<title>Node25</title>
<g id="a_node25"><a xlink:href="header__impl_8h.html" target="_top" xlink:title="header_impl.h">
<polygon fill="white" stroke="black" points="1293,-0.5 1293,-19.5 1370,-19.5 1370,-0.5 1293,-0.5"/>
<text text-anchor="middle" x="1331.5" y="-7.5" font-family="Helvetica,sans-Serif" font-size="10.00">header_impl.h</text>
</a>
</g>
</g>
<!-- Node24&#45;&gt;Node25 -->
<g id="edge24" class="edge">
<title>Node24&#45;&gt;Node25</title>
<path fill="none" stroke="midnightblue" d="M1295.18,-48.72C1304.34,-39.2 1315.55,-27.56 1323.07,-19.75"/>
<polygon fill="midnightblue" stroke="midnightblue" points="1292.5,-46.45 1288.09,-56.08 1297.54,-51.31 1292.5,-46.45"/>
</g>
<!-- Node27 -->
<g id="node27" class="node">
<title>Node27</title>
<g id="a_node27"><a xlink:href="header__decoder__impl_8h.html" target="_top" xlink:title="header_decoder_impl.h">
<polygon fill="white" stroke="black" points="1388,-0.5 1388,-19.5 1505,-19.5 1505,-0.5 1388,-0.5"/>
<text text-anchor="middle" x="1446.5" y="-7.5" font-family="Helvetica,sans-Serif" font-size="10.00">header_decoder_impl.h</text>
</a>
</g>
</g>
<!-- Node26&#45;&gt;Node27 -->
<g id="edge26" class="edge">
<title>Node26&#45;&gt;Node27</title>
<path fill="none" stroke="midnightblue" d="M1391.08,-50.38C1404.81,-40.62 1422.43,-28.11 1434.07,-19.83"/>
<polygon fill="midnightblue" stroke="midnightblue" points="1388.84,-47.68 1382.71,-56.32 1392.89,-53.38 1388.84,-47.68"/>
</g>
<!-- Node29 -->
<g id="node29" class="node">
<title>Node29</title>
<g id="a_node29"><a xlink:href="interleaver__impl_8h.html" target="_top" xlink:title="interleaver_impl.h">
<polygon fill="white" stroke="black" points="1523,-0.5 1523,-19.5 1616,-19.5 1616,-0.5 1523,-0.5"/>
<text text-anchor="middle" x="1569.5" y="-7.5" font-family="Helvetica,sans-Serif" font-size="10.00">interleaver_impl.h</text>
</a>
</g>
</g>
<!-- Node28&#45;&gt;Node29 -->
<g id="edge28" class="edge">
<title>Node28&#45;&gt;Node29</title>
<path fill="none" stroke="midnightblue" d="M1494.59,-51.45C1513.05,-41.48 1537.6,-28.23 1553.47,-19.65"/>
<polygon fill="midnightblue" stroke="midnightblue" points="1492.7,-48.49 1485.57,-56.32 1496.03,-54.65 1492.7,-48.49"/>
</g>
<!-- Node31 -->
<g id="node31" class="node">
<title>Node31</title>
<g id="a_node31"><a xlink:href="modulate__impl_8h.html" target="_top" xlink:title="modulate_impl.h">
<polygon fill="white" stroke="black" points="1634.5,-0.5 1634.5,-19.5 1722.5,-19.5 1722.5,-0.5 1634.5,-0.5"/>
<text text-anchor="middle" x="1678.5" y="-7.5" font-family="Helvetica,sans-Serif" font-size="10.00">modulate_impl.h</text>
</a>
</g>
</g>
<!-- Node30&#45;&gt;Node31 -->
<g id="edge30" class="edge">
<title>Node30&#45;&gt;Node31</title>
<path fill="none" stroke="midnightblue" d="M1583.51,-52.37C1606.73,-42.26 1638.66,-28.35 1658.94,-19.52"/>
<polygon fill="midnightblue" stroke="midnightblue" points="1581.92,-49.24 1574.15,-56.44 1584.71,-55.66 1581.92,-49.24"/>
</g>
<!-- Node34 -->
<g id="node34" class="node">
<title>Node34</title>
<g id="a_node34"><a xlink:href="payload__id__inc__impl_8h.html" target="_top" xlink:title="payload_id_inc_impl.h">
<polygon fill="white" stroke="black" points="1741,-0.5 1741,-19.5 1854,-19.5 1854,-0.5 1741,-0.5"/>
<text text-anchor="middle" x="1797.5" y="-7.5" font-family="Helvetica,sans-Serif" font-size="10.00">payload_id_inc_impl.h</text>
</a>
</g>
</g>
<!-- Node33&#45;&gt;Node34 -->
<g id="edge33" class="edge">
<title>Node33&#45;&gt;Node34</title>
<path fill="none" stroke="midnightblue" d="M1792.95,-46.1C1794.11,-37.14 1795.44,-26.86 1796.37,-19.75"/>
<polygon fill="midnightblue" stroke="midnightblue" points="1789.47,-45.72 1791.66,-56.08 1796.41,-46.62 1789.47,-45.72"/>
</g>
<!-- Node36 -->
<g id="node36" class="node">
<title>Node36</title>
<g id="a_node36"><a xlink:href="RH__RF95__header__impl_8h.html" target="_top" xlink:title="RH_RF95_header_impl.h">
<polygon fill="white" stroke="black" points="1872,-0.5 1872,-19.5 1999,-19.5 1999,-0.5 1872,-0.5"/>
<text text-anchor="middle" x="1935.5" y="-7.5" font-family="Helvetica,sans-Serif" font-size="10.00">RH_RF95_header_impl.h</text>
</a>
</g>
</g>
<!-- Node35&#45;&gt;Node36 -->
<g id="edge35" class="edge">
<title>Node35&#45;&gt;Node36</title>
<path fill="none" stroke="midnightblue" d="M1927.05,-46.1C1929.21,-37.14 1931.68,-26.86 1933.39,-19.75"/>
<polygon fill="midnightblue" stroke="midnightblue" points="1923.58,-45.54 1924.65,-56.08 1930.39,-47.18 1923.58,-45.54"/>
</g>
<!-- Node38 -->
<g id="node38" class="node">
<title>Node38</title>
<g id="a_node38"><a xlink:href="whitening__impl_8h.html" target="_top" xlink:title="whitening_impl.h">
<polygon fill="white" stroke="black" points="2017,-0.5 2017,-19.5 2106,-19.5 2106,-0.5 2017,-0.5"/>
<text text-anchor="middle" x="2061.5" y="-7.5" font-family="Helvetica,sans-Serif" font-size="10.00">whitening_impl.h</text>
</a>
</g>
</g>
<!-- Node37&#45;&gt;Node38 -->
<g id="edge37" class="edge">
<title>Node37&#45;&gt;Node38</title>
<path fill="none" stroke="midnightblue" d="M2051.67,-46.4C2054.18,-37.36 2057.07,-26.94 2059.07,-19.75"/>
<polygon fill="midnightblue" stroke="midnightblue" points="2048.28,-45.51 2048.98,-56.08 2055.03,-47.38 2048.28,-45.51"/>
</g>
</g>
</svg>
