<?xml version="1.0" encoding="UTF-8" standalone="no"?>
<!DOCTYPE svg PUBLIC "-//W3C//DTD SVG 1.1//EN"
 "http://www.w3.org/Graphics/SVG/1.1/DTD/svg11.dtd">
<!-- Generated by graphviz version 5.0.0 (20220707.2338)
 -->
<!-- Title: pydoc_macros.h Pages: 1 -->
<svg width="2369pt" height="84pt"
 viewBox="0.00 0.00 2368.50 84.00" xmlns="http://www.w3.org/2000/svg" xmlns:xlink="http://www.w3.org/1999/xlink">
<g id="graph0" class="graph" transform="scale(1 1) rotate(0) translate(4 80)">
<title>pydoc_macros.h</title>
<polygon fill="white" stroke="transparent" points="-4,4 -4,-80 2364.5,-80 2364.5,4 -4,4"/>
<!-- Node1 -->
<g id="node1" class="node">
<title>Node1</title>
<polygon fill="#bfbfbf" stroke="black" points="1127,-56.5 1127,-75.5 1216,-75.5 1216,-56.5 1127,-56.5"/>
<text text-anchor="middle" x="1171.5" y="-63.5" font-family="Helvetica,sans-Serif" font-size="10.00">pydoc_macros.h</text>
</g>
<!-- Node2 -->
<g id="node2" class="node">
<title>Node2</title>
<g id="a_node2"><a xlink:href="add__crc__pydoc_8h.html" target="_top" xlink:title="add_crc_pydoc.h">
<polygon fill="white" stroke="black" points="0,-0.5 0,-19.5 91,-19.5 91,-0.5 0,-0.5"/>
<text text-anchor="middle" x="45.5" y="-7.5" font-family="Helvetica,sans-Serif" font-size="10.00">add_crc_pydoc.h</text>
</a>
</g>
</g>
<!-- Node1&#45;&gt;Node2 -->
<g id="edge1" class="edge">
<title>Node1&#45;&gt;Node2</title>
<path fill="none" stroke="midnightblue" d="M1116.58,-65.02C958.38,-64.57 488.24,-59.72 100.5,-20 97.42,-19.68 94.25,-19.31 91.06,-18.89"/>
<polygon fill="midnightblue" stroke="midnightblue" points="1116.98,-68.52 1126.98,-65.04 1116.99,-61.52 1116.98,-68.52"/>
</g>
<!-- Node3 -->
<g id="node3" class="node">
<title>Node3</title>
<g id="a_node3"><a xlink:href="crc__verif__pydoc_8h.html" target="_top" xlink:title="crc_verif_pydoc.h">
<polygon fill="white" stroke="black" points="109.5,-0.5 109.5,-19.5 203.5,-19.5 203.5,-0.5 109.5,-0.5"/>
<text text-anchor="middle" x="156.5" y="-7.5" font-family="Helvetica,sans-Serif" font-size="10.00">crc_verif_pydoc.h</text>
</a>
</g>
</g>
<!-- Node1&#45;&gt;Node3 -->
<g id="edge2" class="edge">
<title>Node1&#45;&gt;Node3</title>
<path fill="none" stroke="midnightblue" d="M1116.81,-64.58C970.04,-63 555.33,-55.48 212.5,-20 209.56,-19.7 206.54,-19.34 203.5,-18.95"/>
<polygon fill="midnightblue" stroke="midnightblue" points="1116.88,-68.08 1126.91,-64.69 1116.95,-61.08 1116.88,-68.08"/>
</g>
<!-- Node4 -->
<g id="node4" class="node">
<title>Node4</title>
<g id="a_node4"><a xlink:href="data__source__pydoc_8h.html" target="_top" xlink:title="data_source_pydoc.h">
<polygon fill="white" stroke="black" points="221.5,-0.5 221.5,-19.5 331.5,-19.5 331.5,-0.5 221.5,-0.5"/>
<text text-anchor="middle" x="276.5" y="-7.5" font-family="Helvetica,sans-Serif" font-size="10.00">data_source_pydoc.h</text>
</a>
</g>
</g>
<!-- Node1&#45;&gt;Node4 -->
<g id="edge3" class="edge">
<title>Node1&#45;&gt;Node4</title>
<path fill="none" stroke="midnightblue" d="M1116.46,-63.65C983.07,-60.02 632.08,-48.34 340.5,-20 337.6,-19.72 334.62,-19.4 331.62,-19.06"/>
<polygon fill="midnightblue" stroke="midnightblue" points="1116.72,-67.16 1126.81,-63.93 1116.91,-60.16 1116.72,-67.16"/>
</g>
<!-- Node5 -->
<g id="node5" class="node">
<title>Node5</title>
<g id="a_node5"><a xlink:href="deinterleaver__pydoc_8h.html" target="_top" xlink:title="deinterleaver_pydoc.h">
<polygon fill="white" stroke="black" points="349.5,-0.5 349.5,-19.5 461.5,-19.5 461.5,-0.5 349.5,-0.5"/>
<text text-anchor="middle" x="405.5" y="-7.5" font-family="Helvetica,sans-Serif" font-size="10.00">deinterleaver_pydoc.h</text>
</a>
</g>
</g>
<!-- Node1&#45;&gt;Node5 -->
<g id="edge4" class="edge">
<title>Node1&#45;&gt;Node5</title>
<path fill="none" stroke="midnightblue" d="M1116.46,-62.84C998.06,-57.9 710.47,-44.28 470.5,-20 467.67,-19.71 464.77,-19.4 461.84,-19.06"/>
<polygon fill="midnightblue" stroke="midnightblue" points="1116.57,-66.35 1126.71,-63.27 1116.86,-59.36 1116.57,-66.35"/>
</g>
<!-- Node6 -->
<g id="node6" class="node">
<title>Node6</title>
<g id="a_node6"><a xlink:href="dewhitening__pydoc_8h.html" target="_top" xlink:title="dewhitening_pydoc.h">
<polygon fill="white" stroke="black" points="479.5,-0.5 479.5,-19.5 587.5,-19.5 587.5,-0.5 479.5,-0.5"/>
<text text-anchor="middle" x="533.5" y="-7.5" font-family="Helvetica,sans-Serif" font-size="10.00">dewhitening_pydoc.h</text>
</a>
</g>
</g>
<!-- Node1&#45;&gt;Node6 -->
<g id="edge5" class="edge">
<title>Node1&#45;&gt;Node6</title>
<path fill="none" stroke="midnightblue" d="M1116.57,-61.87C1014.12,-55.78 787.02,-41.04 596.5,-20 593.64,-19.68 590.72,-19.34 587.77,-18.98"/>
<polygon fill="midnightblue" stroke="midnightblue" points="1116.49,-65.37 1126.67,-62.47 1116.9,-58.38 1116.49,-65.37"/>
</g>
<!-- Node7 -->
<g id="node7" class="node">
<title>Node7</title>
<g id="a_node7"><a xlink:href="fft__demod__pydoc_8h.html" target="_top" xlink:title="fft_demod_pydoc.h">
<polygon fill="white" stroke="black" points="605.5,-0.5 605.5,-19.5 705.5,-19.5 705.5,-0.5 605.5,-0.5"/>
<text text-anchor="middle" x="655.5" y="-7.5" font-family="Helvetica,sans-Serif" font-size="10.00">fft_demod_pydoc.h</text>
</a>
</g>
</g>
<!-- Node1&#45;&gt;Node7 -->
<g id="edge6" class="edge">
<title>Node1&#45;&gt;Node7</title>
<path fill="none" stroke="midnightblue" d="M1116.95,-60.57C1031.15,-53.4 859.5,-38.18 714.5,-20 711.62,-19.64 708.67,-19.25 705.69,-18.84"/>
<polygon fill="midnightblue" stroke="midnightblue" points="1116.72,-64.07 1126.98,-61.41 1117.3,-57.09 1116.72,-64.07"/>
</g>
<!-- Node8 -->
<g id="node8" class="node">
<title>Node8</title>
<g id="a_node8"><a xlink:href="frame__sync__pydoc_8h.html" target="_top" xlink:title="frame_sync_pydoc.h">
<polygon fill="white" stroke="black" points="724,-0.5 724,-19.5 831,-19.5 831,-0.5 724,-0.5"/>
<text text-anchor="middle" x="777.5" y="-7.5" font-family="Helvetica,sans-Serif" font-size="10.00">frame_sync_pydoc.h</text>
</a>
</g>
</g>
<!-- Node1&#45;&gt;Node8 -->
<g id="edge7" class="edge">
<title>Node1&#45;&gt;Node8</title>
<path fill="none" stroke="midnightblue" d="M1116.66,-57.66C1051,-48.84 937.68,-33.55 840.5,-20 837.44,-19.57 834.29,-19.13 831.11,-18.68"/>
<polygon fill="midnightblue" stroke="midnightblue" points="1116.41,-61.16 1126.78,-59.02 1117.34,-54.22 1116.41,-61.16"/>
</g>
<!-- Node9 -->
<g id="node9" class="node">
<title>Node9</title>
<g id="a_node9"><a xlink:href="gray__demap__pydoc_8h.html" target="_top" xlink:title="gray_demap_pydoc.h">
<polygon fill="white" stroke="black" points="849.5,-0.5 849.5,-19.5 959.5,-19.5 959.5,-0.5 849.5,-0.5"/>
<text text-anchor="middle" x="904.5" y="-7.5" font-family="Helvetica,sans-Serif" font-size="10.00">gray_demap_pydoc.h</text>
</a>
</g>
</g>
<!-- Node1&#45;&gt;Node9 -->
<g id="edge8" class="edge">
<title>Node1&#45;&gt;Node9</title>
<path fill="none" stroke="midnightblue" d="M1119.14,-54.41C1068.68,-44.2 993.3,-28.96 946.61,-19.52"/>
<polygon fill="midnightblue" stroke="midnightblue" points="1118.7,-57.89 1129.19,-56.44 1120.09,-51.03 1118.7,-57.89"/>
</g>
<!-- Node10 -->
<g id="node10" class="node">
<title>Node10</title>
<g id="a_node10"><a xlink:href="gray__mapping__pydoc_8h.html" target="_top" xlink:title="gray_mapping_pydoc.h">
<polygon fill="white" stroke="black" points="978,-0.5 978,-19.5 1095,-19.5 1095,-0.5 978,-0.5"/>
<text text-anchor="middle" x="1036.5" y="-7.5" font-family="Helvetica,sans-Serif" font-size="10.00">gray_mapping_pydoc.h</text>
</a>
</g>
</g>
<!-- Node1&#45;&gt;Node10 -->
<g id="edge9" class="edge">
<title>Node1&#45;&gt;Node10</title>
<path fill="none" stroke="midnightblue" d="M1140.59,-52.64C1115.26,-42.5 1080.07,-28.43 1057.79,-19.52"/>
<polygon fill="midnightblue" stroke="midnightblue" points="1139.52,-55.98 1150.11,-56.44 1142.12,-49.48 1139.52,-55.98"/>
</g>
<!-- Node11 -->
<g id="node11" class="node">
<title>Node11</title>
<g id="a_node11"><a xlink:href="hamming__dec__pydoc_8h.html" target="_top" xlink:title="hamming_dec_pydoc.h">
<polygon fill="white" stroke="black" points="1113,-0.5 1113,-19.5 1230,-19.5 1230,-0.5 1113,-0.5"/>
<text text-anchor="middle" x="1171.5" y="-7.5" font-family="Helvetica,sans-Serif" font-size="10.00">hamming_dec_pydoc.h</text>
</a>
</g>
</g>
<!-- Node1&#45;&gt;Node11 -->
<g id="edge10" class="edge">
<title>Node1&#45;&gt;Node11</title>
<path fill="none" stroke="midnightblue" d="M1171.5,-45.8C1171.5,-36.91 1171.5,-26.78 1171.5,-19.75"/>
<polygon fill="midnightblue" stroke="midnightblue" points="1168,-46.08 1171.5,-56.08 1175,-46.08 1168,-46.08"/>
</g>
<!-- Node12 -->
<g id="node12" class="node">
<title>Node12</title>
<g id="a_node12"><a xlink:href="hamming__enc__pydoc_8h.html" target="_top" xlink:title="hamming_enc_pydoc.h">
<polygon fill="white" stroke="black" points="1248,-0.5 1248,-19.5 1365,-19.5 1365,-0.5 1248,-0.5"/>
<text text-anchor="middle" x="1306.5" y="-7.5" font-family="Helvetica,sans-Serif" font-size="10.00">hamming_enc_pydoc.h</text>
</a>
</g>
</g>
<!-- Node1&#45;&gt;Node12 -->
<g id="edge11" class="edge">
<title>Node1&#45;&gt;Node12</title>
<path fill="none" stroke="midnightblue" d="M1202.41,-52.64C1227.74,-42.5 1262.93,-28.43 1285.21,-19.52"/>
<polygon fill="midnightblue" stroke="midnightblue" points="1200.88,-49.48 1192.89,-56.44 1203.48,-55.98 1200.88,-49.48"/>
</g>
<!-- Node13 -->
<g id="node13" class="node">
<title>Node13</title>
<g id="a_node13"><a xlink:href="header__decoder__pydoc_8h.html" target="_top" xlink:title="header_decoder_pydoc.h">
<polygon fill="white" stroke="black" points="1383,-0.5 1383,-19.5 1508,-19.5 1508,-0.5 1383,-0.5"/>
<text text-anchor="middle" x="1445.5" y="-7.5" font-family="Helvetica,sans-Serif" font-size="10.00">header_decoder_pydoc.h</text>
</a>
</g>
</g>
<!-- Node1&#45;&gt;Node13 -->
<g id="edge12" class="edge">
<title>Node1&#45;&gt;Node13</title>
<path fill="none" stroke="midnightblue" d="M1224.91,-54.47C1276.7,-44.27 1354.27,-28.98 1402.29,-19.52"/>
<polygon fill="midnightblue" stroke="midnightblue" points="1224.05,-51.08 1214.92,-56.44 1225.4,-57.94 1224.05,-51.08"/>
</g>
<!-- Node14 -->
<g id="node14" class="node">
<title>Node14</title>
<g id="a_node14"><a xlink:href="header__pydoc_8h.html" target="_top" xlink:title="header_pydoc.h">
<polygon fill="white" stroke="black" points="1526.5,-0.5 1526.5,-19.5 1612.5,-19.5 1612.5,-0.5 1526.5,-0.5"/>
<text text-anchor="middle" x="1569.5" y="-7.5" font-family="Helvetica,sans-Serif" font-size="10.00">header_pydoc.h</text>
</a>
</g>
</g>
<!-- Node1&#45;&gt;Node14 -->
<g id="edge13" class="edge">
<title>Node1&#45;&gt;Node14</title>
<path fill="none" stroke="midnightblue" d="M1226.19,-58.61C1294.48,-50.46 1414.82,-35.56 1517.5,-20 1520.4,-19.56 1523.39,-19.09 1526.39,-18.6"/>
<polygon fill="midnightblue" stroke="midnightblue" points="1225.62,-55.15 1216.1,-59.81 1226.44,-62.1 1225.62,-55.15"/>
</g>
<!-- Node15 -->
<g id="node15" class="node">
<title>Node15</title>
<g id="a_node15"><a xlink:href="interleaver__pydoc_8h.html" target="_top" xlink:title="interleaver_pydoc.h">
<polygon fill="white" stroke="black" points="1631,-0.5 1631,-19.5 1732,-19.5 1732,-0.5 1631,-0.5"/>
<text text-anchor="middle" x="1681.5" y="-7.5" font-family="Helvetica,sans-Serif" font-size="10.00">interleaver_pydoc.h</text>
</a>
</g>
</g>
<!-- Node1&#45;&gt;Node15 -->
<g id="edge14" class="edge">
<title>Node1&#45;&gt;Node15</title>
<path fill="none" stroke="midnightblue" d="M1226.47,-60.38C1311.36,-53.05 1479.4,-37.75 1621.5,-20 1624.53,-19.62 1627.65,-19.21 1630.79,-18.79"/>
<polygon fill="midnightblue" stroke="midnightblue" points="1225.95,-56.91 1216.29,-61.26 1226.55,-63.89 1225.95,-56.91"/>
</g>
<!-- Node16 -->
<g id="node16" class="node">
<title>Node16</title>
<g id="a_node16"><a xlink:href="modulate__pydoc_8h.html" target="_top" xlink:title="modulate_pydoc.h">
<polygon fill="white" stroke="black" points="1750.5,-0.5 1750.5,-19.5 1846.5,-19.5 1846.5,-0.5 1750.5,-0.5"/>
<text text-anchor="middle" x="1798.5" y="-7.5" font-family="Helvetica,sans-Serif" font-size="10.00">modulate_pydoc.h</text>
</a>
</g>
</g>
<!-- Node1&#45;&gt;Node16 -->
<g id="edge15" class="edge">
<title>Node1&#45;&gt;Node16</title>
<path fill="none" stroke="midnightblue" d="M1226.37,-62.09C1328.16,-56.38 1553.03,-42.28 1741.5,-20 1744.39,-19.66 1747.35,-19.28 1750.33,-18.87"/>
<polygon fill="midnightblue" stroke="midnightblue" points="1226.12,-58.6 1216.33,-62.65 1226.5,-65.59 1226.12,-58.6"/>
</g>
<!-- Node17 -->
<g id="node17" class="node">
<title>Node17</title>
<g id="a_node17"><a xlink:href="payload__id__inc__pydoc_8h.html" target="_top" xlink:title="payload_id_inc_pydoc.h">
<polygon fill="white" stroke="black" points="1865,-0.5 1865,-19.5 1986,-19.5 1986,-0.5 1865,-0.5"/>
<text text-anchor="middle" x="1925.5" y="-7.5" font-family="Helvetica,sans-Serif" font-size="10.00">payload_id_inc_pydoc.h</text>
</a>
</g>
</g>
<!-- Node1&#45;&gt;Node17 -->
<g id="edge16" class="edge">
<title>Node1&#45;&gt;Node17</title>
<path fill="none" stroke="midnightblue" d="M1226.47,-62.55C1342.74,-57.1 1622.09,-42.66 1855.5,-20 1858.55,-19.7 1861.67,-19.38 1864.82,-19.04"/>
<polygon fill="midnightblue" stroke="midnightblue" points="1226.22,-59.05 1216.39,-63.01 1226.55,-66.05 1226.22,-59.05"/>
</g>
<!-- Node18 -->
<g id="node18" class="node">
<title>Node18</title>
<g id="a_node18"><a xlink:href="RH__RF95__header__pydoc_8h.html" target="_top" xlink:title="RH_RF95_header_pydoc.h">
<polygon fill="white" stroke="black" points="2004,-0.5 2004,-19.5 2139,-19.5 2139,-0.5 2004,-0.5"/>
<text text-anchor="middle" x="2071.5" y="-7.5" font-family="Helvetica,sans-Serif" font-size="10.00">RH_RF95_header_pydoc.h</text>
</a>
</g>
</g>
<!-- Node1&#45;&gt;Node18 -->
<g id="edge17" class="edge">
<title>Node1&#45;&gt;Node18</title>
<path fill="none" stroke="midnightblue" d="M1226.52,-63.2C1359.05,-58.6 1706.44,-44.98 1995.5,-20 1998.28,-19.76 2001.12,-19.5 2003.98,-19.22"/>
<polygon fill="midnightblue" stroke="midnightblue" points="1226.1,-59.71 1216.23,-63.55 1226.34,-66.71 1226.1,-59.71"/>
</g>
<!-- Node19 -->
<g id="node19" class="node">
<title>Node19</title>
<g id="a_node19"><a xlink:href="utilities__pydoc_8h.html" target="_top" xlink:title="utilities_pydoc.h">
<polygon fill="white" stroke="black" points="2157,-0.5 2157,-19.5 2244,-19.5 2244,-0.5 2157,-0.5"/>
<text text-anchor="middle" x="2200.5" y="-7.5" font-family="Helvetica,sans-Serif" font-size="10.00">utilities_pydoc.h</text>
</a>
</g>
</g>
<!-- Node1&#45;&gt;Node19 -->
<g id="edge18" class="edge">
<title>Node1&#45;&gt;Node19</title>
<path fill="none" stroke="midnightblue" d="M1226.71,-64.88C1375.83,-64.02 1799.04,-58.14 2148.5,-20 2151.23,-19.7 2154.04,-19.35 2156.86,-18.96"/>
<polygon fill="midnightblue" stroke="midnightblue" points="1226.43,-61.38 1216.45,-64.93 1226.47,-68.38 1226.43,-61.38"/>
</g>
<!-- Node20 -->
<g id="node20" class="node">
<title>Node20</title>
<g id="a_node20"><a xlink:href="whitening__pydoc_8h.html" target="_top" xlink:title="whitening_pydoc.h">
<polygon fill="white" stroke="black" points="2262.5,-0.5 2262.5,-19.5 2360.5,-19.5 2360.5,-0.5 2262.5,-0.5"/>
<text text-anchor="middle" x="2311.5" y="-7.5" font-family="Helvetica,sans-Serif" font-size="10.00">whitening_pydoc.h</text>
</a>
</g>
</g>
<!-- Node1&#45;&gt;Node20 -->
<g id="edge19" class="edge">
<title>Node1&#45;&gt;Node20</title>
<path fill="none" stroke="midnightblue" d="M1226.21,-64.89C1385.24,-64.12 1861,-58.49 2253.5,-20 2256.34,-19.72 2259.25,-19.4 2262.19,-19.04"/>
<polygon fill="midnightblue" stroke="midnightblue" points="1226.19,-61.39 1216.2,-64.94 1226.22,-68.39 1226.19,-61.39"/>
</g>
</g>
</svg>
