<?xml version="1.0" encoding="UTF-8" standalone="no"?>
<!DOCTYPE svg PUBLIC "-//W3C//DTD SVG 1.1//EN"
 "http://www.w3.org/Graphics/SVG/1.1/DTD/svg11.dtd">
<!-- Generated by graphviz version 5.0.0 (20220707.2338)
 -->
<!-- Title: gr::lora_sdr::header_decoder Pages: 1 -->
<svg width="109pt" height="162pt"
 viewBox="0.00 0.00 109.00 162.00" xmlns="http://www.w3.org/2000/svg" xmlns:xlink="http://www.w3.org/1999/xlink">
<g id="graph0" class="graph" transform="scale(1 1) rotate(0) translate(4 158)">
<title>gr::lora_sdr::header_decoder</title>
<polygon fill="white" stroke="transparent" points="-4,4 -4,-158 105,-158 105,4 -4,4"/>
<!-- Node1 -->
<g id="node1" class="node">
<title>Node1</title>
<polygon fill="#bfbfbf" stroke="black" points="0,-67.5 0,-97.5 101,-97.5 101,-67.5 0,-67.5"/>
<text text-anchor="start" x="8" y="-85.5" font-family="Helvetica,sans-Serif" font-size="10.00">gr::lora_sdr::header</text>
<text text-anchor="middle" x="50.5" y="-74.5" font-family="Helvetica,sans-Serif" font-size="10.00">_decoder</text>
</g>
<!-- Node3 -->
<g id="node3" class="node">
<title>Node3</title>
<g id="a_node3"><a xlink:href="classgr_1_1lora__sdr_1_1header__decoder__impl.html" target="_top" xlink:title="gr::lora_sdr::header\l_decoder_impl">
<polygon fill="white" stroke="black" points="0,-0.5 0,-30.5 101,-30.5 101,-0.5 0,-0.5"/>
<text text-anchor="start" x="8" y="-18.5" font-family="Helvetica,sans-Serif" font-size="10.00">gr::lora_sdr::header</text>
<text text-anchor="middle" x="50.5" y="-7.5" font-family="Helvetica,sans-Serif" font-size="10.00">_decoder_impl</text>
</a>
</g>
</g>
<!-- Node1&#45;&gt;Node3 -->
<g id="edge2" class="edge">
<title>Node1&#45;&gt;Node3</title>
<path fill="none" stroke="midnightblue" d="M50.5,-57.11C50.5,-48.15 50.5,-38.32 50.5,-30.58"/>
<polygon fill="midnightblue" stroke="midnightblue" points="47,-57.4 50.5,-67.4 54,-57.4 47,-57.4"/>
</g>
<!-- Node2 -->
<g id="node2" class="node">
<title>Node2</title>
<polygon fill="white" stroke="#bfbfbf" points="30.5,-134.5 30.5,-153.5 70.5,-153.5 70.5,-134.5 30.5,-134.5"/>
<text text-anchor="middle" x="50.5" y="-141.5" font-family="Helvetica,sans-Serif" font-size="10.00">block</text>
</g>
<!-- Node2&#45;&gt;Node1 -->
<g id="edge1" class="edge">
<title>Node2&#45;&gt;Node1</title>
<path fill="none" stroke="midnightblue" d="M50.5,-124.23C50.5,-115.59 50.5,-105.5 50.5,-97.52"/>
<polygon fill="midnightblue" stroke="midnightblue" points="47,-124.48 50.5,-134.48 54,-124.48 47,-124.48"/>
</g>
</g>
</svg>
