<?xml version="1.0" encoding="UTF-8" standalone="no"?>
<!DOCTYPE svg PUBLIC "-//W3C//DTD SVG 1.1//EN"
 "http://www.w3.org/Graphics/SVG/1.1/DTD/svg11.dtd">
<!-- Generated by graphviz version 5.0.0 (20220707.2338)
 -->
<!-- Title: gr::lora_sdr::frame_sync Pages: 1 -->
<svg width="130pt" height="151pt"
 viewBox="0.00 0.00 130.00 151.00" xmlns="http://www.w3.org/2000/svg" xmlns:xlink="http://www.w3.org/1999/xlink">
<g id="graph0" class="graph" transform="scale(1 1) rotate(0) translate(4 147)">
<title>gr::lora_sdr::frame_sync</title>
<polygon fill="white" stroke="transparent" points="-4,4 -4,-147 126,-147 126,4 -4,4"/>
<!-- Node1 -->
<g id="node1" class="node">
<title>Node1</title>
<polygon fill="#bfbfbf" stroke="black" points="0,-67.5 0,-86.5 122,-86.5 122,-67.5 0,-67.5"/>
<text text-anchor="middle" x="61" y="-74.5" font-family="Helvetica,sans-Serif" font-size="10.00">gr::lora_sdr::frame_sync</text>
</g>
<!-- Node3 -->
<g id="node3" class="node">
<title>Node3</title>
<g id="a_node3"><a xlink:href="classgr_1_1lora__sdr_1_1frame__sync__impl.html" target="_top" xlink:title="gr::lora_sdr::frame\l_sync_impl">
<polygon fill="white" stroke="black" points="13,-0.5 13,-30.5 109,-30.5 109,-0.5 13,-0.5"/>
<text text-anchor="start" x="21" y="-18.5" font-family="Helvetica,sans-Serif" font-size="10.00">gr::lora_sdr::frame</text>
<text text-anchor="middle" x="61" y="-7.5" font-family="Helvetica,sans-Serif" font-size="10.00">_sync_impl</text>
</a>
</g>
</g>
<!-- Node1&#45;&gt;Node3 -->
<g id="edge3" class="edge">
<title>Node1&#45;&gt;Node3</title>
<path fill="none" stroke="midnightblue" d="M61,-57.23C61,-48.59 61,-38.5 61,-30.52"/>
<polygon fill="midnightblue" stroke="midnightblue" points="57.5,-57.48 61,-67.48 64.5,-57.48 57.5,-57.48"/>
</g>
<!-- Node2 -->
<g id="node2" class="node">
<title>Node2</title>
<polygon fill="white" stroke="#bfbfbf" points="41,-123.5 41,-142.5 81,-142.5 81,-123.5 41,-123.5"/>
<text text-anchor="middle" x="61" y="-130.5" font-family="Helvetica,sans-Serif" font-size="10.00">block</text>
</g>
<!-- Node2&#45;&gt;Node1 -->
<g id="edge1" class="edge">
<title>Node2&#45;&gt;Node1</title>
<path fill="none" stroke="midnightblue" d="M54.53,-113.1C53.9,-104.14 54.34,-93.86 55.87,-86.75"/>
<polygon fill="midnightblue" stroke="midnightblue" points="51.07,-113.62 55.83,-123.08 58.01,-112.71 51.07,-113.62"/>
</g>
<!-- Node2&#45;&gt;Node1 -->
<g id="edge2" class="edge">
<title>Node2&#45;&gt;Node1</title>
<path fill="none" stroke="midnightblue" d="M67.47,-113.1C68.1,-104.14 67.66,-93.86 66.13,-86.75"/>
<polygon fill="midnightblue" stroke="midnightblue" points="63.99,-112.71 66.17,-123.08 70.93,-113.62 63.99,-112.71"/>
</g>
</g>
</svg>
