<?xml version="1.0" encoding="UTF-8" standalone="no"?>
<!DOCTYPE svg PUBLIC "-//W3C//DTD SVG 1.1//EN"
 "http://www.w3.org/Graphics/SVG/1.1/DTD/svg11.dtd">
<!-- Generated by graphviz version 5.0.0 (20220707.2338)
 -->
<!-- Title: gr::lora_sdr::hamming_dec_impl Pages: 1 -->
<svg width="140pt" height="151pt"
 viewBox="0.00 0.00 140.00 151.00" xmlns="http://www.w3.org/2000/svg" xmlns:xlink="http://www.w3.org/1999/xlink">
<g id="graph0" class="graph" transform="scale(1 1) rotate(0) translate(4 147)">
<title>gr::lora_sdr::hamming_dec_impl</title>
<polygon fill="white" stroke="transparent" points="-4,4 -4,-147 136,-147 136,4 -4,4"/>
<!-- Node1 -->
<g id="node1" class="node">
<title>Node1</title>
<polygon fill="#bfbfbf" stroke="black" points="10.5,-0.5 10.5,-30.5 121.5,-30.5 121.5,-0.5 10.5,-0.5"/>
<text text-anchor="start" x="18.5" y="-18.5" font-family="Helvetica,sans-Serif" font-size="10.00">gr::lora_sdr::hamming</text>
<text text-anchor="middle" x="66" y="-7.5" font-family="Helvetica,sans-Serif" font-size="10.00">_dec_impl</text>
</g>
<!-- Node2 -->
<g id="node2" class="node">
<title>Node2</title>
<g id="a_node2"><a xlink:href="classgr_1_1lora__sdr_1_1hamming__dec.html" target="_top" xlink:title="&lt;+description of block+&gt; ">
<polygon fill="white" stroke="black" points="0,-67.5 0,-86.5 132,-86.5 132,-67.5 0,-67.5"/>
<text text-anchor="middle" x="66" y="-74.5" font-family="Helvetica,sans-Serif" font-size="10.00">gr::lora_sdr::hamming_dec</text>
</a>
</g>
</g>
<!-- Node2&#45;&gt;Node1 -->
<g id="edge1" class="edge">
<title>Node2&#45;&gt;Node1</title>
<path fill="none" stroke="midnightblue" d="M66,-57.23C66,-48.59 66,-38.5 66,-30.52"/>
<polygon fill="midnightblue" stroke="midnightblue" points="62.5,-57.48 66,-67.48 69.5,-57.48 62.5,-57.48"/>
</g>
<!-- Node3 -->
<g id="node3" class="node">
<title>Node3</title>
<polygon fill="white" stroke="#bfbfbf" points="33,-123.5 33,-142.5 99,-142.5 99,-123.5 33,-123.5"/>
<text text-anchor="middle" x="66" y="-130.5" font-family="Helvetica,sans-Serif" font-size="10.00">sync_block</text>
</g>
<!-- Node3&#45;&gt;Node2 -->
<g id="edge2" class="edge">
<title>Node3&#45;&gt;Node2</title>
<path fill="none" stroke="midnightblue" d="M66,-112.8C66,-103.91 66,-93.78 66,-86.75"/>
<polygon fill="midnightblue" stroke="midnightblue" points="62.5,-113.08 66,-123.08 69.5,-113.08 62.5,-113.08"/>
</g>
</g>
</svg>
