<?xml version="1.0" encoding="UTF-8" standalone="no"?>
<!DOCTYPE svg PUBLIC "-//W3C//DTD SVG 1.1//EN"
 "http://www.w3.org/Graphics/SVG/1.1/DTD/svg11.dtd">
<!-- Generated by graphviz version 5.0.0 (20220707.2338)
 -->
<!-- Title: gr::lora_sdr::gray_demap_impl Pages: 1 -->
<svg width="98pt" height="162pt"
 viewBox="0.00 0.00 98.00 162.00" xmlns="http://www.w3.org/2000/svg" xmlns:xlink="http://www.w3.org/1999/xlink">
<g id="graph0" class="graph" transform="scale(1 1) rotate(0) translate(4 158)">
<title>gr::lora_sdr::gray_demap_impl</title>
<polygon fill="white" stroke="transparent" points="-4,4 -4,-158 94,-158 94,4 -4,4"/>
<!-- Node1 -->
<g id="node1" class="node">
<title>Node1</title>
<polygon fill="#bfbfbf" stroke="black" points="0,-0.5 0,-30.5 90,-30.5 90,-0.5 0,-0.5"/>
<text text-anchor="start" x="8" y="-18.5" font-family="Helvetica,sans-Serif" font-size="10.00">gr::lora_sdr::gray</text>
<text text-anchor="middle" x="45" y="-7.5" font-family="Helvetica,sans-Serif" font-size="10.00">_demap_impl</text>
</g>
<!-- Node2 -->
<g id="node2" class="node">
<title>Node2</title>
<g id="a_node2"><a xlink:href="classgr_1_1lora__sdr_1_1gray__demap.html" target="_top" xlink:title="&lt;+description of block+&gt; ">
<polygon fill="white" stroke="black" points="0,-67.5 0,-97.5 90,-97.5 90,-67.5 0,-67.5"/>
<text text-anchor="start" x="8" y="-85.5" font-family="Helvetica,sans-Serif" font-size="10.00">gr::lora_sdr::gray</text>
<text text-anchor="middle" x="45" y="-74.5" font-family="Helvetica,sans-Serif" font-size="10.00">_demap</text>
</a>
</g>
</g>
<!-- Node2&#45;&gt;Node1 -->
<g id="edge1" class="edge">
<title>Node2&#45;&gt;Node1</title>
<path fill="none" stroke="midnightblue" d="M45,-57.11C45,-48.15 45,-38.32 45,-30.58"/>
<polygon fill="midnightblue" stroke="midnightblue" points="41.5,-57.4 45,-67.4 48.5,-57.4 41.5,-57.4"/>
</g>
<!-- Node3 -->
<g id="node3" class="node">
<title>Node3</title>
<polygon fill="white" stroke="#bfbfbf" points="12,-134.5 12,-153.5 78,-153.5 78,-134.5 12,-134.5"/>
<text text-anchor="middle" x="45" y="-141.5" font-family="Helvetica,sans-Serif" font-size="10.00">sync_block</text>
</g>
<!-- Node3&#45;&gt;Node2 -->
<g id="edge2" class="edge">
<title>Node3&#45;&gt;Node2</title>
<path fill="none" stroke="midnightblue" d="M45,-124.23C45,-115.59 45,-105.5 45,-97.52"/>
<polygon fill="midnightblue" stroke="midnightblue" points="41.5,-124.48 45,-134.48 48.5,-124.48 41.5,-124.48"/>
</g>
</g>
</svg>
