<?xml version="1.0" encoding="UTF-8" standalone="no"?>
<!DOCTYPE svg PUBLIC "-//W3C//DTD SVG 1.1//EN"
 "http://www.w3.org/Graphics/SVG/1.1/DTD/svg11.dtd">
<!-- Generated by graphviz version 5.0.0 (20220707.2338)
 -->
<!-- Title: data_source_impl.h Pages: 1 -->
<svg width="974pt" height="207pt"
 viewBox="0.00 0.00 973.50 207.00" xmlns="http://www.w3.org/2000/svg" xmlns:xlink="http://www.w3.org/1999/xlink">
<g id="graph0" class="graph" transform="scale(1 1) rotate(0) translate(4 203)">
<title>data_source_impl.h</title>
<polygon fill="white" stroke="transparent" points="-4,4 -4,-203 969.5,-203 969.5,4 -4,4"/>
<!-- Node1 -->
<g id="node1" class="node">
<title>Node1</title>
<polygon fill="#bfbfbf" stroke="black" points="290,-179.5 290,-198.5 391,-198.5 391,-179.5 290,-179.5"/>
<text text-anchor="middle" x="340.5" y="-186.5" font-family="Helvetica,sans-Serif" font-size="10.00">data_source_impl.h</text>
</g>
<!-- Node2 -->
<g id="node2" class="node">
<title>Node2</title>
<g id="a_node2"><a xlink:href="data__source_8h.html" target="_top" xlink:title="gnuradio/lora_sdr/data\l_source.h">
<polygon fill="white" stroke="black" points="134,-112.5 134,-142.5 247,-142.5 247,-112.5 134,-112.5"/>
<text text-anchor="start" x="142" y="-130.5" font-family="Helvetica,sans-Serif" font-size="10.00">gnuradio/lora_sdr/data</text>
<text text-anchor="middle" x="190.5" y="-119.5" font-family="Helvetica,sans-Serif" font-size="10.00">_source.h</text>
</a>
</g>
</g>
<!-- Node1&#45;&gt;Node2 -->
<g id="edge1" class="edge">
<title>Node1&#45;&gt;Node2</title>
<path fill="none" stroke="midnightblue" d="M319.01,-179.48C297.27,-170.85 263.01,-157.26 235.34,-146.29"/>
<polygon fill="midnightblue" stroke="midnightblue" points="236.44,-142.96 225.85,-142.52 233.86,-149.46 236.44,-142.96"/>
</g>
<!-- Node6 -->
<g id="node6" class="node">
<title>Node6</title>
<g id="a_node6"><a xlink:href="utilities_8h.html" target="_top" xlink:title="gnuradio/lora_sdr/utilities.h">
<polygon fill="white" stroke="black" points="467,-118 467,-137 600,-137 600,-118 467,-118"/>
<text text-anchor="middle" x="533.5" y="-125" font-family="Helvetica,sans-Serif" font-size="10.00">gnuradio/lora_sdr/utilities.h</text>
</a>
</g>
</g>
<!-- Node1&#45;&gt;Node6 -->
<g id="edge5" class="edge">
<title>Node1&#45;&gt;Node6</title>
<path fill="none" stroke="midnightblue" d="M368.15,-179.48C401.69,-169.14 458.37,-151.66 495.87,-140.1"/>
<polygon fill="midnightblue" stroke="midnightblue" points="497.37,-143.3 505.9,-137.01 495.31,-136.61 497.37,-143.3"/>
</g>
<!-- Node3 -->
<g id="node3" class="node">
<title>Node3</title>
<g id="a_node3"><a xlink:href="api_8h.html" target="_top" xlink:title="gnuradio/lora_sdr/api.h">
<polygon fill="white" stroke="black" points="0,-56.5 0,-75.5 115,-75.5 115,-56.5 0,-56.5"/>
<text text-anchor="middle" x="57.5" y="-63.5" font-family="Helvetica,sans-Serif" font-size="10.00">gnuradio/lora_sdr/api.h</text>
</a>
</g>
</g>
<!-- Node2&#45;&gt;Node3 -->
<g id="edge2" class="edge">
<title>Node2&#45;&gt;Node3</title>
<path fill="none" stroke="midnightblue" d="M158.98,-112.4C136.86,-102.51 107.53,-89.38 86.09,-79.79"/>
<polygon fill="midnightblue" stroke="midnightblue" points="87.41,-76.55 76.85,-75.66 84.55,-82.94 87.41,-76.55"/>
</g>
<!-- Node5 -->
<g id="node5" class="node">
<title>Node5</title>
<polygon fill="white" stroke="#bfbfbf" points="133.5,-56.5 133.5,-75.5 247.5,-75.5 247.5,-56.5 133.5,-56.5"/>
<text text-anchor="middle" x="190.5" y="-63.5" font-family="Helvetica,sans-Serif" font-size="10.00">gnuradio/sync_block.h</text>
</g>
<!-- Node2&#45;&gt;Node5 -->
<g id="edge4" class="edge">
<title>Node2&#45;&gt;Node5</title>
<path fill="none" stroke="midnightblue" d="M190.5,-112.4C190.5,-104.47 190.5,-94.46 190.5,-85.86"/>
<polygon fill="midnightblue" stroke="midnightblue" points="194,-85.66 190.5,-75.66 187,-85.66 194,-85.66"/>
</g>
<!-- Node4 -->
<g id="node4" class="node">
<title>Node4</title>
<polygon fill="white" stroke="#bfbfbf" points="5,-0.5 5,-19.5 110,-19.5 110,-0.5 5,-0.5"/>
<text text-anchor="middle" x="57.5" y="-7.5" font-family="Helvetica,sans-Serif" font-size="10.00">gnuradio/attributes.h</text>
</g>
<!-- Node3&#45;&gt;Node4 -->
<g id="edge3" class="edge">
<title>Node3&#45;&gt;Node4</title>
<path fill="none" stroke="midnightblue" d="M57.5,-56.08C57.5,-49.01 57.5,-38.86 57.5,-29.99"/>
<polygon fill="midnightblue" stroke="midnightblue" points="61,-29.75 57.5,-19.75 54,-29.75 61,-29.75"/>
</g>
<!-- Node7 -->
<g id="node7" class="node">
<title>Node7</title>
<polygon fill="white" stroke="#bfbfbf" points="265.5,-56.5 265.5,-75.5 311.5,-75.5 311.5,-56.5 265.5,-56.5"/>
<text text-anchor="middle" x="288.5" y="-63.5" font-family="Helvetica,sans-Serif" font-size="10.00">cstdint</text>
</g>
<!-- Node6&#45;&gt;Node7 -->
<g id="edge6" class="edge">
<title>Node6&#45;&gt;Node7</title>
<path fill="none" stroke="midnightblue" d="M495.29,-117.94C454.57,-108.71 388,-93.3 321.37,-76.15"/>
<polygon fill="midnightblue" stroke="midnightblue" points="322.1,-72.72 311.54,-73.6 320.35,-79.5 322.1,-72.72"/>
</g>
<!-- Node8 -->
<g id="node8" class="node">
<title>Node8</title>
<polygon fill="white" stroke="#bfbfbf" points="330,-56.5 330,-75.5 379,-75.5 379,-56.5 330,-56.5"/>
<text text-anchor="middle" x="354.5" y="-63.5" font-family="Helvetica,sans-Serif" font-size="10.00">string.h</text>
</g>
<!-- Node6&#45;&gt;Node8 -->
<g id="edge7" class="edge">
<title>Node6&#45;&gt;Node8</title>
<path fill="none" stroke="midnightblue" d="M507.85,-117.98C476.62,-107.59 423.73,-90.01 388.96,-78.46"/>
<polygon fill="midnightblue" stroke="midnightblue" points="389.83,-75.06 379.23,-75.22 387.62,-81.7 389.83,-75.06"/>
</g>
<!-- Node9 -->
<g id="node9" class="node">
<title>Node9</title>
<polygon fill="white" stroke="#bfbfbf" points="397.5,-56.5 397.5,-75.5 447.5,-75.5 447.5,-56.5 397.5,-56.5"/>
<text text-anchor="middle" x="422.5" y="-63.5" font-family="Helvetica,sans-Serif" font-size="10.00">iomanip</text>
</g>
<!-- Node6&#45;&gt;Node9 -->
<g id="edge8" class="edge">
<title>Node6&#45;&gt;Node9</title>
<path fill="none" stroke="midnightblue" d="M517.6,-117.98C499.22,-108.12 468.74,-91.79 447.26,-80.27"/>
<polygon fill="midnightblue" stroke="midnightblue" points="448.84,-77.15 438.37,-75.51 445.53,-83.32 448.84,-77.15"/>
</g>
<!-- Node10 -->
<g id="node10" class="node">
<title>Node10</title>
<polygon fill="white" stroke="#bfbfbf" points="466,-56.5 466,-75.5 517,-75.5 517,-56.5 466,-56.5"/>
<text text-anchor="middle" x="491.5" y="-63.5" font-family="Helvetica,sans-Serif" font-size="10.00">numeric</text>
</g>
<!-- Node6&#45;&gt;Node10 -->
<g id="edge9" class="edge">
<title>Node6&#45;&gt;Node10</title>
<path fill="none" stroke="midnightblue" d="M527.48,-117.98C521.24,-109.14 511.33,-95.09 503.48,-83.98"/>
<polygon fill="midnightblue" stroke="midnightblue" points="506.13,-81.66 497.51,-75.51 500.41,-85.7 506.13,-81.66"/>
</g>
<!-- Node11 -->
<g id="node11" class="node">
<title>Node11</title>
<polygon fill="white" stroke="#bfbfbf" points="535,-56.5 535,-75.5 618,-75.5 618,-56.5 535,-56.5"/>
<text text-anchor="middle" x="576.5" y="-63.5" font-family="Helvetica,sans-Serif" font-size="10.00">gnuradio/expj.h</text>
</g>
<!-- Node6&#45;&gt;Node11 -->
<g id="edge10" class="edge">
<title>Node6&#45;&gt;Node11</title>
<path fill="none" stroke="midnightblue" d="M539.66,-117.98C546.11,-109.05 556.4,-94.81 564.47,-83.64"/>
<polygon fill="midnightblue" stroke="midnightblue" points="567.33,-85.66 570.35,-75.51 561.66,-81.56 567.33,-85.66"/>
</g>
<!-- Node12 -->
<g id="node12" class="node">
<title>Node12</title>
<polygon fill="white" stroke="#bfbfbf" points="636,-56.5 636,-75.5 717,-75.5 717,-56.5 636,-56.5"/>
<text text-anchor="middle" x="676.5" y="-63.5" font-family="Helvetica,sans-Serif" font-size="10.00">sys/resource.h</text>
</g>
<!-- Node6&#45;&gt;Node12 -->
<g id="edge11" class="edge">
<title>Node6&#45;&gt;Node12</title>
<path fill="none" stroke="midnightblue" d="M553.99,-117.98C578.31,-107.86 619.05,-90.9 646.82,-79.35"/>
<polygon fill="midnightblue" stroke="midnightblue" points="648.16,-82.58 656.05,-75.51 645.47,-76.12 648.16,-82.58"/>
</g>
<!-- Node13 -->
<g id="node13" class="node">
<title>Node13</title>
<polygon fill="white" stroke="#bfbfbf" points="735.5,-56.5 735.5,-75.5 809.5,-75.5 809.5,-56.5 735.5,-56.5"/>
<text text-anchor="middle" x="772.5" y="-63.5" font-family="Helvetica,sans-Serif" font-size="10.00">sys/syscall.h</text>
</g>
<!-- Node6&#45;&gt;Node13 -->
<g id="edge12" class="edge">
<title>Node6&#45;&gt;Node13</title>
<path fill="none" stroke="midnightblue" d="M567.74,-117.98C610.07,-107.44 682.18,-89.49 728.55,-77.94"/>
<polygon fill="midnightblue" stroke="midnightblue" points="729.46,-81.32 738.32,-75.51 727.77,-74.53 729.46,-81.32"/>
</g>
<!-- Node14 -->
<g id="node14" class="node">
<title>Node14</title>
<polygon fill="white" stroke="#bfbfbf" points="827.5,-56.5 827.5,-75.5 891.5,-75.5 891.5,-56.5 827.5,-56.5"/>
<text text-anchor="middle" x="859.5" y="-63.5" font-family="Helvetica,sans-Serif" font-size="10.00">volk/volk.h</text>
</g>
<!-- Node6&#45;&gt;Node14 -->
<g id="edge13" class="edge">
<title>Node6&#45;&gt;Node14</title>
<path fill="none" stroke="midnightblue" d="M585.36,-117.96C640.45,-108.75 730.32,-93.3 817.26,-76.18"/>
<polygon fill="midnightblue" stroke="midnightblue" points="818.17,-79.57 827.3,-74.2 816.81,-72.71 818.17,-79.57"/>
</g>
<!-- Node15 -->
<g id="node15" class="node">
<title>Node15</title>
<polygon fill="white" stroke="#bfbfbf" points="909.5,-56.5 909.5,-75.5 965.5,-75.5 965.5,-56.5 909.5,-56.5"/>
<text text-anchor="middle" x="937.5" y="-63.5" font-family="Helvetica,sans-Serif" font-size="10.00">algorithm</text>
</g>
<!-- Node6&#45;&gt;Node15 -->
<g id="edge14" class="edge">
<title>Node6&#45;&gt;Node15</title>
<path fill="none" stroke="midnightblue" d="M600.13,-119.4C671.76,-111.3 789.12,-96.69 899.33,-76.06"/>
<polygon fill="midnightblue" stroke="midnightblue" points="900.11,-79.48 909.28,-74.18 898.81,-72.6 900.11,-79.48"/>
</g>
</g>
</svg>
