<?xml version="1.0" encoding="UTF-8" standalone="no"?>
<!DOCTYPE svg PUBLIC "-//W3C//DTD SVG 1.1//EN"
 "http://www.w3.org/Graphics/SVG/1.1/DTD/svg11.dtd">
<!-- Generated by graphviz version 5.0.0 (20220707.2338)
 -->
<!-- Title: pydoc_macros.h Pages: 1 -->
<svg width="5864pt" height="95pt"
 viewBox="0.00 0.00 5864.00 95.00" xmlns="http://www.w3.org/2000/svg" xmlns:xlink="http://www.w3.org/1999/xlink">
<g id="graph0" class="graph" transform="scale(1 1) rotate(0) translate(4 91)">
<title>pydoc_macros.h</title>
<polygon fill="white" stroke="transparent" points="-4,4 -4,-91 5860,-91 5860,4 -4,4"/>
<!-- Node1 -->
<g id="node1" class="node">
<title>Node1</title>
<polygon fill="#bfbfbf" stroke="black" points="2881.5,-67.5 2881.5,-86.5 2970.5,-86.5 2970.5,-67.5 2881.5,-67.5"/>
<text text-anchor="middle" x="2926" y="-74.5" font-family="Helvetica,sans-Serif" font-size="10.00">pydoc_macros.h</text>
</g>
<!-- Node2 -->
<g id="node2" class="node">
<title>Node2</title>
<g id="a_node2"><a xlink:href="build_2test__modules_2gnuradio_2lora__sdr_2bindings_2docstrings_2add__crc__pydoc__template_8h.html" target="_top" xlink:title="add_crc_pydoc_template.h">
<polygon fill="white" stroke="black" points="0,-6 0,-25 134,-25 134,-6 0,-6"/>
<text text-anchor="middle" x="67" y="-13" font-family="Helvetica,sans-Serif" font-size="10.00">add_crc_pydoc_template.h</text>
</a>
</g>
</g>
<!-- Node1&#45;&gt;Node2 -->
<g id="edge1" class="edge">
<title>Node1&#45;&gt;Node2</title>
<path fill="none" stroke="midnightblue" d="M2871.23,-75.68C2505.51,-73.49 423.46,-59.8 143,-31 130.44,-29.71 116.86,-27.41 104.7,-25.02"/>
<polygon fill="midnightblue" stroke="midnightblue" points="2871.28,-79.18 2881.3,-75.74 2871.32,-72.18 2871.28,-79.18"/>
</g>
<!-- Node3 -->
<g id="node3" class="node">
<title>Node3</title>
<g id="a_node3"><a xlink:href="build_2test__modules_2gnuradio_2lora__sdr_2bindings_2docstrings_2crc__verif__pydoc__template_8h.html" target="_top" xlink:title="crc_verif_pydoc_template.h">
<polygon fill="white" stroke="black" points="152.5,-6 152.5,-25 289.5,-25 289.5,-6 152.5,-6"/>
<text text-anchor="middle" x="221" y="-13" font-family="Helvetica,sans-Serif" font-size="10.00">crc_verif_pydoc_template.h</text>
</a>
</g>
</g>
<!-- Node1&#45;&gt;Node3 -->
<g id="edge2" class="edge">
<title>Node1&#45;&gt;Node3</title>
<path fill="none" stroke="midnightblue" d="M2871,-75.61C2516.75,-73.02 562.96,-57.61 299,-31 286.12,-29.7 272.18,-27.4 259.7,-25.01"/>
<polygon fill="midnightblue" stroke="midnightblue" points="2871.23,-79.11 2881.25,-75.68 2871.28,-72.11 2871.23,-79.11"/>
</g>
<!-- Node4 -->
<g id="node4" class="node">
<title>Node4</title>
<g id="a_node4"><a xlink:href="build_2test__modules_2gnuradio_2lora__sdr_2bindings_2docstrings_2data__source__pydoc__template_8h.html" target="_top" xlink:title="data_source_pydoc_template.h">
<polygon fill="white" stroke="black" points="308,-6 308,-25 460,-25 460,-6 308,-6"/>
<text text-anchor="middle" x="384" y="-13" font-family="Helvetica,sans-Serif" font-size="10.00">data_source_pydoc_template.h</text>
</a>
</g>
</g>
<!-- Node1&#45;&gt;Node4 -->
<g id="edge3" class="edge">
<title>Node1&#45;&gt;Node4</title>
<path fill="none" stroke="midnightblue" d="M2870.8,-76.12C2553.38,-76.64 957.77,-76.9 469,-31 455.14,-29.7 440.13,-27.43 426.64,-25.07"/>
<polygon fill="midnightblue" stroke="midnightblue" points="2871.12,-79.62 2881.11,-76.1 2871.11,-72.62 2871.12,-79.62"/>
</g>
<!-- Node5 -->
<g id="node5" class="node">
<title>Node5</title>
<g id="a_node5"><a xlink:href="build_2test__modules_2gnuradio_2lora__sdr_2bindings_2docstrings_2deinterleaver__pydoc__template_8h.html" target="_top" xlink:title="deinterleaver_pydoc\l_template.h">
<polygon fill="white" stroke="black" points="478,-0.5 478,-30.5 582,-30.5 582,-0.5 478,-0.5"/>
<text text-anchor="start" x="486" y="-18.5" font-family="Helvetica,sans-Serif" font-size="10.00">deinterleaver_pydoc</text>
<text text-anchor="middle" x="530" y="-7.5" font-family="Helvetica,sans-Serif" font-size="10.00">_template.h</text>
</a>
</g>
</g>
<!-- Node1&#45;&gt;Node5 -->
<g id="edge4" class="edge">
<title>Node1&#45;&gt;Node5</title>
<path fill="none" stroke="midnightblue" d="M2871.22,-75.65C2541.13,-73.43 823.53,-60.53 591,-31 588.08,-30.63 585.11,-30.18 582.11,-29.66"/>
<polygon fill="midnightblue" stroke="midnightblue" points="2871.45,-79.15 2881.48,-75.72 2871.5,-72.15 2871.45,-79.15"/>
</g>
<!-- Node6 -->
<g id="node6" class="node">
<title>Node6</title>
<g id="a_node6"><a xlink:href="build_2test__modules_2gnuradio_2lora__sdr_2bindings_2docstrings_2dewhitening__pydoc__template_8h.html" target="_top" xlink:title="dewhitening_pydoc_template.h">
<polygon fill="white" stroke="black" points="600.5,-6 600.5,-25 751.5,-25 751.5,-6 600.5,-6"/>
<text text-anchor="middle" x="676" y="-13" font-family="Helvetica,sans-Serif" font-size="10.00">dewhitening_pydoc_template.h</text>
</a>
</g>
</g>
<!-- Node1&#45;&gt;Node6 -->
<g id="edge5" class="edge">
<title>Node1&#45;&gt;Node6</title>
<path fill="none" stroke="midnightblue" d="M2870.91,-75.98C2576.66,-75.68 1187.61,-72.11 760,-31 746.3,-29.68 731.47,-27.41 718.13,-25.05"/>
<polygon fill="midnightblue" stroke="midnightblue" points="2871.31,-79.48 2881.32,-75.99 2871.32,-72.48 2871.31,-79.48"/>
</g>
<!-- Node7 -->
<g id="node7" class="node">
<title>Node7</title>
<g id="a_node7"><a xlink:href="build_2test__modules_2gnuradio_2lora__sdr_2bindings_2docstrings_2fft__demod__pydoc__template_8h.html" target="_top" xlink:title="fft_demod_pydoc_template.h">
<polygon fill="white" stroke="black" points="769.5,-6 769.5,-25 912.5,-25 912.5,-6 769.5,-6"/>
<text text-anchor="middle" x="841" y="-13" font-family="Helvetica,sans-Serif" font-size="10.00">fft_demod_pydoc_template.h</text>
</a>
</g>
</g>
<!-- Node1&#45;&gt;Node7 -->
<g id="edge6" class="edge">
<title>Node1&#45;&gt;Node7</title>
<path fill="none" stroke="midnightblue" d="M2871.02,-75.92C2590.39,-75.31 1315.59,-70.41 922,-31 908.78,-29.68 894.48,-27.4 881.62,-25.04"/>
<polygon fill="midnightblue" stroke="midnightblue" points="2871.35,-79.42 2881.35,-75.94 2871.36,-72.42 2871.35,-79.42"/>
</g>
<!-- Node8 -->
<g id="node8" class="node">
<title>Node8</title>
<g id="a_node8"><a xlink:href="build_2test__modules_2gnuradio_2lora__sdr_2bindings_2docstrings_2frame__sync__pydoc__template_8h.html" target="_top" xlink:title="frame_sync_pydoc_template.h">
<polygon fill="white" stroke="black" points="931,-6 931,-25 1081,-25 1081,-6 931,-6"/>
<text text-anchor="middle" x="1006" y="-13" font-family="Helvetica,sans-Serif" font-size="10.00">frame_sync_pydoc_template.h</text>
</a>
</g>
</g>
<!-- Node1&#45;&gt;Node8 -->
<g id="edge7" class="edge">
<title>Node1&#45;&gt;Node8</title>
<path fill="none" stroke="midnightblue" d="M2870.97,-75.74C2604.75,-74.31 1448.55,-66.15 1090,-31 1076.3,-29.66 1061.47,-27.38 1048.14,-25.02"/>
<polygon fill="midnightblue" stroke="midnightblue" points="2871.15,-79.24 2881.16,-75.79 2871.18,-72.24 2871.15,-79.24"/>
</g>
<!-- Node9 -->
<g id="node9" class="node">
<title>Node9</title>
<g id="a_node9"><a xlink:href="build_2test__modules_2gnuradio_2lora__sdr_2bindings_2docstrings_2gray__demap__pydoc__template_8h.html" target="_top" xlink:title="gray_demap_pydoc_template.h">
<polygon fill="white" stroke="black" points="1099,-6 1099,-25 1251,-25 1251,-6 1099,-6"/>
<text text-anchor="middle" x="1175" y="-13" font-family="Helvetica,sans-Serif" font-size="10.00">gray_demap_pydoc_template.h</text>
</a>
</g>
</g>
<!-- Node1&#45;&gt;Node9 -->
<g id="edge8" class="edge">
<title>Node1&#45;&gt;Node9</title>
<path fill="none" stroke="midnightblue" d="M2870.89,-75.56C2619.87,-73.42 1583.09,-62.76 1260,-31 1246.29,-29.65 1231.46,-27.4 1218.08,-25.07"/>
<polygon fill="midnightblue" stroke="midnightblue" points="2871.18,-79.07 2881.21,-75.65 2871.24,-72.07 2871.18,-79.07"/>
</g>
<!-- Node10 -->
<g id="node10" class="node">
<title>Node10</title>
<g id="a_node10"><a xlink:href="build_2test__modules_2gnuradio_2lora__sdr_2bindings_2docstrings_2gray__mapping__pydoc__template_8h.html" target="_top" xlink:title="gray_mapping_pydoc\l_template.h">
<polygon fill="white" stroke="black" points="1269.5,-0.5 1269.5,-30.5 1378.5,-30.5 1378.5,-0.5 1269.5,-0.5"/>
<text text-anchor="start" x="1277.5" y="-18.5" font-family="Helvetica,sans-Serif" font-size="10.00">gray_mapping_pydoc</text>
<text text-anchor="middle" x="1324" y="-7.5" font-family="Helvetica,sans-Serif" font-size="10.00">_template.h</text>
</a>
</g>
</g>
<!-- Node1&#45;&gt;Node10 -->
<g id="edge9" class="edge">
<title>Node1&#45;&gt;Node10</title>
<path fill="none" stroke="midnightblue" d="M2871.23,-75.82C2632.77,-74.81 1683.73,-68.47 1388,-31 1384.95,-30.61 1381.83,-30.15 1378.69,-29.62"/>
<polygon fill="midnightblue" stroke="midnightblue" points="2871.38,-79.32 2881.39,-75.86 2871.41,-72.32 2871.38,-79.32"/>
</g>
<!-- Node11 -->
<g id="node11" class="node">
<title>Node11</title>
<g id="a_node11"><a xlink:href="build_2test__modules_2gnuradio_2lora__sdr_2bindings_2docstrings_2hamming__dec__pydoc__template_8h.html" target="_top" xlink:title="hamming_dec_pydoc_template.h">
<polygon fill="white" stroke="black" points="1397,-6 1397,-25 1557,-25 1557,-6 1397,-6"/>
<text text-anchor="middle" x="1477" y="-13" font-family="Helvetica,sans-Serif" font-size="10.00">hamming_dec_pydoc_template.h</text>
</a>
</g>
</g>
<!-- Node1&#45;&gt;Node11 -->
<g id="edge10" class="edge">
<title>Node1&#45;&gt;Node11</title>
<path fill="none" stroke="midnightblue" d="M2871.23,-75.13C2650.53,-71.47 1825.8,-56.36 1566,-31 1551.67,-29.6 1536.14,-27.33 1522.13,-25.01"/>
<polygon fill="midnightblue" stroke="midnightblue" points="2871.23,-78.63 2881.28,-75.29 2871.34,-71.63 2871.23,-78.63"/>
</g>
<!-- Node12 -->
<g id="node12" class="node">
<title>Node12</title>
<g id="a_node12"><a xlink:href="build_2test__modules_2gnuradio_2lora__sdr_2bindings_2docstrings_2hamming__enc__pydoc__template_8h.html" target="_top" xlink:title="hamming_enc_pydoc_template.h">
<polygon fill="white" stroke="black" points="1575,-6 1575,-25 1735,-25 1735,-6 1575,-6"/>
<text text-anchor="middle" x="1655" y="-13" font-family="Helvetica,sans-Serif" font-size="10.00">hamming_enc_pydoc_template.h</text>
</a>
</g>
</g>
<!-- Node1&#45;&gt;Node12 -->
<g id="edge11" class="edge">
<title>Node1&#45;&gt;Node12</title>
<path fill="none" stroke="midnightblue" d="M2871.2,-76.31C2702.6,-76.76 2176.81,-74.33 1744,-31 1729.82,-29.58 1714.48,-27.34 1700.59,-25.04"/>
<polygon fill="midnightblue" stroke="midnightblue" points="2871.33,-79.81 2881.32,-76.28 2871.31,-72.81 2871.33,-79.81"/>
</g>
<!-- Node13 -->
<g id="node13" class="node">
<title>Node13</title>
<g id="a_node13"><a xlink:href="build_2test__modules_2gnuradio_2lora__sdr_2bindings_2docstrings_2header__decoder__pydoc__template_8h.html" target="_top" xlink:title="header_decoder_pydoc\l_template.h">
<polygon fill="white" stroke="black" points="1753.5,-0.5 1753.5,-30.5 1870.5,-30.5 1870.5,-0.5 1753.5,-0.5"/>
<text text-anchor="start" x="1761.5" y="-18.5" font-family="Helvetica,sans-Serif" font-size="10.00">header_decoder_pydoc</text>
<text text-anchor="middle" x="1812" y="-7.5" font-family="Helvetica,sans-Serif" font-size="10.00">_template.h</text>
</a>
</g>
</g>
<!-- Node1&#45;&gt;Node13 -->
<g id="edge12" class="edge">
<title>Node1&#45;&gt;Node13</title>
<path fill="none" stroke="midnightblue" d="M2871.1,-74.85C2684.36,-70.75 2074.55,-55.75 1880,-31 1877.01,-30.62 1873.95,-30.17 1870.87,-29.68"/>
<polygon fill="midnightblue" stroke="midnightblue" points="2871.16,-78.35 2881.23,-75.07 2871.31,-71.35 2871.16,-78.35"/>
</g>
<!-- Node14 -->
<g id="node14" class="node">
<title>Node14</title>
<g id="a_node14"><a xlink:href="build_2test__modules_2gnuradio_2lora__sdr_2bindings_2docstrings_2header__pydoc__template_8h.html" target="_top" xlink:title="header_pydoc_template.h">
<polygon fill="white" stroke="black" points="1889,-6 1889,-25 2017,-25 2017,-6 1889,-6"/>
<text text-anchor="middle" x="1953" y="-13" font-family="Helvetica,sans-Serif" font-size="10.00">header_pydoc_template.h</text>
</a>
</g>
</g>
<!-- Node1&#45;&gt;Node14 -->
<g id="edge13" class="edge">
<title>Node1&#45;&gt;Node14</title>
<path fill="none" stroke="midnightblue" d="M2871.21,-76.04C2730.38,-75.54 2344.47,-70.38 2026,-31 2014.33,-29.56 2001.73,-27.31 1990.34,-25.01"/>
<polygon fill="midnightblue" stroke="midnightblue" points="2871.31,-79.54 2881.32,-76.07 2871.33,-72.54 2871.31,-79.54"/>
</g>
<!-- Node15 -->
<g id="node15" class="node">
<title>Node15</title>
<g id="a_node15"><a xlink:href="build_2test__modules_2gnuradio_2lora__sdr_2bindings_2docstrings_2interleaver__pydoc__template_8h.html" target="_top" xlink:title="interleaver_pydoc_template.h">
<polygon fill="white" stroke="black" points="2035,-6 2035,-25 2179,-25 2179,-6 2035,-6"/>
<text text-anchor="middle" x="2107" y="-13" font-family="Helvetica,sans-Serif" font-size="10.00">interleaver_pydoc_template.h</text>
</a>
</g>
</g>
<!-- Node1&#45;&gt;Node15 -->
<g id="edge14" class="edge">
<title>Node1&#45;&gt;Node15</title>
<path fill="none" stroke="midnightblue" d="M2871.06,-74.83C2748.23,-71.74 2442.19,-61.4 2188,-31 2175.38,-29.49 2161.74,-27.28 2149.32,-25.03"/>
<polygon fill="midnightblue" stroke="midnightblue" points="2871.25,-78.34 2881.33,-75.08 2871.42,-71.34 2871.25,-78.34"/>
</g>
<!-- Node16 -->
<g id="node16" class="node">
<title>Node16</title>
<g id="a_node16"><a xlink:href="build_2test__modules_2gnuradio_2lora__sdr_2bindings_2docstrings_2modulate__pydoc__template_8h.html" target="_top" xlink:title="modulate_pydoc_template.h">
<polygon fill="white" stroke="black" points="2197.5,-6 2197.5,-25 2336.5,-25 2336.5,-6 2197.5,-6"/>
<text text-anchor="middle" x="2267" y="-13" font-family="Helvetica,sans-Serif" font-size="10.00">modulate_pydoc_template.h</text>
</a>
</g>
</g>
<!-- Node1&#45;&gt;Node16 -->
<g id="edge15" class="edge">
<title>Node1&#45;&gt;Node16</title>
<path fill="none" stroke="midnightblue" d="M2871.18,-73.7C2767.89,-68.94 2537.5,-56.27 2345,-31 2333.12,-29.44 2320.3,-27.27 2308.56,-25.07"/>
<polygon fill="midnightblue" stroke="midnightblue" points="2871.22,-77.21 2881.37,-74.17 2871.54,-70.22 2871.22,-77.21"/>
</g>
<!-- Node17 -->
<g id="node17" class="node">
<title>Node17</title>
<g id="a_node17"><a xlink:href="build_2test__modules_2gnuradio_2lora__sdr_2bindings_2docstrings_2payload__id__inc__pydoc__template_8h.html" target="_top" xlink:title="payload_id_inc_pydoc\l_template.h">
<polygon fill="white" stroke="black" points="2354.5,-0.5 2354.5,-30.5 2467.5,-30.5 2467.5,-0.5 2354.5,-0.5"/>
<text text-anchor="start" x="2362.5" y="-18.5" font-family="Helvetica,sans-Serif" font-size="10.00">payload_id_inc_pydoc</text>
<text text-anchor="middle" x="2411" y="-7.5" font-family="Helvetica,sans-Serif" font-size="10.00">_template.h</text>
</a>
</g>
</g>
<!-- Node1&#45;&gt;Node17 -->
<g id="edge16" class="edge">
<title>Node1&#45;&gt;Node17</title>
<path fill="none" stroke="midnightblue" d="M2871.19,-72.64C2786.17,-66.96 2617.57,-53.79 2476,-31 2473.26,-30.56 2470.46,-30.07 2467.64,-29.56"/>
<polygon fill="midnightblue" stroke="midnightblue" points="2871.17,-76.15 2881.38,-73.32 2871.63,-69.17 2871.17,-76.15"/>
</g>
<!-- Node18 -->
<g id="node18" class="node">
<title>Node18</title>
<g id="a_node18"><a xlink:href="build_2test__modules_2gnuradio_2lora__sdr_2bindings_2docstrings_2RH__RF95__header__pydoc__template_8h.html" target="_top" xlink:title="RH_RF95_header_pydoc\l_template.h">
<polygon fill="white" stroke="black" points="2485.5,-0.5 2485.5,-30.5 2612.5,-30.5 2612.5,-0.5 2485.5,-0.5"/>
<text text-anchor="start" x="2493.5" y="-18.5" font-family="Helvetica,sans-Serif" font-size="10.00">RH_RF95_header_pydoc</text>
<text text-anchor="middle" x="2549" y="-7.5" font-family="Helvetica,sans-Serif" font-size="10.00">_template.h</text>
</a>
</g>
</g>
<!-- Node1&#45;&gt;Node18 -->
<g id="edge17" class="edge">
<title>Node1&#45;&gt;Node18</title>
<path fill="none" stroke="midnightblue" d="M2871.17,-68.71C2810.19,-60.41 2708.84,-46.04 2622,-31 2618.94,-30.47 2615.82,-29.91 2612.67,-29.34"/>
<polygon fill="midnightblue" stroke="midnightblue" points="2870.95,-72.21 2881.33,-70.09 2871.89,-65.28 2870.95,-72.21"/>
</g>
<!-- Node19 -->
<g id="node19" class="node">
<title>Node19</title>
<g id="a_node19"><a xlink:href="build_2test__modules_2gnuradio_2lora__sdr_2bindings_2docstrings_2utilities__pydoc__template_8h.html" target="_top" xlink:title="utilities_pydoc_template.h">
<polygon fill="white" stroke="black" points="2631,-6 2631,-25 2761,-25 2761,-6 2631,-6"/>
<text text-anchor="middle" x="2696" y="-13" font-family="Helvetica,sans-Serif" font-size="10.00">utilities_pydoc_template.h</text>
</a>
</g>
</g>
<!-- Node1&#45;&gt;Node19 -->
<g id="edge18" class="edge">
<title>Node1&#45;&gt;Node19</title>
<path fill="none" stroke="midnightblue" d="M2883.36,-64.97C2838.7,-53.41 2769.51,-35.52 2728.89,-25.01"/>
<polygon fill="midnightblue" stroke="midnightblue" points="2882.49,-68.36 2893.05,-67.48 2884.24,-61.58 2882.49,-68.36"/>
</g>
<!-- Node20 -->
<g id="node20" class="node">
<title>Node20</title>
<g id="a_node20"><a xlink:href="build_2test__modules_2gnuradio_2lora__sdr_2bindings_2docstrings_2whitening__pydoc__template_8h.html" target="_top" xlink:title="whitening_pydoc_template.h">
<polygon fill="white" stroke="black" points="2779,-6 2779,-25 2919,-25 2919,-6 2779,-6"/>
<text text-anchor="middle" x="2849" y="-13" font-family="Helvetica,sans-Serif" font-size="10.00">whitening_pydoc_template.h</text>
</a>
</g>
</g>
<!-- Node1&#45;&gt;Node20 -->
<g id="edge19" class="edge">
<title>Node1&#45;&gt;Node20</title>
<path fill="none" stroke="midnightblue" d="M2906.97,-61.29C2892.2,-49.88 2872.24,-34.46 2860.01,-25.01"/>
<polygon fill="midnightblue" stroke="midnightblue" points="2904.91,-64.13 2914.97,-67.48 2909.19,-58.59 2904.91,-64.13"/>
</g>
<!-- Node21 -->
<g id="node21" class="node">
<title>Node21</title>
<g id="a_node21"><a xlink:href="python_2lora__sdr_2bindings_2docstrings_2add__crc__pydoc__template_8h.html" target="_top" xlink:title="add_crc_pydoc_template.h">
<polygon fill="white" stroke="black" points="2937,-6 2937,-25 3071,-25 3071,-6 2937,-6"/>
<text text-anchor="middle" x="3004" y="-13" font-family="Helvetica,sans-Serif" font-size="10.00">add_crc_pydoc_template.h</text>
</a>
</g>
</g>
<!-- Node1&#45;&gt;Node21 -->
<g id="edge20" class="edge">
<title>Node1&#45;&gt;Node21</title>
<path fill="none" stroke="midnightblue" d="M2945.28,-61.29C2960.24,-49.88 2980.46,-34.46 2992.85,-25.01"/>
<polygon fill="midnightblue" stroke="midnightblue" points="2943,-58.63 2937.18,-67.48 2947.25,-64.19 2943,-58.63"/>
</g>
<!-- Node22 -->
<g id="node22" class="node">
<title>Node22</title>
<g id="a_node22"><a xlink:href="python_2lora__sdr_2bindings_2docstrings_2crc__verif__pydoc__template_8h.html" target="_top" xlink:title="crc_verif_pydoc_template.h">
<polygon fill="white" stroke="black" points="3089.5,-6 3089.5,-25 3226.5,-25 3226.5,-6 3089.5,-6"/>
<text text-anchor="middle" x="3158" y="-13" font-family="Helvetica,sans-Serif" font-size="10.00">crc_verif_pydoc_template.h</text>
</a>
</g>
</g>
<!-- Node1&#45;&gt;Node22 -->
<g id="edge21" class="edge">
<title>Node1&#45;&gt;Node22</title>
<path fill="none" stroke="midnightblue" d="M2969.01,-64.97C3014.06,-53.41 3083.85,-35.52 3124.82,-25.01"/>
<polygon fill="midnightblue" stroke="midnightblue" points="2968.06,-61.6 2959.24,-67.48 2969.8,-68.38 2968.06,-61.6"/>
</g>
<!-- Node23 -->
<g id="node23" class="node">
<title>Node23</title>
<g id="a_node23"><a xlink:href="python_2lora__sdr_2bindings_2docstrings_2data__source__pydoc__template_8h.html" target="_top" xlink:title="data_source_pydoc_template.h">
<polygon fill="white" stroke="black" points="3245,-6 3245,-25 3397,-25 3397,-6 3245,-6"/>
<text text-anchor="middle" x="3321" y="-13" font-family="Helvetica,sans-Serif" font-size="10.00">data_source_pydoc_template.h</text>
</a>
</g>
</g>
<!-- Node1&#45;&gt;Node23 -->
<g id="edge22" class="edge">
<title>Node1&#45;&gt;Node23</title>
<path fill="none" stroke="midnightblue" d="M2980.67,-68.48C3042.65,-59.86 3146.7,-45.1 3236,-31 3247.68,-29.16 3260.25,-27.07 3272.04,-25.07"/>
<polygon fill="midnightblue" stroke="midnightblue" points="2980.14,-65.02 2970.72,-69.86 2981.1,-71.96 2980.14,-65.02"/>
</g>
<!-- Node24 -->
<g id="node24" class="node">
<title>Node24</title>
<g id="a_node24"><a xlink:href="python_2lora__sdr_2bindings_2docstrings_2deinterleaver__pydoc__template_8h.html" target="_top" xlink:title="deinterleaver_pydoc\l_template.h">
<polygon fill="white" stroke="black" points="3415,-0.5 3415,-30.5 3519,-30.5 3519,-0.5 3415,-0.5"/>
<text text-anchor="start" x="3423" y="-18.5" font-family="Helvetica,sans-Serif" font-size="10.00">deinterleaver_pydoc</text>
<text text-anchor="middle" x="3467" y="-7.5" font-family="Helvetica,sans-Serif" font-size="10.00">_template.h</text>
</a>
</g>
</g>
<!-- Node1&#45;&gt;Node24 -->
<g id="edge23" class="edge">
<title>Node1&#45;&gt;Node24</title>
<path fill="none" stroke="midnightblue" d="M2980.78,-73.36C3070.25,-68.5 3253.08,-56.22 3406,-31 3408.9,-30.52 3411.87,-29.98 3414.85,-29.4"/>
<polygon fill="midnightblue" stroke="midnightblue" points="2980.4,-69.88 2970.6,-73.91 2980.78,-76.87 2980.4,-69.88"/>
</g>
<!-- Node25 -->
<g id="node25" class="node">
<title>Node25</title>
<g id="a_node25"><a xlink:href="python_2lora__sdr_2bindings_2docstrings_2dewhitening__pydoc__template_8h.html" target="_top" xlink:title="dewhitening_pydoc_template.h">
<polygon fill="white" stroke="black" points="3537.5,-6 3537.5,-25 3688.5,-25 3688.5,-6 3537.5,-6"/>
<text text-anchor="middle" x="3613" y="-13" font-family="Helvetica,sans-Serif" font-size="10.00">dewhitening_pydoc_template.h</text>
</a>
</g>
</g>
<!-- Node1&#45;&gt;Node25 -->
<g id="edge24" class="edge">
<title>Node1&#45;&gt;Node25</title>
<path fill="none" stroke="midnightblue" d="M2980.84,-73.64C3086.84,-68.68 3327.15,-55.58 3528,-31 3540.93,-29.42 3554.89,-27.24 3567.68,-25.05"/>
<polygon fill="midnightblue" stroke="midnightblue" points="2980.53,-70.15 2970.7,-74.1 2980.85,-77.14 2980.53,-70.15"/>
</g>
<!-- Node26 -->
<g id="node26" class="node">
<title>Node26</title>
<g id="a_node26"><a xlink:href="python_2lora__sdr_2bindings_2docstrings_2fft__demod__pydoc__template_8h.html" target="_top" xlink:title="fft_demod_pydoc_template.h">
<polygon fill="white" stroke="black" points="3706.5,-6 3706.5,-25 3849.5,-25 3849.5,-6 3706.5,-6"/>
<text text-anchor="middle" x="3778" y="-13" font-family="Helvetica,sans-Serif" font-size="10.00">fft_demod_pydoc_template.h</text>
</a>
</g>
</g>
<!-- Node1&#45;&gt;Node26 -->
<g id="edge25" class="edge">
<title>Node1&#45;&gt;Node26</title>
<path fill="none" stroke="midnightblue" d="M2980.76,-75.08C3107.42,-72.47 3430.24,-62.95 3698,-31 3710.47,-29.51 3723.94,-27.31 3736.21,-25.06"/>
<polygon fill="midnightblue" stroke="midnightblue" points="2980.48,-71.59 2970.55,-75.29 2980.62,-78.59 2980.48,-71.59"/>
</g>
<!-- Node27 -->
<g id="node27" class="node">
<title>Node27</title>
<g id="a_node27"><a xlink:href="python_2lora__sdr_2bindings_2docstrings_2frame__sync__pydoc__template_8h.html" target="_top" xlink:title="frame_sync_pydoc_template.h">
<polygon fill="white" stroke="black" points="3868,-6 3868,-25 4018,-25 4018,-6 3868,-6"/>
<text text-anchor="middle" x="3943" y="-13" font-family="Helvetica,sans-Serif" font-size="10.00">frame_sync_pydoc_template.h</text>
</a>
</g>
</g>
<!-- Node1&#45;&gt;Node27 -->
<g id="edge26" class="edge">
<title>Node1&#45;&gt;Node27</title>
<path fill="none" stroke="midnightblue" d="M2981.19,-75.7C3125.74,-74.4 3527.18,-67.5 3859,-31 3872.24,-29.54 3886.55,-27.32 3899.55,-25.05"/>
<polygon fill="midnightblue" stroke="midnightblue" points="2980.79,-72.2 2970.82,-75.79 2980.85,-79.2 2980.79,-72.2"/>
</g>
<!-- Node28 -->
<g id="node28" class="node">
<title>Node28</title>
<g id="a_node28"><a xlink:href="python_2lora__sdr_2bindings_2docstrings_2gray__demap__pydoc__template_8h.html" target="_top" xlink:title="gray_demap_pydoc_template.h">
<polygon fill="white" stroke="black" points="4036,-6 4036,-25 4188,-25 4188,-6 4036,-6"/>
<text text-anchor="middle" x="4112" y="-13" font-family="Helvetica,sans-Serif" font-size="10.00">gray_demap_pydoc_template.h</text>
</a>
</g>
</g>
<!-- Node1&#45;&gt;Node28 -->
<g id="edge27" class="edge">
<title>Node1&#45;&gt;Node28</title>
<path fill="none" stroke="midnightblue" d="M2980.86,-76.24C3141.91,-76.4 3627.21,-73.09 4027,-31 4040.55,-29.57 4055.2,-27.33 4068.47,-25.03"/>
<polygon fill="midnightblue" stroke="midnightblue" points="2980.73,-72.74 2970.72,-76.22 2980.72,-79.74 2980.73,-72.74"/>
</g>
<!-- Node29 -->
<g id="node29" class="node">
<title>Node29</title>
<g id="a_node29"><a xlink:href="python_2lora__sdr_2bindings_2docstrings_2gray__mapping__pydoc__template_8h.html" target="_top" xlink:title="gray_mapping_pydoc\l_template.h">
<polygon fill="white" stroke="black" points="4206.5,-0.5 4206.5,-30.5 4315.5,-30.5 4315.5,-0.5 4206.5,-0.5"/>
<text text-anchor="start" x="4214.5" y="-18.5" font-family="Helvetica,sans-Serif" font-size="10.00">gray_mapping_pydoc</text>
<text text-anchor="middle" x="4261" y="-7.5" font-family="Helvetica,sans-Serif" font-size="10.00">_template.h</text>
</a>
</g>
</g>
<!-- Node1&#45;&gt;Node29 -->
<g id="edge28" class="edge">
<title>Node1&#45;&gt;Node29</title>
<path fill="none" stroke="midnightblue" d="M2981.01,-75.42C3192.91,-72.99 3956.51,-62.22 4197,-31 4200.05,-30.6 4203.17,-30.13 4206.31,-29.6"/>
<polygon fill="midnightblue" stroke="midnightblue" points="2980.71,-71.93 2970.75,-75.54 2980.79,-78.93 2980.71,-71.93"/>
</g>
<!-- Node30 -->
<g id="node30" class="node">
<title>Node30</title>
<g id="a_node30"><a xlink:href="python_2lora__sdr_2bindings_2docstrings_2hamming__dec__pydoc__template_8h.html" target="_top" xlink:title="hamming_dec_pydoc_template.h">
<polygon fill="white" stroke="black" points="4334,-6 4334,-25 4494,-25 4494,-6 4334,-6"/>
<text text-anchor="middle" x="4414" y="-13" font-family="Helvetica,sans-Serif" font-size="10.00">hamming_dec_pydoc_template.h</text>
</a>
</g>
</g>
<!-- Node1&#45;&gt;Node30 -->
<g id="edge29" class="edge">
<title>Node1&#45;&gt;Node30</title>
<path fill="none" stroke="midnightblue" d="M2980.83,-75.19C3205.59,-71.7 4057.15,-57.02 4325,-31 4339.34,-29.61 4354.86,-27.34 4368.87,-25.01"/>
<polygon fill="midnightblue" stroke="midnightblue" points="2980.55,-71.69 2970.61,-75.34 2980.66,-78.69 2980.55,-71.69"/>
</g>
<!-- Node31 -->
<g id="node31" class="node">
<title>Node31</title>
<g id="a_node31"><a xlink:href="python_2lora__sdr_2bindings_2docstrings_2hamming__enc__pydoc__template_8h.html" target="_top" xlink:title="hamming_enc_pydoc_template.h">
<polygon fill="white" stroke="black" points="4512,-6 4512,-25 4672,-25 4672,-6 4512,-6"/>
<text text-anchor="middle" x="4592" y="-13" font-family="Helvetica,sans-Serif" font-size="10.00">hamming_enc_pydoc_template.h</text>
</a>
</g>
</g>
<!-- Node1&#45;&gt;Node31 -->
<g id="edge30" class="edge">
<title>Node1&#45;&gt;Node31</title>
<path fill="none" stroke="midnightblue" d="M2980.9,-75.41C3223.18,-72.68 4198.23,-60.05 4503,-31 4517.34,-29.63 4532.86,-27.38 4546.87,-25.05"/>
<polygon fill="midnightblue" stroke="midnightblue" points="2980.54,-71.92 2970.58,-75.53 2980.62,-78.92 2980.54,-71.92"/>
</g>
<!-- Node32 -->
<g id="node32" class="node">
<title>Node32</title>
<g id="a_node32"><a xlink:href="python_2lora__sdr_2bindings_2docstrings_2header__decoder__pydoc__template_8h.html" target="_top" xlink:title="header_decoder_pydoc\l_template.h">
<polygon fill="white" stroke="black" points="4690.5,-0.5 4690.5,-30.5 4807.5,-30.5 4807.5,-0.5 4690.5,-0.5"/>
<text text-anchor="start" x="4698.5" y="-18.5" font-family="Helvetica,sans-Serif" font-size="10.00">header_decoder_pydoc</text>
<text text-anchor="middle" x="4749" y="-7.5" font-family="Helvetica,sans-Serif" font-size="10.00">_template.h</text>
</a>
</g>
</g>
<!-- Node1&#45;&gt;Node32 -->
<g id="edge31" class="edge">
<title>Node1&#45;&gt;Node32</title>
<path fill="none" stroke="midnightblue" d="M2981.12,-75.96C3240.37,-75.54 4340.11,-71.37 4681,-31 4684,-30.65 4687.06,-30.22 4690.14,-29.75"/>
<polygon fill="midnightblue" stroke="midnightblue" points="2980.82,-72.46 2970.82,-75.97 2980.83,-79.46 2980.82,-72.46"/>
</g>
<!-- Node33 -->
<g id="node33" class="node">
<title>Node33</title>
<g id="a_node33"><a xlink:href="python_2lora__sdr_2bindings_2docstrings_2header__pydoc__template_8h.html" target="_top" xlink:title="header_pydoc_template.h">
<polygon fill="white" stroke="black" points="4826,-6 4826,-25 4954,-25 4954,-6 4826,-6"/>
<text text-anchor="middle" x="4890" y="-13" font-family="Helvetica,sans-Serif" font-size="10.00">header_pydoc_template.h</text>
</a>
</g>
</g>
<!-- Node1&#45;&gt;Node33 -->
<g id="edge32" class="edge">
<title>Node1&#45;&gt;Node33</title>
<path fill="none" stroke="midnightblue" d="M2980.91,-75.97C3251.78,-75.63 4447.38,-71.8 4817,-31 4828.94,-29.68 4841.84,-27.41 4853.43,-25.05"/>
<polygon fill="midnightblue" stroke="midnightblue" points="2980.55,-72.47 2970.55,-75.98 2980.56,-79.47 2980.55,-72.47"/>
</g>
<!-- Node34 -->
<g id="node34" class="node">
<title>Node34</title>
<g id="a_node34"><a xlink:href="python_2lora__sdr_2bindings_2docstrings_2interleaver__pydoc__template_8h.html" target="_top" xlink:title="interleaver_pydoc_template.h">
<polygon fill="white" stroke="black" points="4972,-6 4972,-25 5116,-25 5116,-6 4972,-6"/>
<text text-anchor="middle" x="5044" y="-13" font-family="Helvetica,sans-Serif" font-size="10.00">interleaver_pydoc_template.h</text>
</a>
</g>
</g>
<!-- Node1&#45;&gt;Node34 -->
<g id="edge33" class="edge">
<title>Node1&#45;&gt;Node34</title>
<path fill="none" stroke="midnightblue" d="M2980.54,-75.94C3263.03,-75.45 4562.3,-71.05 4963,-31 4976.22,-29.68 4990.52,-27.4 5003.38,-25.04"/>
<polygon fill="midnightblue" stroke="midnightblue" points="2980.53,-72.44 2970.53,-75.96 2980.54,-79.44 2980.53,-72.44"/>
</g>
<!-- Node35 -->
<g id="node35" class="node">
<title>Node35</title>
<g id="a_node35"><a xlink:href="python_2lora__sdr_2bindings_2docstrings_2modulate__pydoc__template_8h.html" target="_top" xlink:title="modulate_pydoc_template.h">
<polygon fill="white" stroke="black" points="5134.5,-6 5134.5,-25 5273.5,-25 5273.5,-6 5134.5,-6"/>
<text text-anchor="middle" x="5204" y="-13" font-family="Helvetica,sans-Serif" font-size="10.00">modulate_pydoc_template.h</text>
</a>
</g>
</g>
<!-- Node1&#45;&gt;Node35 -->
<g id="edge34" class="edge">
<title>Node1&#45;&gt;Node35</title>
<path fill="none" stroke="midnightblue" d="M2981.01,-76.08C3277.79,-76.3 4690.65,-75.02 5125,-31 5137.9,-29.69 5151.86,-27.42 5164.39,-25.06"/>
<polygon fill="midnightblue" stroke="midnightblue" points="2980.93,-72.58 2970.93,-76.07 2980.92,-79.58 2980.93,-72.58"/>
</g>
<!-- Node36 -->
<g id="node36" class="node">
<title>Node36</title>
<g id="a_node36"><a xlink:href="python_2lora__sdr_2bindings_2docstrings_2payload__id__inc__pydoc__template_8h.html" target="_top" xlink:title="payload_id_inc_pydoc\l_template.h">
<polygon fill="white" stroke="black" points="5291.5,-0.5 5291.5,-30.5 5404.5,-30.5 5404.5,-0.5 5291.5,-0.5"/>
<text text-anchor="start" x="5299.5" y="-18.5" font-family="Helvetica,sans-Serif" font-size="10.00">payload_id_inc_pydoc</text>
<text text-anchor="middle" x="5348" y="-7.5" font-family="Helvetica,sans-Serif" font-size="10.00">_template.h</text>
</a>
</g>
</g>
<!-- Node1&#45;&gt;Node36 -->
<g id="edge35" class="edge">
<title>Node1&#45;&gt;Node36</title>
<path fill="none" stroke="midnightblue" d="M2981.29,-75.61C3314.46,-73.16 5048.08,-59.16 5283,-31 5285.76,-30.67 5288.57,-30.27 5291.4,-29.83"/>
<polygon fill="midnightblue" stroke="midnightblue" points="2980.91,-72.11 2970.94,-75.68 2980.96,-79.11 2980.91,-72.11"/>
</g>
<!-- Node37 -->
<g id="node37" class="node">
<title>Node37</title>
<g id="a_node37"><a xlink:href="python_2lora__sdr_2bindings_2docstrings_2RH__RF95__header__pydoc__template_8h.html" target="_top" xlink:title="RH_RF95_header_pydoc\l_template.h">
<polygon fill="white" stroke="black" points="5422.5,-0.5 5422.5,-30.5 5549.5,-30.5 5549.5,-0.5 5422.5,-0.5"/>
<text text-anchor="start" x="5430.5" y="-18.5" font-family="Helvetica,sans-Serif" font-size="10.00">RH_RF95_header_pydoc</text>
<text text-anchor="middle" x="5486" y="-7.5" font-family="Helvetica,sans-Serif" font-size="10.00">_template.h</text>
</a>
</g>
</g>
<!-- Node1&#45;&gt;Node37 -->
<g id="edge36" class="edge">
<title>Node1&#45;&gt;Node37</title>
<path fill="none" stroke="midnightblue" d="M2980.78,-75.6C3323.39,-73.05 5164.87,-58.11 5414,-31 5416.79,-30.7 5419.63,-30.34 5422.49,-29.94"/>
<polygon fill="midnightblue" stroke="midnightblue" points="2980.6,-72.1 2970.62,-75.68 2980.65,-79.1 2980.6,-72.1"/>
</g>
<!-- Node38 -->
<g id="node38" class="node">
<title>Node38</title>
<g id="a_node38"><a xlink:href="python_2lora__sdr_2bindings_2docstrings_2utilities__pydoc__template_8h.html" target="_top" xlink:title="utilities_pydoc_template.h">
<polygon fill="white" stroke="black" points="5568,-6 5568,-25 5698,-25 5698,-6 5568,-6"/>
<text text-anchor="middle" x="5633" y="-13" font-family="Helvetica,sans-Serif" font-size="10.00">utilities_pydoc_template.h</text>
</a>
</g>
</g>
<!-- Node1&#45;&gt;Node38 -->
<g id="edge37" class="edge">
<title>Node1&#45;&gt;Node38</title>
<path fill="none" stroke="midnightblue" d="M2980.85,-75.64C3335.17,-73.27 5294.49,-58.95 5559,-31 5571.24,-29.71 5584.47,-27.41 5596.31,-25.02"/>
<polygon fill="midnightblue" stroke="midnightblue" points="2980.57,-72.15 2970.59,-75.71 2980.62,-79.15 2980.57,-72.15"/>
</g>
<!-- Node39 -->
<g id="node39" class="node">
<title>Node39</title>
<g id="a_node39"><a xlink:href="python_2lora__sdr_2bindings_2docstrings_2whitening__pydoc__template_8h.html" target="_top" xlink:title="whitening_pydoc_template.h">
<polygon fill="white" stroke="black" points="5716,-6 5716,-25 5856,-25 5856,-6 5716,-6"/>
<text text-anchor="middle" x="5786" y="-13" font-family="Helvetica,sans-Serif" font-size="10.00">whitening_pydoc_template.h</text>
</a>
</g>
</g>
<!-- Node1&#45;&gt;Node39 -->
<g id="edge38" class="edge">
<title>Node1&#45;&gt;Node39</title>
<path fill="none" stroke="midnightblue" d="M2980.73,-75.66C3346.17,-73.31 5426.64,-58.8 5707,-31 5720.04,-29.71 5734.16,-27.41 5746.8,-25.02"/>
<polygon fill="midnightblue" stroke="midnightblue" points="2980.64,-72.16 2970.67,-75.72 2980.69,-79.16 2980.64,-72.16"/>
</g>
</g>
</svg>
