<?xml version="1.0" encoding="UTF-8" standalone="no"?>
<!DOCTYPE svg PUBLIC "-//W3C//DTD SVG 1.1//EN"
 "http://www.w3.org/Graphics/SVG/1.1/DTD/svg11.dtd">
<!-- Generated by graphviz version 5.0.0 (20220707.2338)
 -->
<!-- Title: fft_demod_impl.h Pages: 1 -->
<svg width="961pt" height="207pt"
 viewBox="0.00 0.00 960.50 207.00" xmlns="http://www.w3.org/2000/svg" xmlns:xlink="http://www.w3.org/1999/xlink">
<g id="graph0" class="graph" transform="scale(1 1) rotate(0) translate(4 203)">
<title>fft_demod_impl.h</title>
<polygon fill="white" stroke="transparent" points="-4,4 -4,-203 956.5,-203 956.5,4 -4,4"/>
<!-- Node1 -->
<g id="node1" class="node">
<title>Node1</title>
<polygon fill="#bfbfbf" stroke="black" points="224.5,-179.5 224.5,-198.5 316.5,-198.5 316.5,-179.5 224.5,-179.5"/>
<text text-anchor="middle" x="270.5" y="-186.5" font-family="Helvetica,sans-Serif" font-size="10.00">fft_demod_impl.h</text>
</g>
<!-- Node2 -->
<g id="node2" class="node">
<title>Node2</title>
<g id="a_node2"><a xlink:href="fft__demod_8h.html" target="_top" xlink:title="gnuradio/lora_sdr/fft\l_demod.h">
<polygon fill="white" stroke="black" points="26,-112.5 26,-142.5 129,-142.5 129,-112.5 26,-112.5"/>
<text text-anchor="start" x="34" y="-130.5" font-family="Helvetica,sans-Serif" font-size="10.00">gnuradio/lora_sdr/fft</text>
<text text-anchor="middle" x="77.5" y="-119.5" font-family="Helvetica,sans-Serif" font-size="10.00">_demod.h</text>
</a>
</g>
</g>
<!-- Node1&#45;&gt;Node2 -->
<g id="edge1" class="edge">
<title>Node1&#45;&gt;Node2</title>
<path fill="none" stroke="midnightblue" d="M242.85,-179.48C214.27,-170.66 168.87,-156.67 132.87,-145.57"/>
<polygon fill="midnightblue" stroke="midnightblue" points="133.57,-142.12 122.99,-142.52 131.51,-148.81 133.57,-142.12"/>
</g>
<!-- Node6 -->
<g id="node6" class="node">
<title>Node6</title>
<polygon fill="white" stroke="#bfbfbf" points="147.5,-118 147.5,-137 201.5,-137 201.5,-118 147.5,-118"/>
<text text-anchor="middle" x="174.5" y="-125" font-family="Helvetica,sans-Serif" font-size="10.00">iostream</text>
</g>
<!-- Node1&#45;&gt;Node6 -->
<g id="edge5" class="edge">
<title>Node1&#45;&gt;Node6</title>
<path fill="none" stroke="midnightblue" d="M256.75,-179.48C241.13,-169.8 215.44,-153.87 196.92,-142.39"/>
<polygon fill="midnightblue" stroke="midnightblue" points="198.57,-139.3 188.23,-137.01 194.88,-145.25 198.57,-139.3"/>
</g>
<!-- Node7 -->
<g id="node7" class="node">
<title>Node7</title>
<polygon fill="white" stroke="#bfbfbf" points="219.5,-118 219.5,-137 269.5,-137 269.5,-118 219.5,-118"/>
<text text-anchor="middle" x="244.5" y="-125" font-family="Helvetica,sans-Serif" font-size="10.00">fstream</text>
</g>
<!-- Node1&#45;&gt;Node7 -->
<g id="edge6" class="edge">
<title>Node1&#45;&gt;Node7</title>
<path fill="none" stroke="midnightblue" d="M266.77,-179.48C263.03,-170.9 257.14,-157.43 252.36,-146.48"/>
<polygon fill="midnightblue" stroke="midnightblue" points="255.43,-144.77 248.22,-137.01 249.02,-147.57 255.43,-144.77"/>
</g>
<!-- Node8 -->
<g id="node8" class="node">
<title>Node8</title>
<polygon fill="white" stroke="#bfbfbf" points="252.5,-56.5 252.5,-75.5 316.5,-75.5 316.5,-56.5 252.5,-56.5"/>
<text text-anchor="middle" x="284.5" y="-63.5" font-family="Helvetica,sans-Serif" font-size="10.00">volk/volk.h</text>
</g>
<!-- Node1&#45;&gt;Node8 -->
<g id="edge7" class="edge">
<title>Node1&#45;&gt;Node8</title>
<path fill="none" stroke="midnightblue" d="M272.28,-179.41C274.1,-170.38 276.87,-155.75 278.5,-143 280.96,-123.75 282.57,-101.62 283.5,-86.22"/>
<polygon fill="midnightblue" stroke="midnightblue" points="287.01,-86.1 284.08,-75.92 280.02,-85.71 287.01,-86.1"/>
</g>
<!-- Node9 -->
<g id="node9" class="node">
<title>Node9</title>
<polygon fill="white" stroke="#bfbfbf" points="326,-118 326,-137 443,-137 443,-118 326,-118"/>
<text text-anchor="middle" x="384.5" y="-125" font-family="Helvetica,sans-Serif" font-size="10.00">gnuradio/io_signature.h</text>
</g>
<!-- Node1&#45;&gt;Node9 -->
<g id="edge8" class="edge">
<title>Node1&#45;&gt;Node9</title>
<path fill="none" stroke="midnightblue" d="M286.83,-179.48C305.71,-169.62 337.01,-153.29 359.08,-141.77"/>
<polygon fill="midnightblue" stroke="midnightblue" points="360.95,-144.74 368.2,-137.01 357.71,-138.53 360.95,-144.74"/>
</g>
<!-- Node10 -->
<g id="node10" class="node">
<title>Node10</title>
<g id="a_node10"><a xlink:href="utilities_8h.html" target="_top" xlink:title="gnuradio/lora_sdr/utilities.h">
<polygon fill="white" stroke="black" points="471,-118 471,-137 604,-137 604,-118 471,-118"/>
<text text-anchor="middle" x="537.5" y="-125" font-family="Helvetica,sans-Serif" font-size="10.00">gnuradio/lora_sdr/utilities.h</text>
</a>
</g>
</g>
<!-- Node1&#45;&gt;Node10 -->
<g id="edge9" class="edge">
<title>Node1&#45;&gt;Node10</title>
<path fill="none" stroke="midnightblue" d="M308.75,-179.48C356.34,-168.87 437.61,-150.76 489.38,-139.22"/>
<polygon fill="midnightblue" stroke="midnightblue" points="490.32,-142.6 499.32,-137.01 488.79,-135.77 490.32,-142.6"/>
</g>
<!-- Node3 -->
<g id="node3" class="node">
<title>Node3</title>
<g id="a_node3"><a xlink:href="api_8h.html" target="_top" xlink:title="gnuradio/lora_sdr/api.h">
<polygon fill="white" stroke="black" points="0,-56.5 0,-75.5 115,-75.5 115,-56.5 0,-56.5"/>
<text text-anchor="middle" x="57.5" y="-63.5" font-family="Helvetica,sans-Serif" font-size="10.00">gnuradio/lora_sdr/api.h</text>
</a>
</g>
</g>
<!-- Node2&#45;&gt;Node3 -->
<g id="edge2" class="edge">
<title>Node2&#45;&gt;Node3</title>
<path fill="none" stroke="midnightblue" d="M72.76,-112.4C70.03,-104.29 66.58,-94.01 63.64,-85.28"/>
<polygon fill="midnightblue" stroke="midnightblue" points="66.91,-84.02 60.41,-75.66 60.28,-86.25 66.91,-84.02"/>
</g>
<!-- Node5 -->
<g id="node5" class="node">
<title>Node5</title>
<polygon fill="white" stroke="#bfbfbf" points="133.5,-56.5 133.5,-75.5 221.5,-75.5 221.5,-56.5 133.5,-56.5"/>
<text text-anchor="middle" x="177.5" y="-63.5" font-family="Helvetica,sans-Serif" font-size="10.00">gnuradio/block.h</text>
</g>
<!-- Node2&#45;&gt;Node5 -->
<g id="edge4" class="edge">
<title>Node2&#45;&gt;Node5</title>
<path fill="none" stroke="midnightblue" d="M101.2,-112.4C117.23,-102.86 138.3,-90.32 154.24,-80.84"/>
<polygon fill="midnightblue" stroke="midnightblue" points="156.14,-83.78 162.95,-75.66 152.57,-77.76 156.14,-83.78"/>
</g>
<!-- Node4 -->
<g id="node4" class="node">
<title>Node4</title>
<polygon fill="white" stroke="#bfbfbf" points="5,-0.5 5,-19.5 110,-19.5 110,-0.5 5,-0.5"/>
<text text-anchor="middle" x="57.5" y="-7.5" font-family="Helvetica,sans-Serif" font-size="10.00">gnuradio/attributes.h</text>
</g>
<!-- Node3&#45;&gt;Node4 -->
<g id="edge3" class="edge">
<title>Node3&#45;&gt;Node4</title>
<path fill="none" stroke="midnightblue" d="M57.5,-56.08C57.5,-49.01 57.5,-38.86 57.5,-29.99"/>
<polygon fill="midnightblue" stroke="midnightblue" points="61,-29.75 57.5,-19.75 54,-29.75 61,-29.75"/>
</g>
<!-- Node10&#45;&gt;Node8 -->
<g id="edge17" class="edge">
<title>Node10&#45;&gt;Node8</title>
<path fill="none" stroke="midnightblue" d="M501.25,-117.98C455.07,-107.12 375.42,-88.38 326.6,-76.9"/>
<polygon fill="midnightblue" stroke="midnightblue" points="327.21,-73.45 316.68,-74.57 325.61,-80.26 327.21,-73.45"/>
</g>
<!-- Node11 -->
<g id="node11" class="node">
<title>Node11</title>
<polygon fill="white" stroke="#bfbfbf" points="334.5,-56.5 334.5,-75.5 380.5,-75.5 380.5,-56.5 334.5,-56.5"/>
<text text-anchor="middle" x="357.5" y="-63.5" font-family="Helvetica,sans-Serif" font-size="10.00">cstdint</text>
</g>
<!-- Node10&#45;&gt;Node11 -->
<g id="edge10" class="edge">
<title>Node10&#45;&gt;Node11</title>
<path fill="none" stroke="midnightblue" d="M511.71,-117.98C479.77,-107.42 425.32,-89.42 390.4,-77.88"/>
<polygon fill="midnightblue" stroke="midnightblue" points="391.26,-74.47 380.67,-74.66 389.07,-81.12 391.26,-74.47"/>
</g>
<!-- Node12 -->
<g id="node12" class="node">
<title>Node12</title>
<polygon fill="white" stroke="#bfbfbf" points="399,-56.5 399,-75.5 448,-75.5 448,-56.5 399,-56.5"/>
<text text-anchor="middle" x="423.5" y="-63.5" font-family="Helvetica,sans-Serif" font-size="10.00">string.h</text>
</g>
<!-- Node10&#45;&gt;Node12 -->
<g id="edge11" class="edge">
<title>Node10&#45;&gt;Node12</title>
<path fill="none" stroke="midnightblue" d="M521.17,-117.98C502.29,-108.12 470.99,-91.79 448.92,-80.27"/>
<polygon fill="midnightblue" stroke="midnightblue" points="450.29,-77.03 439.8,-75.51 447.05,-83.24 450.29,-77.03"/>
</g>
<!-- Node13 -->
<g id="node13" class="node">
<title>Node13</title>
<polygon fill="white" stroke="#bfbfbf" points="466.5,-56.5 466.5,-75.5 516.5,-75.5 516.5,-56.5 466.5,-56.5"/>
<text text-anchor="middle" x="491.5" y="-63.5" font-family="Helvetica,sans-Serif" font-size="10.00">iomanip</text>
</g>
<!-- Node10&#45;&gt;Node13 -->
<g id="edge12" class="edge">
<title>Node10&#45;&gt;Node13</title>
<path fill="none" stroke="midnightblue" d="M530.91,-117.98C524.01,-109.05 513,-94.81 504.37,-83.64"/>
<polygon fill="midnightblue" stroke="midnightblue" points="506.96,-81.28 498.08,-75.51 501.43,-85.56 506.96,-81.28"/>
</g>
<!-- Node14 -->
<g id="node14" class="node">
<title>Node14</title>
<polygon fill="white" stroke="#bfbfbf" points="535,-56.5 535,-75.5 586,-75.5 586,-56.5 535,-56.5"/>
<text text-anchor="middle" x="560.5" y="-63.5" font-family="Helvetica,sans-Serif" font-size="10.00">numeric</text>
</g>
<!-- Node10&#45;&gt;Node14 -->
<g id="edge13" class="edge">
<title>Node10&#45;&gt;Node14</title>
<path fill="none" stroke="midnightblue" d="M540.8,-117.98C544.11,-109.4 549.32,-95.93 553.55,-84.98"/>
<polygon fill="midnightblue" stroke="midnightblue" points="556.87,-86.1 557.21,-75.51 550.34,-83.57 556.87,-86.1"/>
</g>
<!-- Node15 -->
<g id="node15" class="node">
<title>Node15</title>
<polygon fill="white" stroke="#bfbfbf" points="604,-56.5 604,-75.5 687,-75.5 687,-56.5 604,-56.5"/>
<text text-anchor="middle" x="645.5" y="-63.5" font-family="Helvetica,sans-Serif" font-size="10.00">gnuradio/expj.h</text>
</g>
<!-- Node10&#45;&gt;Node15 -->
<g id="edge14" class="edge">
<title>Node10&#45;&gt;Node15</title>
<path fill="none" stroke="midnightblue" d="M552.97,-117.98C570.78,-108.17 600.24,-91.93 621.13,-80.42"/>
<polygon fill="midnightblue" stroke="midnightblue" points="622.99,-83.4 630.05,-75.51 619.61,-77.27 622.99,-83.4"/>
</g>
<!-- Node16 -->
<g id="node16" class="node">
<title>Node16</title>
<polygon fill="white" stroke="#bfbfbf" points="705,-56.5 705,-75.5 786,-75.5 786,-56.5 705,-56.5"/>
<text text-anchor="middle" x="745.5" y="-63.5" font-family="Helvetica,sans-Serif" font-size="10.00">sys/resource.h</text>
</g>
<!-- Node10&#45;&gt;Node16 -->
<g id="edge15" class="edge">
<title>Node10&#45;&gt;Node16</title>
<path fill="none" stroke="midnightblue" d="M567.3,-117.98C603.75,-107.55 665.58,-89.86 705.97,-78.31"/>
<polygon fill="midnightblue" stroke="midnightblue" points="707.1,-81.62 715.75,-75.51 705.18,-74.89 707.1,-81.62"/>
</g>
<!-- Node17 -->
<g id="node17" class="node">
<title>Node17</title>
<polygon fill="white" stroke="#bfbfbf" points="804.5,-56.5 804.5,-75.5 878.5,-75.5 878.5,-56.5 804.5,-56.5"/>
<text text-anchor="middle" x="841.5" y="-63.5" font-family="Helvetica,sans-Serif" font-size="10.00">sys/syscall.h</text>
</g>
<!-- Node10&#45;&gt;Node17 -->
<g id="edge16" class="edge">
<title>Node10&#45;&gt;Node17</title>
<path fill="none" stroke="midnightblue" d="M581.06,-117.98C637.59,-106.91 735.87,-87.67 794.19,-76.26"/>
<polygon fill="midnightblue" stroke="midnightblue" points="795.1,-79.65 804.24,-74.29 793.75,-72.78 795.1,-79.65"/>
</g>
<!-- Node18 -->
<g id="node18" class="node">
<title>Node18</title>
<polygon fill="white" stroke="#bfbfbf" points="896.5,-56.5 896.5,-75.5 952.5,-75.5 952.5,-56.5 896.5,-56.5"/>
<text text-anchor="middle" x="924.5" y="-63.5" font-family="Helvetica,sans-Serif" font-size="10.00">algorithm</text>
</g>
<!-- Node10&#45;&gt;Node18 -->
<g id="edge18" class="edge">
<title>Node10&#45;&gt;Node18</title>
<path fill="none" stroke="midnightblue" d="M604.26,-118.79C672.72,-110.45 782.43,-95.88 886.25,-76.09"/>
<polygon fill="midnightblue" stroke="midnightblue" points="887.12,-79.49 896.28,-74.16 885.8,-72.61 887.12,-79.49"/>
</g>
</g>
</svg>
