<?xml version="1.0" encoding="UTF-8" standalone="no"?>
<!DOCTYPE svg PUBLIC "-//W3C//DTD SVG 1.1//EN"
 "http://www.w3.org/Graphics/SVG/1.1/DTD/svg11.dtd">
<!-- Generated by graphviz version 5.0.0 (20220707.2338)
 -->
<!-- Title: frame_sync_impl.h Pages: 1 -->
<svg width="1143pt" height="207pt"
 viewBox="0.00 0.00 1143.00 207.00" xmlns="http://www.w3.org/2000/svg" xmlns:xlink="http://www.w3.org/1999/xlink">
<g id="graph0" class="graph" transform="scale(1 1) rotate(0) translate(4 203)">
<title>frame_sync_impl.h</title>
<polygon fill="white" stroke="transparent" points="-4,4 -4,-203 1139,-203 1139,4 -4,4"/>
<!-- Node1 -->
<g id="node1" class="node">
<title>Node1</title>
<polygon fill="#bfbfbf" stroke="black" points="388,-179.5 388,-198.5 487,-198.5 487,-179.5 388,-179.5"/>
<text text-anchor="middle" x="437.5" y="-186.5" font-family="Helvetica,sans-Serif" font-size="10.00">frame_sync_impl.h</text>
</g>
<!-- Node2 -->
<g id="node2" class="node">
<title>Node2</title>
<g id="a_node2"><a xlink:href="frame__sync_8h.html" target="_top" xlink:title="gnuradio/lora_sdr/frame\l_sync.h">
<polygon fill="white" stroke="black" points="118,-112.5 118,-142.5 237,-142.5 237,-112.5 118,-112.5"/>
<text text-anchor="start" x="126" y="-130.5" font-family="Helvetica,sans-Serif" font-size="10.00">gnuradio/lora_sdr/frame</text>
<text text-anchor="middle" x="177.5" y="-119.5" font-family="Helvetica,sans-Serif" font-size="10.00">_sync.h</text>
</a>
</g>
</g>
<!-- Node1&#45;&gt;Node2 -->
<g id="edge1" class="edge">
<title>Node1&#45;&gt;Node2</title>
<path fill="none" stroke="midnightblue" d="M400.25,-179.48C360.44,-170.37 296.44,-155.72 247.23,-144.46"/>
<polygon fill="midnightblue" stroke="midnightblue" points="247.81,-141 237.28,-142.18 246.25,-147.82 247.81,-141"/>
</g>
<!-- Node6 -->
<g id="node6" class="node">
<title>Node6</title>
<polygon fill="white" stroke="#bfbfbf" points="287.5,-118 287.5,-137 341.5,-137 341.5,-118 287.5,-118"/>
<text text-anchor="middle" x="314.5" y="-125" font-family="Helvetica,sans-Serif" font-size="10.00">iostream</text>
</g>
<!-- Node1&#45;&gt;Node6 -->
<g id="edge5" class="edge">
<title>Node1&#45;&gt;Node6</title>
<path fill="none" stroke="midnightblue" d="M419.88,-179.48C399.33,-169.53 365.14,-152.99 341.29,-141.46"/>
<polygon fill="midnightblue" stroke="midnightblue" points="342.62,-138.21 332.09,-137.01 339.57,-144.51 342.62,-138.21"/>
</g>
<!-- Node7 -->
<g id="node7" class="node">
<title>Node7</title>
<polygon fill="white" stroke="#bfbfbf" points="359.5,-118 359.5,-137 409.5,-137 409.5,-118 359.5,-118"/>
<text text-anchor="middle" x="384.5" y="-125" font-family="Helvetica,sans-Serif" font-size="10.00">fstream</text>
</g>
<!-- Node1&#45;&gt;Node7 -->
<g id="edge6" class="edge">
<title>Node1&#45;&gt;Node7</title>
<path fill="none" stroke="midnightblue" d="M429.91,-179.48C421.8,-170.37 408.77,-155.74 398.74,-144.48"/>
<polygon fill="midnightblue" stroke="midnightblue" points="401.34,-142.15 392.08,-137.01 396.12,-146.8 401.34,-142.15"/>
</g>
<!-- Node8 -->
<g id="node8" class="node">
<title>Node8</title>
<polygon fill="white" stroke="#bfbfbf" points="239.5,-56.5 239.5,-75.5 303.5,-75.5 303.5,-56.5 239.5,-56.5"/>
<text text-anchor="middle" x="271.5" y="-63.5" font-family="Helvetica,sans-Serif" font-size="10.00">volk/volk.h</text>
</g>
<!-- Node1&#45;&gt;Node8 -->
<g id="edge7" class="edge">
<title>Node1&#45;&gt;Node8</title>
<path fill="none" stroke="midnightblue" d="M437.91,-179.43C438.16,-163.87 436.38,-130.84 418.5,-112 411.05,-104.15 354.08,-88.2 313.29,-77.55"/>
<polygon fill="midnightblue" stroke="midnightblue" points="314.13,-74.15 303.57,-75.03 312.38,-80.93 314.13,-74.15"/>
</g>
<!-- Node9 -->
<g id="node9" class="node">
<title>Node9</title>
<g id="a_node9"><a xlink:href="utilities_8h.html" target="_top" xlink:title="gnuradio/lora_sdr/utilities.h">
<polygon fill="white" stroke="black" points="466,-118 466,-137 599,-137 599,-118 466,-118"/>
<text text-anchor="middle" x="532.5" y="-125" font-family="Helvetica,sans-Serif" font-size="10.00">gnuradio/lora_sdr/utilities.h</text>
</a>
</g>
</g>
<!-- Node1&#45;&gt;Node9 -->
<g id="edge8" class="edge">
<title>Node1&#45;&gt;Node9</title>
<path fill="none" stroke="midnightblue" d="M451.11,-179.48C466.56,-169.8 491.99,-153.87 510.32,-142.39"/>
<polygon fill="midnightblue" stroke="midnightblue" points="512.3,-145.28 518.91,-137.01 508.58,-139.35 512.3,-145.28"/>
</g>
<!-- Node18 -->
<g id="node18" class="node">
<title>Node18</title>
<polygon fill="white" stroke="#bfbfbf" points="617,-118 617,-137 734,-137 734,-118 617,-118"/>
<text text-anchor="middle" x="675.5" y="-125" font-family="Helvetica,sans-Serif" font-size="10.00">gnuradio/io_signature.h</text>
</g>
<!-- Node1&#45;&gt;Node18 -->
<g id="edge18" class="edge">
<title>Node1&#45;&gt;Node18</title>
<path fill="none" stroke="midnightblue" d="M471.6,-179.48C513.75,-168.94 585.55,-150.99 631.73,-139.44"/>
<polygon fill="midnightblue" stroke="midnightblue" points="632.61,-142.83 641.46,-137.01 630.91,-136.04 632.61,-142.83"/>
</g>
<!-- Node19 -->
<g id="node19" class="node">
<title>Node19</title>
<g id="a_node19"><a xlink:href="kiss__fft_8h.html" target="_top" xlink:title="kiss_fft.h">
<polygon fill="white" stroke="black" points="953,-118 953,-137 1010,-137 1010,-118 953,-118"/>
<text text-anchor="middle" x="981.5" y="-125" font-family="Helvetica,sans-Serif" font-size="10.00">kiss_fft.h</text>
</a>
</g>
</g>
<!-- Node1&#45;&gt;Node19 -->
<g id="edge19" class="edge">
<title>Node1&#45;&gt;Node19</title>
<path fill="none" stroke="midnightblue" d="M487.22,-182.56C594.54,-170.82 845.99,-143.32 942.68,-132.75"/>
<polygon fill="midnightblue" stroke="midnightblue" points="943.32,-136.2 952.88,-131.63 942.56,-129.24 943.32,-136.2"/>
</g>
<!-- Node3 -->
<g id="node3" class="node">
<title>Node3</title>
<g id="a_node3"><a xlink:href="api_8h.html" target="_top" xlink:title="gnuradio/lora_sdr/api.h">
<polygon fill="white" stroke="black" points="0,-56.5 0,-75.5 115,-75.5 115,-56.5 0,-56.5"/>
<text text-anchor="middle" x="57.5" y="-63.5" font-family="Helvetica,sans-Serif" font-size="10.00">gnuradio/lora_sdr/api.h</text>
</a>
</g>
</g>
<!-- Node2&#45;&gt;Node3 -->
<g id="edge2" class="edge">
<title>Node2&#45;&gt;Node3</title>
<path fill="none" stroke="midnightblue" d="M149.06,-112.4C129.38,-102.64 103.36,-89.74 84.09,-80.18"/>
<polygon fill="midnightblue" stroke="midnightblue" points="85.48,-76.96 74.96,-75.66 82.37,-83.24 85.48,-76.96"/>
</g>
<!-- Node5 -->
<g id="node5" class="node">
<title>Node5</title>
<polygon fill="white" stroke="#bfbfbf" points="133.5,-56.5 133.5,-75.5 221.5,-75.5 221.5,-56.5 133.5,-56.5"/>
<text text-anchor="middle" x="177.5" y="-63.5" font-family="Helvetica,sans-Serif" font-size="10.00">gnuradio/block.h</text>
</g>
<!-- Node2&#45;&gt;Node5 -->
<g id="edge4" class="edge">
<title>Node2&#45;&gt;Node5</title>
<path fill="none" stroke="midnightblue" d="M177.5,-112.4C177.5,-104.47 177.5,-94.46 177.5,-85.86"/>
<polygon fill="midnightblue" stroke="midnightblue" points="181,-85.66 177.5,-75.66 174,-85.66 181,-85.66"/>
</g>
<!-- Node4 -->
<g id="node4" class="node">
<title>Node4</title>
<polygon fill="white" stroke="#bfbfbf" points="5,-0.5 5,-19.5 110,-19.5 110,-0.5 5,-0.5"/>
<text text-anchor="middle" x="57.5" y="-7.5" font-family="Helvetica,sans-Serif" font-size="10.00">gnuradio/attributes.h</text>
</g>
<!-- Node3&#45;&gt;Node4 -->
<g id="edge3" class="edge">
<title>Node3&#45;&gt;Node4</title>
<path fill="none" stroke="midnightblue" d="M57.5,-56.08C57.5,-49.01 57.5,-38.86 57.5,-29.99"/>
<polygon fill="midnightblue" stroke="midnightblue" points="61,-29.75 57.5,-19.75 54,-29.75 61,-29.75"/>
</g>
<!-- Node9&#45;&gt;Node8 -->
<g id="edge16" class="edge">
<title>Node9&#45;&gt;Node8</title>
<path fill="none" stroke="midnightblue" d="M495.11,-117.98C447.1,-107.03 364.04,-88.1 313.79,-76.64"/>
<polygon fill="midnightblue" stroke="midnightblue" points="314.42,-73.19 303.89,-74.38 312.86,-80.02 314.42,-73.19"/>
</g>
<!-- Node10 -->
<g id="node10" class="node">
<title>Node10</title>
<polygon fill="white" stroke="#bfbfbf" points="321.5,-56.5 321.5,-75.5 367.5,-75.5 367.5,-56.5 321.5,-56.5"/>
<text text-anchor="middle" x="344.5" y="-63.5" font-family="Helvetica,sans-Serif" font-size="10.00">cstdint</text>
</g>
<!-- Node9&#45;&gt;Node10 -->
<g id="edge9" class="edge">
<title>Node9&#45;&gt;Node10</title>
<path fill="none" stroke="midnightblue" d="M505.56,-117.98C471.69,-107.25 413.57,-88.86 377.19,-77.35"/>
<polygon fill="midnightblue" stroke="midnightblue" points="378.13,-73.97 367.54,-74.29 376.02,-80.65 378.13,-73.97"/>
</g>
<!-- Node11 -->
<g id="node11" class="node">
<title>Node11</title>
<polygon fill="white" stroke="#bfbfbf" points="890,-56.5 890,-75.5 939,-75.5 939,-56.5 890,-56.5"/>
<text text-anchor="middle" x="914.5" y="-63.5" font-family="Helvetica,sans-Serif" font-size="10.00">string.h</text>
</g>
<!-- Node9&#45;&gt;Node11 -->
<g id="edge10" class="edge">
<title>Node9&#45;&gt;Node11</title>
<path fill="none" stroke="midnightblue" d="M574.47,-117.93C585.21,-115.86 596.77,-113.74 607.5,-112 725.11,-92.89 758.68,-99.34 879.68,-75.92"/>
<polygon fill="midnightblue" stroke="midnightblue" points="880.56,-79.32 889.7,-73.96 879.22,-72.45 880.56,-79.32"/>
</g>
<!-- Node12 -->
<g id="node12" class="node">
<title>Node12</title>
<polygon fill="white" stroke="#bfbfbf" points="385.5,-56.5 385.5,-75.5 435.5,-75.5 435.5,-56.5 385.5,-56.5"/>
<text text-anchor="middle" x="410.5" y="-63.5" font-family="Helvetica,sans-Serif" font-size="10.00">iomanip</text>
</g>
<!-- Node9&#45;&gt;Node12 -->
<g id="edge11" class="edge">
<title>Node9&#45;&gt;Node12</title>
<path fill="none" stroke="midnightblue" d="M515.02,-117.98C494.64,-108.03 460.72,-91.49 437.08,-79.96"/>
<polygon fill="midnightblue" stroke="midnightblue" points="438.47,-76.75 427.95,-75.51 435.4,-83.04 438.47,-76.75"/>
</g>
<!-- Node13 -->
<g id="node13" class="node">
<title>Node13</title>
<polygon fill="white" stroke="#bfbfbf" points="454,-56.5 454,-75.5 505,-75.5 505,-56.5 454,-56.5"/>
<text text-anchor="middle" x="479.5" y="-63.5" font-family="Helvetica,sans-Serif" font-size="10.00">numeric</text>
</g>
<!-- Node9&#45;&gt;Node13 -->
<g id="edge12" class="edge">
<title>Node9&#45;&gt;Node13</title>
<path fill="none" stroke="midnightblue" d="M524.91,-117.98C516.8,-108.87 503.77,-94.24 493.74,-82.98"/>
<polygon fill="midnightblue" stroke="midnightblue" points="496.34,-80.65 487.08,-75.51 491.12,-85.3 496.34,-80.65"/>
</g>
<!-- Node14 -->
<g id="node14" class="node">
<title>Node14</title>
<polygon fill="white" stroke="#bfbfbf" points="523,-56.5 523,-75.5 606,-75.5 606,-56.5 523,-56.5"/>
<text text-anchor="middle" x="564.5" y="-63.5" font-family="Helvetica,sans-Serif" font-size="10.00">gnuradio/expj.h</text>
</g>
<!-- Node9&#45;&gt;Node14 -->
<g id="edge13" class="edge">
<title>Node9&#45;&gt;Node14</title>
<path fill="none" stroke="midnightblue" d="M537.08,-117.98C541.74,-109.32 549.09,-95.65 555.01,-84.65"/>
<polygon fill="midnightblue" stroke="midnightblue" points="558.27,-85.97 559.92,-75.51 552.1,-82.66 558.27,-85.97"/>
</g>
<!-- Node15 -->
<g id="node15" class="node">
<title>Node15</title>
<polygon fill="white" stroke="#bfbfbf" points="624,-56.5 624,-75.5 705,-75.5 705,-56.5 624,-56.5"/>
<text text-anchor="middle" x="664.5" y="-63.5" font-family="Helvetica,sans-Serif" font-size="10.00">sys/resource.h</text>
</g>
<!-- Node9&#45;&gt;Node15 -->
<g id="edge14" class="edge">
<title>Node9&#45;&gt;Node15</title>
<path fill="none" stroke="midnightblue" d="M551.41,-117.98C573.66,-107.95 610.81,-91.2 636.43,-79.65"/>
<polygon fill="midnightblue" stroke="midnightblue" points="637.94,-82.81 645.62,-75.51 635.07,-76.43 637.94,-82.81"/>
</g>
<!-- Node16 -->
<g id="node16" class="node">
<title>Node16</title>
<polygon fill="white" stroke="#bfbfbf" points="723.5,-56.5 723.5,-75.5 797.5,-75.5 797.5,-56.5 723.5,-56.5"/>
<text text-anchor="middle" x="760.5" y="-63.5" font-family="Helvetica,sans-Serif" font-size="10.00">sys/syscall.h</text>
</g>
<!-- Node9&#45;&gt;Node16 -->
<g id="edge15" class="edge">
<title>Node9&#45;&gt;Node16</title>
<path fill="none" stroke="midnightblue" d="M565.17,-117.98C605.38,-107.48 673.76,-89.64 718.02,-78.09"/>
<polygon fill="midnightblue" stroke="midnightblue" points="719.1,-81.42 727.89,-75.51 717.33,-74.65 719.1,-81.42"/>
</g>
<!-- Node17 -->
<g id="node17" class="node">
<title>Node17</title>
<polygon fill="white" stroke="#bfbfbf" points="815.5,-56.5 815.5,-75.5 871.5,-75.5 871.5,-56.5 815.5,-56.5"/>
<text text-anchor="middle" x="843.5" y="-63.5" font-family="Helvetica,sans-Serif" font-size="10.00">algorithm</text>
</g>
<!-- Node9&#45;&gt;Node17 -->
<g id="edge17" class="edge">
<title>Node9&#45;&gt;Node17</title>
<path fill="none" stroke="midnightblue" d="M576.11,-117.98C586.4,-115.99 597.33,-113.9 607.5,-112 692.74,-96.05 716.89,-94.71 805.33,-76.15"/>
<polygon fill="midnightblue" stroke="midnightblue" points="806.2,-79.55 815.26,-74.05 804.75,-72.7 806.2,-79.55"/>
</g>
<!-- Node19&#45;&gt;Node11 -->
<g id="edge23" class="edge">
<title>Node19&#45;&gt;Node11</title>
<path fill="none" stroke="midnightblue" d="M971.9,-117.98C961.45,-108.7 944.53,-93.67 931.76,-82.33"/>
<polygon fill="midnightblue" stroke="midnightblue" points="933.88,-79.53 924.08,-75.51 929.23,-84.77 933.88,-79.53"/>
</g>
<!-- Node20 -->
<g id="node20" class="node">
<title>Node20</title>
<polygon fill="white" stroke="#bfbfbf" points="957.5,-56.5 957.5,-75.5 1005.5,-75.5 1005.5,-56.5 957.5,-56.5"/>
<text text-anchor="middle" x="981.5" y="-63.5" font-family="Helvetica,sans-Serif" font-size="10.00">stdlib.h</text>
</g>
<!-- Node19&#45;&gt;Node20 -->
<g id="edge20" class="edge">
<title>Node19&#45;&gt;Node20</title>
<path fill="none" stroke="midnightblue" d="M981.5,-117.98C981.5,-109.58 981.5,-96.48 981.5,-85.66"/>
<polygon fill="midnightblue" stroke="midnightblue" points="985,-85.51 981.5,-75.51 978,-85.51 985,-85.51"/>
</g>
<!-- Node21 -->
<g id="node21" class="node">
<title>Node21</title>
<polygon fill="white" stroke="#bfbfbf" points="1023.5,-56.5 1023.5,-75.5 1069.5,-75.5 1069.5,-56.5 1023.5,-56.5"/>
<text text-anchor="middle" x="1046.5" y="-63.5" font-family="Helvetica,sans-Serif" font-size="10.00">stdio.h</text>
</g>
<!-- Node19&#45;&gt;Node21 -->
<g id="edge21" class="edge">
<title>Node19&#45;&gt;Node21</title>
<path fill="none" stroke="midnightblue" d="M990.81,-117.98C1000.95,-108.7 1017.36,-93.67 1029.75,-82.33"/>
<polygon fill="midnightblue" stroke="midnightblue" points="1032.19,-84.84 1037.2,-75.51 1027.46,-79.68 1032.19,-84.84"/>
</g>
<!-- Node22 -->
<g id="node22" class="node">
<title>Node22</title>
<polygon fill="white" stroke="#bfbfbf" points="1088,-56.5 1088,-75.5 1135,-75.5 1135,-56.5 1088,-56.5"/>
<text text-anchor="middle" x="1111.5" y="-63.5" font-family="Helvetica,sans-Serif" font-size="10.00">math.h</text>
</g>
<!-- Node19&#45;&gt;Node22 -->
<g id="edge22" class="edge">
<title>Node19&#45;&gt;Node22</title>
<path fill="none" stroke="midnightblue" d="M1000.13,-117.98C1021.94,-107.99 1058.3,-91.35 1083.52,-79.81"/>
<polygon fill="midnightblue" stroke="midnightblue" points="1085.27,-82.85 1092.91,-75.51 1082.36,-76.49 1085.27,-82.85"/>
</g>
</g>
</svg>
