<?xml version="1.0" encoding="UTF-8" standalone="no"?>
<!DOCTYPE svg PUBLIC "-//W3C//DTD SVG 1.1//EN"
 "http://www.w3.org/Graphics/SVG/1.1/DTD/svg11.dtd">
<!-- Generated by graphviz version 5.0.0 (20220707.2338)
 -->
<!-- Title: gray_demap_impl.h Pages: 1 -->
<svg width="256pt" height="207pt"
 viewBox="0.00 0.00 255.50 207.00" xmlns="http://www.w3.org/2000/svg" xmlns:xlink="http://www.w3.org/1999/xlink">
<g id="graph0" class="graph" transform="scale(1 1) rotate(0) translate(4 203)">
<title>gray_demap_impl.h</title>
<polygon fill="white" stroke="transparent" points="-4,4 -4,-203 251.5,-203 251.5,4 -4,4"/>
<!-- Node1 -->
<g id="node1" class="node">
<title>Node1</title>
<polygon fill="#bfbfbf" stroke="black" points="73,-179.5 73,-198.5 174,-198.5 174,-179.5 73,-179.5"/>
<text text-anchor="middle" x="123.5" y="-186.5" font-family="Helvetica,sans-Serif" font-size="10.00">gray_demap_impl.h</text>
</g>
<!-- Node2 -->
<g id="node2" class="node">
<title>Node2</title>
<g id="a_node2"><a xlink:href="gray__demap_8h.html" target="_top" xlink:title="gnuradio/lora_sdr/gray\l_demap.h">
<polygon fill="white" stroke="black" points="67,-112.5 67,-142.5 180,-142.5 180,-112.5 67,-112.5"/>
<text text-anchor="start" x="75" y="-130.5" font-family="Helvetica,sans-Serif" font-size="10.00">gnuradio/lora_sdr/gray</text>
<text text-anchor="middle" x="123.5" y="-119.5" font-family="Helvetica,sans-Serif" font-size="10.00">_demap.h</text>
</a>
</g>
</g>
<!-- Node1&#45;&gt;Node2 -->
<g id="edge1" class="edge">
<title>Node1&#45;&gt;Node2</title>
<path fill="none" stroke="midnightblue" d="M123.5,-179.48C123.5,-172.47 123.5,-162.19 123.5,-152.7"/>
<polygon fill="midnightblue" stroke="midnightblue" points="127,-152.52 123.5,-142.52 120,-152.52 127,-152.52"/>
</g>
<!-- Node3 -->
<g id="node3" class="node">
<title>Node3</title>
<g id="a_node3"><a xlink:href="api_8h.html" target="_top" xlink:title="gnuradio/lora_sdr/api.h">
<polygon fill="white" stroke="black" points="0,-56.5 0,-75.5 115,-75.5 115,-56.5 0,-56.5"/>
<text text-anchor="middle" x="57.5" y="-63.5" font-family="Helvetica,sans-Serif" font-size="10.00">gnuradio/lora_sdr/api.h</text>
</a>
</g>
</g>
<!-- Node2&#45;&gt;Node3 -->
<g id="edge2" class="edge">
<title>Node2&#45;&gt;Node3</title>
<path fill="none" stroke="midnightblue" d="M107.86,-112.4C97.87,-103.4 84.92,-91.72 74.65,-82.47"/>
<polygon fill="midnightblue" stroke="midnightblue" points="76.87,-79.75 67.1,-75.66 72.19,-84.95 76.87,-79.75"/>
</g>
<!-- Node5 -->
<g id="node5" class="node">
<title>Node5</title>
<polygon fill="white" stroke="#bfbfbf" points="133.5,-56.5 133.5,-75.5 247.5,-75.5 247.5,-56.5 133.5,-56.5"/>
<text text-anchor="middle" x="190.5" y="-63.5" font-family="Helvetica,sans-Serif" font-size="10.00">gnuradio/sync_block.h</text>
</g>
<!-- Node2&#45;&gt;Node5 -->
<g id="edge4" class="edge">
<title>Node2&#45;&gt;Node5</title>
<path fill="none" stroke="midnightblue" d="M139.38,-112.4C149.52,-103.4 162.66,-91.72 173.09,-82.47"/>
<polygon fill="midnightblue" stroke="midnightblue" points="175.6,-84.92 180.75,-75.66 170.95,-79.68 175.6,-84.92"/>
</g>
<!-- Node4 -->
<g id="node4" class="node">
<title>Node4</title>
<polygon fill="white" stroke="#bfbfbf" points="5,-0.5 5,-19.5 110,-19.5 110,-0.5 5,-0.5"/>
<text text-anchor="middle" x="57.5" y="-7.5" font-family="Helvetica,sans-Serif" font-size="10.00">gnuradio/attributes.h</text>
</g>
<!-- Node3&#45;&gt;Node4 -->
<g id="edge3" class="edge">
<title>Node3&#45;&gt;Node4</title>
<path fill="none" stroke="midnightblue" d="M57.5,-56.08C57.5,-49.01 57.5,-38.86 57.5,-29.99"/>
<polygon fill="midnightblue" stroke="midnightblue" points="61,-29.75 57.5,-19.75 54,-29.75 61,-29.75"/>
</g>
</g>
</svg>
