<?xml version="1.0" encoding="UTF-8" standalone="no"?>
<!DOCTYPE svg PUBLIC "-//W3C//DTD SVG 1.1//EN"
 "http://www.w3.org/Graphics/SVG/1.1/DTD/svg11.dtd">
<!-- Generated by graphviz version 5.0.0 (20220707.2338)
 -->
<!-- Title: Graphical Class Hierarchy Pages: 1 -->
<svg width="389pt" height="284pt"
 viewBox="0.00 0.00 389.00 284.00" xmlns="http://www.w3.org/2000/svg" xmlns:xlink="http://www.w3.org/1999/xlink">
<g id="graph0" class="graph" transform="scale(1 1) rotate(0) translate(4 280)">
<title>Graphical Class Hierarchy</title>
<polygon fill="white" stroke="transparent" points="-4,4 -4,-280 385,-280 385,4 -4,4"/>
<!-- Node1 -->
<g id="node1" class="node">
<title>Node1</title>
<polygon fill="white" stroke="#bfbfbf" points="0,-126 0,-145 66,-145 66,-126 0,-126"/>
<text text-anchor="middle" x="33" y="-133" font-family="Helvetica,sans-Serif" font-size="10.00">sync_block</text>
</g>
<!-- Node2 -->
<g id="node2" class="node">
<title>Node2</title>
<g id="a_node2"><a xlink:href="classgr_1_1lora__sdr_1_1data__source.html" target="_top" xlink:title="&lt;+description of block+&gt; ">
<polygon fill="white" stroke="black" points="123,-244.5 123,-274.5 213,-274.5 213,-244.5 123,-244.5"/>
<text text-anchor="start" x="131" y="-262.5" font-family="Helvetica,sans-Serif" font-size="10.00">gr::lora_sdr::data</text>
<text text-anchor="middle" x="168" y="-251.5" font-family="Helvetica,sans-Serif" font-size="10.00">_source</text>
</a>
</g>
</g>
<!-- Node1&#45;&gt;Node2 -->
<g id="edge1" class="edge">
<title>Node1&#45;&gt;Node2</title>
<path fill="none" stroke="midnightblue" d="M42.6,-154.39C53.51,-176.43 74.3,-212.64 102,-234.5 108.17,-239.37 115.4,-243.38 122.75,-246.65"/>
<polygon fill="midnightblue" stroke="midnightblue" points="45.63,-152.61 38.17,-145.09 39.31,-155.63 45.63,-152.61"/>
</g>
<!-- Node4 -->
<g id="node4" class="node">
<title>Node4</title>
<g id="a_node4"><a xlink:href="classgr_1_1lora__sdr_1_1gray__demap.html" target="_top" xlink:title="&lt;+description of block+&gt; ">
<polygon fill="white" stroke="black" points="123,-194.5 123,-224.5 213,-224.5 213,-194.5 123,-194.5"/>
<text text-anchor="start" x="131" y="-212.5" font-family="Helvetica,sans-Serif" font-size="10.00">gr::lora_sdr::gray</text>
<text text-anchor="middle" x="168" y="-201.5" font-family="Helvetica,sans-Serif" font-size="10.00">_demap</text>
</a>
</g>
</g>
<!-- Node1&#45;&gt;Node4 -->
<g id="edge3" class="edge">
<title>Node1&#45;&gt;Node4</title>
<path fill="none" stroke="midnightblue" d="M53.29,-151.46C66.44,-161.81 84.57,-175.07 102,-184.5 108.7,-188.12 116.04,-191.48 123.3,-194.48"/>
<polygon fill="midnightblue" stroke="midnightblue" points="55.42,-148.68 45.43,-145.15 51.04,-154.14 55.42,-148.68"/>
</g>
<!-- Node6 -->
<g id="node6" class="node">
<title>Node6</title>
<g id="a_node6"><a xlink:href="classgr_1_1lora__sdr_1_1gray__mapping.html" target="_top" xlink:title="&lt;+description of block+&gt; ">
<polygon fill="white" stroke="black" points="123,-144.5 123,-174.5 213,-174.5 213,-144.5 123,-144.5"/>
<text text-anchor="start" x="131" y="-162.5" font-family="Helvetica,sans-Serif" font-size="10.00">gr::lora_sdr::gray</text>
<text text-anchor="middle" x="168" y="-151.5" font-family="Helvetica,sans-Serif" font-size="10.00">_mapping</text>
</a>
</g>
</g>
<!-- Node1&#45;&gt;Node6 -->
<g id="edge5" class="edge">
<title>Node1&#45;&gt;Node6</title>
<path fill="none" stroke="midnightblue" d="M76.14,-143.1C91.01,-145.79 107.76,-148.81 122.79,-151.52"/>
<polygon fill="midnightblue" stroke="midnightblue" points="76.66,-139.64 66.2,-141.31 75.42,-146.53 76.66,-139.64"/>
</g>
<!-- Node8 -->
<g id="node8" class="node">
<title>Node8</title>
<g id="a_node8"><a xlink:href="classgr_1_1lora__sdr_1_1hamming__dec.html" target="_top" xlink:title="&lt;+description of block+&gt; ">
<polygon fill="white" stroke="black" points="102,-104 102,-123 234,-123 234,-104 102,-104"/>
<text text-anchor="middle" x="168" y="-111" font-family="Helvetica,sans-Serif" font-size="10.00">gr::lora_sdr::hamming_dec</text>
</a>
</g>
</g>
<!-- Node1&#45;&gt;Node8 -->
<g id="edge7" class="edge">
<title>Node1&#45;&gt;Node8</title>
<path fill="none" stroke="midnightblue" d="M76.34,-128.5C86.85,-126.76 98.29,-124.87 109.39,-123.03"/>
<polygon fill="midnightblue" stroke="midnightblue" points="75.49,-125.09 66.2,-130.17 76.63,-132 75.49,-125.09"/>
</g>
<!-- Node10 -->
<g id="node10" class="node">
<title>Node10</title>
<g id="a_node10"><a xlink:href="classgr_1_1lora__sdr_1_1hamming__enc.html" target="_top" xlink:title="&lt;+description of block+&gt; ">
<polygon fill="white" stroke="black" points="102,-60 102,-79 234,-79 234,-60 102,-60"/>
<text text-anchor="middle" x="168" y="-67" font-family="Helvetica,sans-Serif" font-size="10.00">gr::lora_sdr::hamming_enc</text>
</a>
</g>
</g>
<!-- Node1&#45;&gt;Node10 -->
<g id="edge9" class="edge">
<title>Node1&#45;&gt;Node10</title>
<path fill="none" stroke="midnightblue" d="M56.87,-120.33C69.8,-112.11 86.45,-102.1 102,-94.5 113.84,-88.71 127.38,-83.32 139.03,-79.04"/>
<polygon fill="midnightblue" stroke="midnightblue" points="54.68,-117.58 48.18,-125.94 58.48,-123.46 54.68,-117.58"/>
</g>
<!-- Node12 -->
<g id="node12" class="node">
<title>Node12</title>
<g id="a_node12"><a xlink:href="classgr_1_1lora__sdr_1_1payload__id__inc.html" target="_top" xlink:title="&lt;+description of block+&gt; ">
<polygon fill="white" stroke="black" points="115.5,-8.5 115.5,-38.5 220.5,-38.5 220.5,-8.5 115.5,-8.5"/>
<text text-anchor="start" x="123.5" y="-26.5" font-family="Helvetica,sans-Serif" font-size="10.00">gr::lora_sdr::payload</text>
<text text-anchor="middle" x="168" y="-15.5" font-family="Helvetica,sans-Serif" font-size="10.00">_id_inc</text>
</a>
</g>
</g>
<!-- Node1&#45;&gt;Node12 -->
<g id="edge11" class="edge">
<title>Node1&#45;&gt;Node12</title>
<path fill="none" stroke="midnightblue" d="M44.76,-117.17C56.66,-98.25 77.45,-68.96 102,-50.5 108.15,-45.87 115.21,-41.89 122.36,-38.51"/>
<polygon fill="midnightblue" stroke="midnightblue" points="41.73,-115.41 39.51,-125.77 47.7,-119.06 41.73,-115.41"/>
</g>
<!-- Node3 -->
<g id="node3" class="node">
<title>Node3</title>
<g id="a_node3"><a xlink:href="classgr_1_1lora__sdr_1_1data__source__impl.html" target="_top" xlink:title="gr::lora_sdr::data\l_source_impl">
<polygon fill="white" stroke="black" points="280.5,-245.5 280.5,-275.5 370.5,-275.5 370.5,-245.5 280.5,-245.5"/>
<text text-anchor="start" x="288.5" y="-263.5" font-family="Helvetica,sans-Serif" font-size="10.00">gr::lora_sdr::data</text>
<text text-anchor="middle" x="325.5" y="-252.5" font-family="Helvetica,sans-Serif" font-size="10.00">_source_impl</text>
</a>
</g>
</g>
<!-- Node2&#45;&gt;Node3 -->
<g id="edge2" class="edge">
<title>Node2&#45;&gt;Node3</title>
<path fill="none" stroke="midnightblue" d="M223.26,-259.85C241.89,-259.97 262.51,-260.1 280.25,-260.22"/>
<polygon fill="midnightblue" stroke="midnightblue" points="223.17,-256.35 213.14,-259.78 223.12,-263.35 223.17,-256.35"/>
</g>
<!-- Node5 -->
<g id="node5" class="node">
<title>Node5</title>
<g id="a_node5"><a xlink:href="classgr_1_1lora__sdr_1_1gray__demap__impl.html" target="_top" xlink:title="gr::lora_sdr::gray\l_demap_impl">
<polygon fill="white" stroke="black" points="280.5,-196.5 280.5,-226.5 370.5,-226.5 370.5,-196.5 280.5,-196.5"/>
<text text-anchor="start" x="288.5" y="-214.5" font-family="Helvetica,sans-Serif" font-size="10.00">gr::lora_sdr::gray</text>
<text text-anchor="middle" x="325.5" y="-203.5" font-family="Helvetica,sans-Serif" font-size="10.00">_demap_impl</text>
</a>
</g>
</g>
<!-- Node4&#45;&gt;Node5 -->
<g id="edge4" class="edge">
<title>Node4&#45;&gt;Node5</title>
<path fill="none" stroke="midnightblue" d="M223.26,-210.2C241.89,-210.44 262.51,-210.7 280.25,-210.93"/>
<polygon fill="midnightblue" stroke="midnightblue" points="223.19,-206.7 213.14,-210.07 223.1,-213.7 223.19,-206.7"/>
</g>
<!-- Node7 -->
<g id="node7" class="node">
<title>Node7</title>
<g id="a_node7"><a xlink:href="classgr_1_1lora__sdr_1_1gray__mapping__impl.html" target="_top" xlink:title="gr::lora_sdr::gray\l_mapping_impl">
<polygon fill="white" stroke="black" points="280.5,-147.5 280.5,-177.5 370.5,-177.5 370.5,-147.5 280.5,-147.5"/>
<text text-anchor="start" x="288.5" y="-165.5" font-family="Helvetica,sans-Serif" font-size="10.00">gr::lora_sdr::gray</text>
<text text-anchor="middle" x="325.5" y="-154.5" font-family="Helvetica,sans-Serif" font-size="10.00">_mapping_impl</text>
</a>
</g>
</g>
<!-- Node6&#45;&gt;Node7 -->
<g id="edge6" class="edge">
<title>Node6&#45;&gt;Node7</title>
<path fill="none" stroke="midnightblue" d="M223.26,-160.55C241.89,-160.91 262.51,-161.3 280.25,-161.65"/>
<polygon fill="midnightblue" stroke="midnightblue" points="223.21,-157.05 213.14,-160.35 223.07,-164.04 223.21,-157.05"/>
</g>
<!-- Node9 -->
<g id="node9" class="node">
<title>Node9</title>
<g id="a_node9"><a xlink:href="classgr_1_1lora__sdr_1_1hamming__dec__impl.html" target="_top" xlink:title="gr::lora_sdr::hamming\l_dec_impl">
<polygon fill="white" stroke="black" points="270,-98.5 270,-128.5 381,-128.5 381,-98.5 270,-98.5"/>
<text text-anchor="start" x="278" y="-116.5" font-family="Helvetica,sans-Serif" font-size="10.00">gr::lora_sdr::hamming</text>
<text text-anchor="middle" x="325.5" y="-105.5" font-family="Helvetica,sans-Serif" font-size="10.00">_dec_impl</text>
</a>
</g>
</g>
<!-- Node8&#45;&gt;Node9 -->
<g id="edge8" class="edge">
<title>Node8&#45;&gt;Node9</title>
<path fill="none" stroke="midnightblue" d="M244.09,-113.5C252.68,-113.5 261.32,-113.5 269.57,-113.5"/>
<polygon fill="midnightblue" stroke="midnightblue" points="244.05,-110 234.05,-113.5 244.04,-117 244.05,-110"/>
</g>
<!-- Node11 -->
<g id="node11" class="node">
<title>Node11</title>
<g id="a_node11"><a xlink:href="classgr_1_1lora__sdr_1_1hamming__enc__impl.html" target="_top" xlink:title="gr::lora_sdr::hamming\l_enc_impl">
<polygon fill="white" stroke="black" points="270,-49.5 270,-79.5 381,-79.5 381,-49.5 270,-49.5"/>
<text text-anchor="start" x="278" y="-67.5" font-family="Helvetica,sans-Serif" font-size="10.00">gr::lora_sdr::hamming</text>
<text text-anchor="middle" x="325.5" y="-56.5" font-family="Helvetica,sans-Serif" font-size="10.00">_enc_impl</text>
</a>
</g>
</g>
<!-- Node10&#45;&gt;Node11 -->
<g id="edge10" class="edge">
<title>Node10&#45;&gt;Node11</title>
<path fill="none" stroke="midnightblue" d="M244.09,-67.09C252.68,-66.81 261.32,-66.53 269.57,-66.27"/>
<polygon fill="midnightblue" stroke="midnightblue" points="243.93,-63.59 234.05,-67.41 244.15,-70.59 243.93,-63.59"/>
</g>
<!-- Node13 -->
<g id="node13" class="node">
<title>Node13</title>
<g id="a_node13"><a xlink:href="classgr_1_1lora__sdr_1_1payload__id__inc__impl.html" target="_top" xlink:title="gr::lora_sdr::payload\l_id_inc_impl">
<polygon fill="white" stroke="black" points="273,-0.5 273,-30.5 378,-30.5 378,-0.5 273,-0.5"/>
<text text-anchor="start" x="281" y="-18.5" font-family="Helvetica,sans-Serif" font-size="10.00">gr::lora_sdr::payload</text>
<text text-anchor="middle" x="325.5" y="-7.5" font-family="Helvetica,sans-Serif" font-size="10.00">_id_inc_impl</text>
</a>
</g>
</g>
<!-- Node12&#45;&gt;Node13 -->
<g id="edge12" class="edge">
<title>Node12&#45;&gt;Node13</title>
<path fill="none" stroke="midnightblue" d="M230.8,-20.32C244.77,-19.6 259.45,-18.85 272.95,-18.15"/>
<polygon fill="midnightblue" stroke="midnightblue" points="230.59,-16.83 220.78,-20.84 230.95,-23.82 230.59,-16.83"/>
</g>
</g>
</svg>
