<?xml version="1.0" encoding="UTF-8" standalone="no"?>
<!DOCTYPE svg PUBLIC "-//W3C//DTD SVG 1.1//EN"
 "http://www.w3.org/Graphics/SVG/1.1/DTD/svg11.dtd">
<!-- Generated by graphviz version 5.0.0 (20220707.2338)
 -->
<!-- Title: Graphical Class Hierarchy Pages: 1 -->
<svg width="397pt" height="444pt"
 viewBox="0.00 0.00 397.00 443.50" xmlns="http://www.w3.org/2000/svg" xmlns:xlink="http://www.w3.org/1999/xlink">
<g id="graph0" class="graph" transform="scale(1 1) rotate(0) translate(4 439.5)">
<title>Graphical Class Hierarchy</title>
<polygon fill="white" stroke="transparent" points="-4,4 -4,-439.5 393,-439.5 393,4 -4,4"/>
<!-- Node1 -->
<g id="node1" class="node">
<title>Node1</title>
<polygon fill="white" stroke="#bfbfbf" points="0,-220 0,-239 40,-239 40,-220 0,-220"/>
<text text-anchor="middle" x="20" y="-227" font-family="Helvetica,sans-Serif" font-size="10.00">block</text>
</g>
<!-- Node2 -->
<g id="node2" class="node">
<title>Node2</title>
<g id="a_node2"><a xlink:href="classgr_1_1lora__sdr_1_1add__crc.html" target="_top" xlink:title="&lt;+description of block+&gt; ">
<polygon fill="white" stroke="black" points="86.5,-415 86.5,-434 192.5,-434 192.5,-415 86.5,-415"/>
<text text-anchor="middle" x="139.5" y="-422" font-family="Helvetica,sans-Serif" font-size="10.00">gr::lora_sdr::add_crc</text>
</a>
</g>
</g>
<!-- Node1&#45;&gt;Node2 -->
<g id="edge1" class="edge">
<title>Node1&#45;&gt;Node2</title>
<path fill="none" stroke="midnightblue" d="M21.43,-249.28C23.31,-285.42 32.53,-362.37 76,-405.5 79.94,-409.41 84.67,-412.53 89.73,-415"/>
<polygon fill="midnightblue" stroke="midnightblue" points="24.92,-248.93 21.05,-239.07 17.93,-249.2 24.92,-248.93"/>
</g>
<!-- Node4 -->
<g id="node4" class="node">
<title>Node4</title>
<g id="a_node4"><a xlink:href="classgr_1_1lora__sdr_1_1crc__verif.html" target="_top" xlink:title="&lt;+description of block+&gt; ">
<polygon fill="white" stroke="black" points="85,-377 85,-396 194,-396 194,-377 85,-377"/>
<text text-anchor="middle" x="139.5" y="-384" font-family="Helvetica,sans-Serif" font-size="10.00">gr::lora_sdr::crc_verif</text>
</a>
</g>
</g>
<!-- Node1&#45;&gt;Node4 -->
<g id="edge3" class="edge">
<title>Node1&#45;&gt;Node4</title>
<path fill="none" stroke="midnightblue" d="M23.42,-249.14C28.13,-278.97 41.32,-335.62 76,-367.5 80.26,-371.41 85.3,-374.52 90.64,-376.99"/>
<polygon fill="midnightblue" stroke="midnightblue" points="26.87,-248.53 22,-239.12 19.93,-249.51 26.87,-248.53"/>
</g>
<!-- Node6 -->
<g id="node6" class="node">
<title>Node6</title>
<g id="a_node6"><a xlink:href="classgr_1_1lora__sdr_1_1deinterleaver.html" target="_top" xlink:title="&lt;+description of block+&gt; ">
<polygon fill="white" stroke="black" points="76,-339 76,-358 203,-358 203,-339 76,-339"/>
<text text-anchor="middle" x="139.5" y="-346" font-family="Helvetica,sans-Serif" font-size="10.00">gr::lora_sdr::deinterleaver</text>
</a>
</g>
</g>
<!-- Node1&#45;&gt;Node6 -->
<g id="edge5" class="edge">
<title>Node1&#45;&gt;Node6</title>
<path fill="none" stroke="midnightblue" d="M26.91,-248.95C34.67,-271.28 50.39,-307.5 76,-328.5 81.29,-332.83 87.53,-336.23 93.99,-338.9"/>
<polygon fill="midnightblue" stroke="midnightblue" points="30.17,-247.66 23.74,-239.24 23.52,-249.83 30.17,-247.66"/>
</g>
<!-- Node8 -->
<g id="node8" class="node">
<title>Node8</title>
<g id="a_node8"><a xlink:href="classgr_1_1lora__sdr_1_1dewhitening.html" target="_top" xlink:title="&lt;+description of block+&gt; ">
<polygon fill="white" stroke="black" points="78,-300 78,-319 201,-319 201,-300 78,-300"/>
<text text-anchor="middle" x="139.5" y="-307" font-family="Helvetica,sans-Serif" font-size="10.00">gr::lora_sdr::dewhitening</text>
</a>
</g>
</g>
<!-- Node1&#45;&gt;Node8 -->
<g id="edge7" class="edge">
<title>Node1&#45;&gt;Node8</title>
<path fill="none" stroke="midnightblue" d="M33.4,-247.43C43.47,-260.77 58.79,-278.48 76,-289.5 82.72,-293.8 90.43,-297.24 98.1,-299.98"/>
<polygon fill="midnightblue" stroke="midnightblue" points="36.01,-245.08 27.31,-239.04 30.35,-249.19 36.01,-245.08"/>
</g>
<!-- Node10 -->
<g id="node10" class="node">
<title>Node10</title>
<g id="a_node10"><a xlink:href="classgr_1_1lora__sdr_1_1fft__demod.html" target="_top" xlink:title="&lt;+description of block+&gt; ">
<polygon fill="white" stroke="black" points="82,-261 82,-280 197,-280 197,-261 82,-261"/>
<text text-anchor="middle" x="139.5" y="-268" font-family="Helvetica,sans-Serif" font-size="10.00">gr::lora_sdr::fft_demod</text>
</a>
</g>
</g>
<!-- Node1&#45;&gt;Node10 -->
<g id="edge9" class="edge">
<title>Node1&#45;&gt;Node10</title>
<path fill="none" stroke="midnightblue" d="M49.61,-239.48C68.3,-246.01 92.57,-254.47 111.03,-260.91"/>
<polygon fill="midnightblue" stroke="midnightblue" points="50.73,-236.17 40.14,-236.18 48.43,-242.78 50.73,-236.17"/>
</g>
<!-- Node12 -->
<g id="node12" class="node">
<title>Node12</title>
<g id="a_node12"><a xlink:href="classgr_1_1lora__sdr_1_1frame__sync.html" target="_top" xlink:title="&lt;+description of block+&gt; ">
<polygon fill="white" stroke="black" points="78.5,-220 78.5,-239 200.5,-239 200.5,-220 78.5,-220"/>
<text text-anchor="middle" x="139.5" y="-227" font-family="Helvetica,sans-Serif" font-size="10.00">gr::lora_sdr::frame_sync</text>
</a>
</g>
</g>
<!-- Node1&#45;&gt;Node12 -->
<g id="edge11" class="edge">
<title>Node1&#45;&gt;Node12</title>
<path fill="none" stroke="midnightblue" d="M50.35,-229.5C58.95,-229.5 68.69,-229.5 78.47,-229.5"/>
<polygon fill="midnightblue" stroke="midnightblue" points="50.14,-226 40.14,-229.5 50.14,-233 50.14,-226"/>
</g>
<!-- Node14 -->
<g id="node14" class="node">
<title>Node14</title>
<g id="a_node14"><a xlink:href="classgr_1_1lora__sdr_1_1header.html" target="_top" xlink:title="&lt;+description of block+&gt; ">
<polygon fill="white" stroke="black" points="89,-181 89,-200 190,-200 190,-181 89,-181"/>
<text text-anchor="middle" x="139.5" y="-188" font-family="Helvetica,sans-Serif" font-size="10.00">gr::lora_sdr::header</text>
</a>
</g>
</g>
<!-- Node1&#45;&gt;Node14 -->
<g id="edge13" class="edge">
<title>Node1&#45;&gt;Node14</title>
<path fill="none" stroke="midnightblue" d="M49.55,-219.5C58.05,-216.56 67.39,-213.37 76,-210.5 86.49,-207.01 98,-203.3 108.25,-200.02"/>
<polygon fill="midnightblue" stroke="midnightblue" points="48.35,-216.21 40.05,-222.8 50.65,-222.82 48.35,-216.21"/>
</g>
<!-- Node16 -->
<g id="node16" class="node">
<title>Node16</title>
<g id="a_node16"><a xlink:href="classgr_1_1lora__sdr_1_1header__decoder.html" target="_top" xlink:title="&lt;+description of block+&gt; ">
<polygon fill="white" stroke="black" points="89,-128.5 89,-158.5 190,-158.5 190,-128.5 89,-128.5"/>
<text text-anchor="start" x="97" y="-146.5" font-family="Helvetica,sans-Serif" font-size="10.00">gr::lora_sdr::header</text>
<text text-anchor="middle" x="139.5" y="-135.5" font-family="Helvetica,sans-Serif" font-size="10.00">_decoder</text>
</a>
</g>
</g>
<!-- Node1&#45;&gt;Node16 -->
<g id="edge15" class="edge">
<title>Node1&#45;&gt;Node16</title>
<path fill="none" stroke="midnightblue" d="M34.58,-211.85C44.89,-199.35 59.99,-182.84 76,-171.5 82.89,-166.62 90.76,-162.29 98.55,-158.59"/>
<polygon fill="midnightblue" stroke="midnightblue" points="31.77,-209.76 28.25,-219.76 37.23,-214.14 31.77,-209.76"/>
</g>
<!-- Node18 -->
<g id="node18" class="node">
<title>Node18</title>
<g id="a_node18"><a xlink:href="classgr_1_1lora__sdr_1_1interleaver.html" target="_top" xlink:title="&lt;+description of block+&gt; ">
<polygon fill="white" stroke="black" points="81.5,-89 81.5,-108 197.5,-108 197.5,-89 81.5,-89"/>
<text text-anchor="middle" x="139.5" y="-96" font-family="Helvetica,sans-Serif" font-size="10.00">gr::lora_sdr::interleaver</text>
</a>
</g>
</g>
<!-- Node1&#45;&gt;Node18 -->
<g id="edge17" class="edge">
<title>Node1&#45;&gt;Node18</title>
<path fill="none" stroke="midnightblue" d="M25.86,-209.77C32.88,-185.24 48.19,-143.67 76,-119.5 81.53,-114.69 88.2,-110.98 95.1,-108.11"/>
<polygon fill="midnightblue" stroke="midnightblue" points="22.4,-209.15 23.2,-219.71 29.16,-210.96 22.4,-209.15"/>
</g>
<!-- Node20 -->
<g id="node20" class="node">
<title>Node20</title>
<g id="a_node20"><a xlink:href="classgr_1_1lora__sdr_1_1modulate.html" target="_top" xlink:title="&lt;+description of block+&gt; ">
<polygon fill="white" stroke="black" points="84,-50 84,-69 195,-69 195,-50 84,-50"/>
<text text-anchor="middle" x="139.5" y="-57" font-family="Helvetica,sans-Serif" font-size="10.00">gr::lora_sdr::modulate</text>
</a>
</g>
</g>
<!-- Node1&#45;&gt;Node20 -->
<g id="edge19" class="edge">
<title>Node1&#45;&gt;Node20</title>
<path fill="none" stroke="midnightblue" d="M22.78,-209.61C26.7,-177.71 38.92,-115.07 76,-79.5 80.52,-75.16 85.99,-71.77 91.78,-69.11"/>
<polygon fill="midnightblue" stroke="midnightblue" points="19.27,-209.55 21.68,-219.87 26.23,-210.3 19.27,-209.55"/>
</g>
<!-- Node22 -->
<g id="node22" class="node">
<title>Node22</title>
<g id="a_node22"><a xlink:href="classgr_1_1lora__sdr_1_1RH__RF95__header.html" target="_top" xlink:title="&lt;+description of block+&gt; ">
<polygon fill="white" stroke="black" points="81.5,-0.5 81.5,-30.5 197.5,-30.5 197.5,-0.5 81.5,-0.5"/>
<text text-anchor="start" x="89.5" y="-18.5" font-family="Helvetica,sans-Serif" font-size="10.00">gr::lora_sdr::RH_RF95</text>
<text text-anchor="middle" x="139.5" y="-7.5" font-family="Helvetica,sans-Serif" font-size="10.00">_header</text>
</a>
</g>
</g>
<!-- Node1&#45;&gt;Node22 -->
<g id="edge21" class="edge">
<title>Node1&#45;&gt;Node22</title>
<path fill="none" stroke="midnightblue" d="M21.3,-209.69C22.93,-171.99 31.68,-89.36 76,-40.5 79.53,-36.6 83.76,-33.31 88.32,-30.52"/>
<polygon fill="midnightblue" stroke="midnightblue" points="17.8,-209.76 20.99,-219.86 24.79,-209.97 17.8,-209.76"/>
</g>
<!-- Node3 -->
<g id="node3" class="node">
<title>Node3</title>
<g id="a_node3"><a xlink:href="classgr_1_1lora__sdr_1_1add__crc__impl.html" target="_top" xlink:title="gr::lora_sdr::add_crc_impl">
<polygon fill="white" stroke="black" points="249.5,-416 249.5,-435 378.5,-435 378.5,-416 249.5,-416"/>
<text text-anchor="middle" x="314" y="-423" font-family="Helvetica,sans-Serif" font-size="10.00">gr::lora_sdr::add_crc_impl</text>
</a>
</g>
</g>
<!-- Node2&#45;&gt;Node3 -->
<g id="edge2" class="edge">
<title>Node2&#45;&gt;Node3</title>
<path fill="none" stroke="midnightblue" d="M202.98,-424.86C218.08,-424.95 234.23,-425.04 249.38,-425.13"/>
<polygon fill="midnightblue" stroke="midnightblue" points="202.74,-421.36 192.72,-424.8 202.7,-428.36 202.74,-421.36"/>
</g>
<!-- Node5 -->
<g id="node5" class="node">
<title>Node5</title>
<g id="a_node5"><a xlink:href="classgr_1_1lora__sdr_1_1crc__verif__impl.html" target="_top" xlink:title="gr::lora_sdr::crc_verif_impl">
<polygon fill="white" stroke="black" points="248,-378 248,-397 380,-397 380,-378 248,-378"/>
<text text-anchor="middle" x="314" y="-385" font-family="Helvetica,sans-Serif" font-size="10.00">gr::lora_sdr::crc_verif_impl</text>
</a>
</g>
</g>
<!-- Node4&#45;&gt;Node5 -->
<g id="edge4" class="edge">
<title>Node4&#45;&gt;Node5</title>
<path fill="none" stroke="midnightblue" d="M204.3,-386.87C218.52,-386.95 233.6,-387.04 247.87,-387.12"/>
<polygon fill="midnightblue" stroke="midnightblue" points="204.15,-383.37 194.13,-386.81 204.11,-390.37 204.15,-383.37"/>
</g>
<!-- Node7 -->
<g id="node7" class="node">
<title>Node7</title>
<g id="a_node7"><a xlink:href="classgr_1_1lora__sdr_1_1deinterleaver__impl.html" target="_top" xlink:title="gr::lora_sdr::deinterleaver_impl">
<polygon fill="white" stroke="black" points="239,-340 239,-359 389,-359 389,-340 239,-340"/>
<text text-anchor="middle" x="314" y="-347" font-family="Helvetica,sans-Serif" font-size="10.00">gr::lora_sdr::deinterleaver_impl</text>
</a>
</g>
</g>
<!-- Node6&#45;&gt;Node7 -->
<g id="edge6" class="edge">
<title>Node6&#45;&gt;Node7</title>
<path fill="none" stroke="midnightblue" d="M213.42,-348.92C221.83,-348.97 230.42,-349.02 238.85,-349.07"/>
<polygon fill="midnightblue" stroke="midnightblue" points="213.28,-345.42 203.26,-348.86 213.24,-352.42 213.28,-345.42"/>
</g>
<!-- Node9 -->
<g id="node9" class="node">
<title>Node9</title>
<g id="a_node9"><a xlink:href="classgr_1_1lora__sdr_1_1dewhitening__impl.html" target="_top" xlink:title="gr::lora_sdr::dewhitening_impl">
<polygon fill="white" stroke="black" points="241,-302 241,-321 387,-321 387,-302 241,-302"/>
<text text-anchor="middle" x="314" y="-309" font-family="Helvetica,sans-Serif" font-size="10.00">gr::lora_sdr::dewhitening_impl</text>
</a>
</g>
</g>
<!-- Node8&#45;&gt;Node9 -->
<g id="edge8" class="edge">
<title>Node8&#45;&gt;Node9</title>
<path fill="none" stroke="midnightblue" d="M211.36,-310.32C221.12,-310.43 231.14,-310.55 240.92,-310.66"/>
<polygon fill="midnightblue" stroke="midnightblue" points="211.36,-306.82 201.32,-310.21 211.28,-313.82 211.36,-306.82"/>
</g>
<!-- Node11 -->
<g id="node11" class="node">
<title>Node11</title>
<g id="a_node11"><a xlink:href="classgr_1_1lora__sdr_1_1fft__demod__impl.html" target="_top" xlink:title="gr::lora_sdr::fft_demod_impl">
<polygon fill="white" stroke="black" points="245,-264 245,-283 383,-283 383,-264 245,-264"/>
<text text-anchor="middle" x="314" y="-271" font-family="Helvetica,sans-Serif" font-size="10.00">gr::lora_sdr::fft_demod_impl</text>
</a>
</g>
</g>
<!-- Node10&#45;&gt;Node11 -->
<g id="edge10" class="edge">
<title>Node10&#45;&gt;Node11</title>
<path fill="none" stroke="midnightblue" d="M207.55,-271.67C219.74,-271.88 232.47,-272.1 244.7,-272.31"/>
<polygon fill="midnightblue" stroke="midnightblue" points="207.52,-268.17 197.46,-271.49 207.4,-275.16 207.52,-268.17"/>
</g>
<!-- Node13 -->
<g id="node13" class="node">
<title>Node13</title>
<g id="a_node13"><a xlink:href="classgr_1_1lora__sdr_1_1frame__sync__impl.html" target="_top" xlink:title="gr::lora_sdr::frame\l_sync_impl">
<polygon fill="white" stroke="black" points="266,-214.5 266,-244.5 362,-244.5 362,-214.5 266,-214.5"/>
<text text-anchor="start" x="274" y="-232.5" font-family="Helvetica,sans-Serif" font-size="10.00">gr::lora_sdr::frame</text>
<text text-anchor="middle" x="314" y="-221.5" font-family="Helvetica,sans-Serif" font-size="10.00">_sync_impl</text>
</a>
</g>
</g>
<!-- Node12&#45;&gt;Node13 -->
<g id="edge12" class="edge">
<title>Node12&#45;&gt;Node13</title>
<path fill="none" stroke="midnightblue" d="M210.95,-229.5C229.4,-229.5 248.84,-229.5 265.75,-229.5"/>
<polygon fill="midnightblue" stroke="midnightblue" points="210.83,-226 200.83,-229.5 210.83,-233 210.83,-226"/>
</g>
<!-- Node15 -->
<g id="node15" class="node">
<title>Node15</title>
<g id="a_node15"><a xlink:href="classgr_1_1lora__sdr_1_1header__impl.html" target="_top" xlink:title="gr::lora_sdr::header_impl">
<polygon fill="white" stroke="black" points="252,-176 252,-195 376,-195 376,-176 252,-176"/>
<text text-anchor="middle" x="314" y="-183" font-family="Helvetica,sans-Serif" font-size="10.00">gr::lora_sdr::header_impl</text>
</a>
</g>
</g>
<!-- Node14&#45;&gt;Node15 -->
<g id="edge14" class="edge">
<title>Node14&#45;&gt;Node15</title>
<path fill="none" stroke="midnightblue" d="M200.53,-188.76C217.15,-188.28 235.21,-187.75 251.89,-187.27"/>
<polygon fill="midnightblue" stroke="midnightblue" points="200.29,-185.27 190.39,-189.05 200.49,-192.26 200.29,-185.27"/>
</g>
<!-- Node17 -->
<g id="node17" class="node">
<title>Node17</title>
<g id="a_node17"><a xlink:href="classgr_1_1lora__sdr_1_1header__decoder__impl.html" target="_top" xlink:title="gr::lora_sdr::header\l_decoder_impl">
<polygon fill="white" stroke="black" points="263.5,-126.5 263.5,-156.5 364.5,-156.5 364.5,-126.5 263.5,-126.5"/>
<text text-anchor="start" x="271.5" y="-144.5" font-family="Helvetica,sans-Serif" font-size="10.00">gr::lora_sdr::header</text>
<text text-anchor="middle" x="314" y="-133.5" font-family="Helvetica,sans-Serif" font-size="10.00">_decoder_impl</text>
</a>
</g>
</g>
<!-- Node16&#45;&gt;Node17 -->
<g id="edge16" class="edge">
<title>Node16&#45;&gt;Node17</title>
<path fill="none" stroke="midnightblue" d="M200.55,-142.8C221.02,-142.57 243.65,-142.3 263.22,-142.08"/>
<polygon fill="midnightblue" stroke="midnightblue" points="200.35,-139.31 190.39,-142.92 200.43,-146.31 200.35,-139.31"/>
</g>
<!-- Node19 -->
<g id="node19" class="node">
<title>Node19</title>
<g id="a_node19"><a xlink:href="classgr_1_1lora__sdr_1_1interleaver__impl.html" target="_top" xlink:title="gr::lora_sdr::interleaver_impl">
<polygon fill="white" stroke="black" points="244,-88 244,-107 384,-107 384,-88 244,-88"/>
<text text-anchor="middle" x="314" y="-95" font-family="Helvetica,sans-Serif" font-size="10.00">gr::lora_sdr::interleaver_impl</text>
</a>
</g>
</g>
<!-- Node18&#45;&gt;Node19 -->
<g id="edge18" class="edge">
<title>Node18&#45;&gt;Node19</title>
<path fill="none" stroke="midnightblue" d="M208.1,-98.11C219.84,-98.04 232.05,-97.97 243.83,-97.9"/>
<polygon fill="midnightblue" stroke="midnightblue" points="207.92,-94.61 197.94,-98.17 207.96,-101.61 207.92,-94.61"/>
</g>
<!-- Node21 -->
<g id="node21" class="node">
<title>Node21</title>
<g id="a_node21"><a xlink:href="classgr_1_1lora__sdr_1_1modulate__impl.html" target="_top" xlink:title="gr::lora_sdr::modulate_impl">
<polygon fill="white" stroke="black" points="247,-50 247,-69 381,-69 381,-50 247,-50"/>
<text text-anchor="middle" x="314" y="-57" font-family="Helvetica,sans-Serif" font-size="10.00">gr::lora_sdr::modulate_impl</text>
</a>
</g>
</g>
<!-- Node20&#45;&gt;Node21 -->
<g id="edge20" class="edge">
<title>Node20&#45;&gt;Node21</title>
<path fill="none" stroke="midnightblue" d="M205.32,-59.5C218.94,-59.5 233.32,-59.5 246.99,-59.5"/>
<polygon fill="midnightblue" stroke="midnightblue" points="205.08,-56 195.08,-59.5 205.08,-63 205.08,-56"/>
</g>
<!-- Node23 -->
<g id="node23" class="node">
<title>Node23</title>
<g id="a_node23"><a xlink:href="classgr_1_1lora__sdr_1_1RH__RF95__header__impl.html" target="_top" xlink:title="gr::lora_sdr::RH_RF95\l_header_impl">
<polygon fill="white" stroke="black" points="256,-0.5 256,-30.5 372,-30.5 372,-0.5 256,-0.5"/>
<text text-anchor="start" x="264" y="-18.5" font-family="Helvetica,sans-Serif" font-size="10.00">gr::lora_sdr::RH_RF95</text>
<text text-anchor="middle" x="314" y="-7.5" font-family="Helvetica,sans-Serif" font-size="10.00">_header_impl</text>
</a>
</g>
</g>
<!-- Node22&#45;&gt;Node23 -->
<g id="edge22" class="edge">
<title>Node22&#45;&gt;Node23</title>
<path fill="none" stroke="midnightblue" d="M208.15,-15.5C223.92,-15.5 240.55,-15.5 255.81,-15.5"/>
<polygon fill="midnightblue" stroke="midnightblue" points="207.94,-12 197.94,-15.5 207.94,-19 207.94,-12"/>
</g>
</g>
</svg>
