<?xml version="1.0" encoding="UTF-8" standalone="no"?>
<!DOCTYPE svg PUBLIC "-//W3C//DTD SVG 1.1//EN"
 "http://www.w3.org/Graphics/SVG/1.1/DTD/svg11.dtd">
<!-- Generated by graphviz version 5.0.0 (20220707.2338)
 -->
<!-- Title: kiss_fft.h Pages: 1 -->
<svg width="212pt" height="84pt"
 viewBox="0.00 0.00 211.50 84.00" xmlns="http://www.w3.org/2000/svg" xmlns:xlink="http://www.w3.org/1999/xlink">
<g id="graph0" class="graph" transform="scale(1 1) rotate(0) translate(4 80)">
<title>kiss_fft.h</title>
<polygon fill="white" stroke="transparent" points="-4,4 -4,-80 207.5,-80 207.5,4 -4,4"/>
<!-- Node1 -->
<g id="node1" class="node">
<title>Node1</title>
<polygon fill="#bfbfbf" stroke="black" points="69.5,-56.5 69.5,-75.5 126.5,-75.5 126.5,-56.5 69.5,-56.5"/>
<text text-anchor="middle" x="98" y="-63.5" font-family="Helvetica,sans-Serif" font-size="10.00">kiss_fft.h</text>
</g>
<!-- Node2 -->
<g id="node2" class="node">
<title>Node2</title>
<g id="a_node2"><a xlink:href="__kiss__fft__guts_8h.html" target="_top" xlink:title="_kiss_fft_guts.h">
<polygon fill="white" stroke="black" points="0,-0.5 0,-19.5 86,-19.5 86,-0.5 0,-0.5"/>
<text text-anchor="middle" x="43" y="-7.5" font-family="Helvetica,sans-Serif" font-size="10.00">_kiss_fft_guts.h</text>
</a>
</g>
</g>
<!-- Node1&#45;&gt;Node2 -->
<g id="edge1" class="edge">
<title>Node1&#45;&gt;Node2</title>
<path fill="none" stroke="midnightblue" d="M81.71,-49C71.96,-39.43 59.95,-27.64 51.91,-19.75"/>
<polygon fill="midnightblue" stroke="midnightblue" points="79.33,-51.57 88.92,-56.08 84.23,-46.58 79.33,-51.57"/>
</g>
<!-- Node3 -->
<g id="node3" class="node">
<title>Node3</title>
<g id="a_node3"><a xlink:href="frame__sync__impl_8h.html" target="_top" xlink:title="frame_sync_impl.h">
<polygon fill="white" stroke="black" points="104.5,-0.5 104.5,-19.5 203.5,-19.5 203.5,-0.5 104.5,-0.5"/>
<text text-anchor="middle" x="154" y="-7.5" font-family="Helvetica,sans-Serif" font-size="10.00">frame_sync_impl.h</text>
</a>
</g>
</g>
<!-- Node1&#45;&gt;Node3 -->
<g id="edge2" class="edge">
<title>Node1&#45;&gt;Node3</title>
<path fill="none" stroke="midnightblue" d="M114.33,-49.25C124.26,-39.67 136.59,-27.79 144.84,-19.83"/>
<polygon fill="midnightblue" stroke="midnightblue" points="111.77,-46.86 107,-56.32 116.63,-51.9 111.77,-46.86"/>
</g>
</g>
</svg>
