<?xml version="1.0" encoding="UTF-8" standalone="no"?>
<!DOCTYPE svg PUBLIC "-//W3C//DTD SVG 1.1//EN"
 "http://www.w3.org/Graphics/SVG/1.1/DTD/svg11.dtd">
<!-- Generated by graphviz version 5.0.0 (20220707.2338)
 -->
<!-- Title: modulate_impl.h Pages: 1 -->
<svg width="977pt" height="196pt"
 viewBox="0.00 0.00 976.50 196.00" xmlns="http://www.w3.org/2000/svg" xmlns:xlink="http://www.w3.org/1999/xlink">
<g id="graph0" class="graph" transform="scale(1 1) rotate(0) translate(4 192)">
<title>modulate_impl.h</title>
<polygon fill="white" stroke="transparent" points="-4,4 -4,-192 972.5,-192 972.5,4 -4,4"/>
<!-- Node1 -->
<g id="node1" class="node">
<title>Node1</title>
<polygon fill="#bfbfbf" stroke="black" points="355.5,-168.5 355.5,-187.5 443.5,-187.5 443.5,-168.5 355.5,-168.5"/>
<text text-anchor="middle" x="399.5" y="-175.5" font-family="Helvetica,sans-Serif" font-size="10.00">modulate_impl.h</text>
</g>
<!-- Node2 -->
<g id="node2" class="node">
<title>Node2</title>
<g id="a_node2"><a xlink:href="modulate_8h.html" target="_top" xlink:title="gnuradio/lora_sdr/modulate.h">
<polygon fill="white" stroke="black" points="76.5,-112.5 76.5,-131.5 218.5,-131.5 218.5,-112.5 76.5,-112.5"/>
<text text-anchor="middle" x="147.5" y="-119.5" font-family="Helvetica,sans-Serif" font-size="10.00">gnuradio/lora_sdr/modulate.h</text>
</a>
</g>
</g>
<!-- Node1&#45;&gt;Node2 -->
<g id="edge1" class="edge">
<title>Node1&#45;&gt;Node2</title>
<path fill="none" stroke="midnightblue" d="M359.57,-168.44C315.61,-159.02 244.87,-143.87 197.32,-133.68"/>
<polygon fill="midnightblue" stroke="midnightblue" points="197.75,-130.19 187.24,-131.52 196.29,-137.03 197.75,-130.19"/>
</g>
<!-- Node6 -->
<g id="node6" class="node">
<title>Node6</title>
<polygon fill="white" stroke="#bfbfbf" points="237,-112.5 237,-131.5 354,-131.5 354,-112.5 237,-112.5"/>
<text text-anchor="middle" x="295.5" y="-119.5" font-family="Helvetica,sans-Serif" font-size="10.00">gnuradio/io_signature.h</text>
</g>
<!-- Node1&#45;&gt;Node6 -->
<g id="edge5" class="edge">
<title>Node1&#45;&gt;Node6</title>
<path fill="none" stroke="midnightblue" d="M382.79,-168.32C366.19,-159.7 340.5,-146.36 321.28,-136.39"/>
<polygon fill="midnightblue" stroke="midnightblue" points="322.66,-133.16 312.17,-131.65 319.43,-139.37 322.66,-133.16"/>
</g>
<!-- Node7 -->
<g id="node7" class="node">
<title>Node7</title>
<polygon fill="white" stroke="#bfbfbf" points="372.5,-112.5 372.5,-131.5 426.5,-131.5 426.5,-112.5 372.5,-112.5"/>
<text text-anchor="middle" x="399.5" y="-119.5" font-family="Helvetica,sans-Serif" font-size="10.00">iostream</text>
</g>
<!-- Node1&#45;&gt;Node7 -->
<g id="edge6" class="edge">
<title>Node1&#45;&gt;Node7</title>
<path fill="none" stroke="midnightblue" d="M399.5,-168.08C399.5,-161.01 399.5,-150.86 399.5,-141.99"/>
<polygon fill="midnightblue" stroke="midnightblue" points="403,-141.75 399.5,-131.75 396,-141.75 403,-141.75"/>
</g>
<!-- Node8 -->
<g id="node8" class="node">
<title>Node8</title>
<polygon fill="white" stroke="#bfbfbf" points="444.5,-112.5 444.5,-131.5 494.5,-131.5 494.5,-112.5 444.5,-112.5"/>
<text text-anchor="middle" x="469.5" y="-119.5" font-family="Helvetica,sans-Serif" font-size="10.00">fstream</text>
</g>
<!-- Node1&#45;&gt;Node8 -->
<g id="edge7" class="edge">
<title>Node1&#45;&gt;Node8</title>
<path fill="none" stroke="midnightblue" d="M410.75,-168.32C421.3,-160.18 437.3,-147.84 449.94,-138.09"/>
<polygon fill="midnightblue" stroke="midnightblue" points="452.27,-140.71 458.05,-131.83 447.99,-135.17 452.27,-140.71"/>
</g>
<!-- Node9 -->
<g id="node9" class="node">
<title>Node9</title>
<g id="a_node9"><a xlink:href="utilities_8h.html" target="_top" xlink:title="gnuradio/lora_sdr/utilities.h">
<polygon fill="white" stroke="black" points="513,-112.5 513,-131.5 646,-131.5 646,-112.5 513,-112.5"/>
<text text-anchor="middle" x="579.5" y="-119.5" font-family="Helvetica,sans-Serif" font-size="10.00">gnuradio/lora_sdr/utilities.h</text>
</a>
</g>
</g>
<!-- Node1&#45;&gt;Node9 -->
<g id="edge8" class="edge">
<title>Node1&#45;&gt;Node9</title>
<path fill="none" stroke="midnightblue" d="M428.02,-168.44C458.57,-159.28 507.21,-144.69 541.1,-134.52"/>
<polygon fill="midnightblue" stroke="midnightblue" points="542.54,-137.74 551.11,-131.52 540.53,-131.04 542.54,-137.74"/>
</g>
<!-- Node3 -->
<g id="node3" class="node">
<title>Node3</title>
<g id="a_node3"><a xlink:href="api_8h.html" target="_top" xlink:title="gnuradio/lora_sdr/api.h">
<polygon fill="white" stroke="black" points="0,-56.5 0,-75.5 115,-75.5 115,-56.5 0,-56.5"/>
<text text-anchor="middle" x="57.5" y="-63.5" font-family="Helvetica,sans-Serif" font-size="10.00">gnuradio/lora_sdr/api.h</text>
</a>
</g>
</g>
<!-- Node2&#45;&gt;Node3 -->
<g id="edge2" class="edge">
<title>Node2&#45;&gt;Node3</title>
<path fill="none" stroke="midnightblue" d="M133.04,-112.32C119,-103.9 97.45,-90.97 80.96,-81.07"/>
<polygon fill="midnightblue" stroke="midnightblue" points="82.3,-77.8 71.92,-75.65 78.7,-83.8 82.3,-77.8"/>
</g>
<!-- Node5 -->
<g id="node5" class="node">
<title>Node5</title>
<polygon fill="white" stroke="#bfbfbf" points="133.5,-56.5 133.5,-75.5 221.5,-75.5 221.5,-56.5 133.5,-56.5"/>
<text text-anchor="middle" x="177.5" y="-63.5" font-family="Helvetica,sans-Serif" font-size="10.00">gnuradio/block.h</text>
</g>
<!-- Node2&#45;&gt;Node5 -->
<g id="edge4" class="edge">
<title>Node2&#45;&gt;Node5</title>
<path fill="none" stroke="midnightblue" d="M152.45,-112.08C156.6,-104.61 162.65,-93.72 167.77,-84.52"/>
<polygon fill="midnightblue" stroke="midnightblue" points="170.84,-86.19 172.64,-75.75 164.72,-82.79 170.84,-86.19"/>
</g>
<!-- Node4 -->
<g id="node4" class="node">
<title>Node4</title>
<polygon fill="white" stroke="#bfbfbf" points="5,-0.5 5,-19.5 110,-19.5 110,-0.5 5,-0.5"/>
<text text-anchor="middle" x="57.5" y="-7.5" font-family="Helvetica,sans-Serif" font-size="10.00">gnuradio/attributes.h</text>
</g>
<!-- Node3&#45;&gt;Node4 -->
<g id="edge3" class="edge">
<title>Node3&#45;&gt;Node4</title>
<path fill="none" stroke="midnightblue" d="M57.5,-56.08C57.5,-49.01 57.5,-38.86 57.5,-29.99"/>
<polygon fill="midnightblue" stroke="midnightblue" points="61,-29.75 57.5,-19.75 54,-29.75 61,-29.75"/>
</g>
<!-- Node10 -->
<g id="node10" class="node">
<title>Node10</title>
<polygon fill="white" stroke="#bfbfbf" points="268.5,-56.5 268.5,-75.5 314.5,-75.5 314.5,-56.5 268.5,-56.5"/>
<text text-anchor="middle" x="291.5" y="-63.5" font-family="Helvetica,sans-Serif" font-size="10.00">cstdint</text>
</g>
<!-- Node9&#45;&gt;Node10 -->
<g id="edge9" class="edge">
<title>Node9&#45;&gt;Node10</title>
<path fill="none" stroke="midnightblue" d="M521.47,-112.5C471.6,-104.81 397.62,-92.48 324.36,-76.01"/>
<polygon fill="midnightblue" stroke="midnightblue" points="325.03,-72.57 314.5,-73.77 323.48,-79.4 325.03,-72.57"/>
</g>
<!-- Node11 -->
<g id="node11" class="node">
<title>Node11</title>
<polygon fill="white" stroke="#bfbfbf" points="333,-56.5 333,-75.5 382,-75.5 382,-56.5 333,-56.5"/>
<text text-anchor="middle" x="357.5" y="-63.5" font-family="Helvetica,sans-Serif" font-size="10.00">string.h</text>
</g>
<!-- Node9&#45;&gt;Node11 -->
<g id="edge10" class="edge">
<title>Node9&#45;&gt;Node11</title>
<path fill="none" stroke="midnightblue" d="M542.69,-112.46C506.75,-104.07 450.25,-90.71 392.09,-76.1"/>
<polygon fill="midnightblue" stroke="midnightblue" points="392.92,-72.7 382.36,-73.65 391.21,-79.49 392.92,-72.7"/>
</g>
<!-- Node12 -->
<g id="node12" class="node">
<title>Node12</title>
<polygon fill="white" stroke="#bfbfbf" points="400.5,-56.5 400.5,-75.5 450.5,-75.5 450.5,-56.5 400.5,-56.5"/>
<text text-anchor="middle" x="425.5" y="-63.5" font-family="Helvetica,sans-Serif" font-size="10.00">iomanip</text>
</g>
<!-- Node9&#45;&gt;Node12 -->
<g id="edge11" class="edge">
<title>Node9&#45;&gt;Node12</title>
<path fill="none" stroke="midnightblue" d="M555.1,-112.44C529.3,-103.4 488.42,-89.06 459.48,-78.92"/>
<polygon fill="midnightblue" stroke="midnightblue" points="460.38,-75.52 449.79,-75.52 458.07,-82.13 460.38,-75.52"/>
</g>
<!-- Node13 -->
<g id="node13" class="node">
<title>Node13</title>
<polygon fill="white" stroke="#bfbfbf" points="469,-56.5 469,-75.5 520,-75.5 520,-56.5 469,-56.5"/>
<text text-anchor="middle" x="494.5" y="-63.5" font-family="Helvetica,sans-Serif" font-size="10.00">numeric</text>
</g>
<!-- Node9&#45;&gt;Node13 -->
<g id="edge12" class="edge">
<title>Node9&#45;&gt;Node13</title>
<path fill="none" stroke="midnightblue" d="M565.84,-112.32C552.58,-103.9 532.23,-90.97 516.65,-81.07"/>
<polygon fill="midnightblue" stroke="midnightblue" points="518.44,-78.06 508.12,-75.65 514.69,-83.97 518.44,-78.06"/>
</g>
<!-- Node14 -->
<g id="node14" class="node">
<title>Node14</title>
<polygon fill="white" stroke="#bfbfbf" points="538,-56.5 538,-75.5 621,-75.5 621,-56.5 538,-56.5"/>
<text text-anchor="middle" x="579.5" y="-63.5" font-family="Helvetica,sans-Serif" font-size="10.00">gnuradio/expj.h</text>
</g>
<!-- Node9&#45;&gt;Node14 -->
<g id="edge13" class="edge">
<title>Node9&#45;&gt;Node14</title>
<path fill="none" stroke="midnightblue" d="M579.5,-112.08C579.5,-105.01 579.5,-94.86 579.5,-85.99"/>
<polygon fill="midnightblue" stroke="midnightblue" points="583,-85.75 579.5,-75.75 576,-85.75 583,-85.75"/>
</g>
<!-- Node15 -->
<g id="node15" class="node">
<title>Node15</title>
<polygon fill="white" stroke="#bfbfbf" points="639,-56.5 639,-75.5 720,-75.5 720,-56.5 639,-56.5"/>
<text text-anchor="middle" x="679.5" y="-63.5" font-family="Helvetica,sans-Serif" font-size="10.00">sys/resource.h</text>
</g>
<!-- Node9&#45;&gt;Node15 -->
<g id="edge14" class="edge">
<title>Node9&#45;&gt;Node15</title>
<path fill="none" stroke="midnightblue" d="M595.57,-112.32C611.46,-103.74 636.01,-90.49 654.46,-80.52"/>
<polygon fill="midnightblue" stroke="midnightblue" points="656.34,-83.49 663.47,-75.65 653.01,-77.33 656.34,-83.49"/>
</g>
<!-- Node16 -->
<g id="node16" class="node">
<title>Node16</title>
<polygon fill="white" stroke="#bfbfbf" points="738.5,-56.5 738.5,-75.5 812.5,-75.5 812.5,-56.5 738.5,-56.5"/>
<text text-anchor="middle" x="775.5" y="-63.5" font-family="Helvetica,sans-Serif" font-size="10.00">sys/syscall.h</text>
</g>
<!-- Node9&#45;&gt;Node16 -->
<g id="edge15" class="edge">
<title>Node9&#45;&gt;Node16</title>
<path fill="none" stroke="midnightblue" d="M610.56,-112.44C644.1,-103.2 697.7,-88.44 734.64,-78.26"/>
<polygon fill="midnightblue" stroke="midnightblue" points="735.88,-81.55 744.59,-75.52 734.02,-74.8 735.88,-81.55"/>
</g>
<!-- Node17 -->
<g id="node17" class="node">
<title>Node17</title>
<polygon fill="white" stroke="#bfbfbf" points="830.5,-56.5 830.5,-75.5 894.5,-75.5 894.5,-56.5 830.5,-56.5"/>
<text text-anchor="middle" x="862.5" y="-63.5" font-family="Helvetica,sans-Serif" font-size="10.00">volk/volk.h</text>
</g>
<!-- Node9&#45;&gt;Node17 -->
<g id="edge16" class="edge">
<title>Node9&#45;&gt;Node17</title>
<path fill="none" stroke="midnightblue" d="M627.8,-112.49C674.51,-104.16 747.56,-90.84 820.07,-76.24"/>
<polygon fill="midnightblue" stroke="midnightblue" points="821.18,-79.59 830.29,-74.17 819.8,-72.73 821.18,-79.59"/>
</g>
<!-- Node18 -->
<g id="node18" class="node">
<title>Node18</title>
<polygon fill="white" stroke="#bfbfbf" points="912.5,-56.5 912.5,-75.5 968.5,-75.5 968.5,-56.5 912.5,-56.5"/>
<text text-anchor="middle" x="940.5" y="-63.5" font-family="Helvetica,sans-Serif" font-size="10.00">algorithm</text>
</g>
<!-- Node9&#45;&gt;Node18 -->
<g id="edge17" class="edge">
<title>Node9&#45;&gt;Node18</title>
<path fill="none" stroke="midnightblue" d="M646.22,-113.72C709.7,-106.35 808.07,-93.75 902.3,-76.07"/>
<polygon fill="midnightblue" stroke="midnightblue" points="903.11,-79.48 912.28,-74.17 901.8,-72.6 903.11,-79.48"/>
</g>
</g>
</svg>
