<?xml version="1.0" encoding="UTF-8" standalone="no"?>
<!DOCTYPE svg PUBLIC "-//W3C//DTD SVG 1.1//EN"
 "http://www.w3.org/Graphics/SVG/1.1/DTD/svg11.dtd">
<!-- Generated by graphviz version 5.0.0 (20220707.2338)
 -->
<!-- Title: RH_RF95_header_impl.h Pages: 1 -->
<svg width="230pt" height="207pt"
 viewBox="0.00 0.00 229.50 207.00" xmlns="http://www.w3.org/2000/svg" xmlns:xlink="http://www.w3.org/1999/xlink">
<g id="graph0" class="graph" transform="scale(1 1) rotate(0) translate(4 203)">
<title>RH_RF95_header_impl.h</title>
<polygon fill="white" stroke="transparent" points="-4,4 -4,-203 225.5,-203 225.5,4 -4,4"/>
<!-- Node1 -->
<g id="node1" class="node">
<title>Node1</title>
<polygon fill="#bfbfbf" stroke="black" points="54,-179.5 54,-198.5 181,-198.5 181,-179.5 54,-179.5"/>
<text text-anchor="middle" x="117.5" y="-186.5" font-family="Helvetica,sans-Serif" font-size="10.00">RH_RF95_header_impl.h</text>
</g>
<!-- Node2 -->
<g id="node2" class="node">
<title>Node2</title>
<g id="a_node2"><a xlink:href="RH__RF95__header_8h.html" target="_top" xlink:title="gnuradio/lora_sdr/RH\l_RF95_header.h">
<polygon fill="white" stroke="black" points="63,-112.5 63,-142.5 172,-142.5 172,-112.5 63,-112.5"/>
<text text-anchor="start" x="71" y="-130.5" font-family="Helvetica,sans-Serif" font-size="10.00">gnuradio/lora_sdr/RH</text>
<text text-anchor="middle" x="117.5" y="-119.5" font-family="Helvetica,sans-Serif" font-size="10.00">_RF95_header.h</text>
</a>
</g>
</g>
<!-- Node1&#45;&gt;Node2 -->
<g id="edge1" class="edge">
<title>Node1&#45;&gt;Node2</title>
<path fill="none" stroke="midnightblue" d="M117.5,-179.48C117.5,-172.47 117.5,-162.19 117.5,-152.7"/>
<polygon fill="midnightblue" stroke="midnightblue" points="121,-152.52 117.5,-142.52 114,-152.52 121,-152.52"/>
</g>
<!-- Node3 -->
<g id="node3" class="node">
<title>Node3</title>
<g id="a_node3"><a xlink:href="api_8h.html" target="_top" xlink:title="gnuradio/lora_sdr/api.h">
<polygon fill="white" stroke="black" points="0,-56.5 0,-75.5 115,-75.5 115,-56.5 0,-56.5"/>
<text text-anchor="middle" x="57.5" y="-63.5" font-family="Helvetica,sans-Serif" font-size="10.00">gnuradio/lora_sdr/api.h</text>
</a>
</g>
</g>
<!-- Node2&#45;&gt;Node3 -->
<g id="edge2" class="edge">
<title>Node2&#45;&gt;Node3</title>
<path fill="none" stroke="midnightblue" d="M103.28,-112.4C94.29,-103.49 82.66,-91.95 73.37,-82.74"/>
<polygon fill="midnightblue" stroke="midnightblue" points="75.8,-80.21 66.23,-75.66 70.87,-85.18 75.8,-80.21"/>
</g>
<!-- Node5 -->
<g id="node5" class="node">
<title>Node5</title>
<polygon fill="white" stroke="#bfbfbf" points="133.5,-56.5 133.5,-75.5 221.5,-75.5 221.5,-56.5 133.5,-56.5"/>
<text text-anchor="middle" x="177.5" y="-63.5" font-family="Helvetica,sans-Serif" font-size="10.00">gnuradio/block.h</text>
</g>
<!-- Node2&#45;&gt;Node5 -->
<g id="edge4" class="edge">
<title>Node2&#45;&gt;Node5</title>
<path fill="none" stroke="midnightblue" d="M131.72,-112.4C140.71,-103.49 152.34,-91.95 161.63,-82.74"/>
<polygon fill="midnightblue" stroke="midnightblue" points="164.13,-85.18 168.77,-75.66 159.2,-80.21 164.13,-85.18"/>
</g>
<!-- Node4 -->
<g id="node4" class="node">
<title>Node4</title>
<polygon fill="white" stroke="#bfbfbf" points="5,-0.5 5,-19.5 110,-19.5 110,-0.5 5,-0.5"/>
<text text-anchor="middle" x="57.5" y="-7.5" font-family="Helvetica,sans-Serif" font-size="10.00">gnuradio/attributes.h</text>
</g>
<!-- Node3&#45;&gt;Node4 -->
<g id="edge3" class="edge">
<title>Node3&#45;&gt;Node4</title>
<path fill="none" stroke="midnightblue" d="M57.5,-56.08C57.5,-49.01 57.5,-38.86 57.5,-29.99"/>
<polygon fill="midnightblue" stroke="midnightblue" points="61,-29.75 57.5,-19.75 54,-29.75 61,-29.75"/>
</g>
</g>
</svg>
