<?xml version="1.0" encoding="UTF-8" standalone="no"?>
<!DOCTYPE svg PUBLIC "-//W3C//DTD SVG 1.1//EN"
 "http://www.w3.org/Graphics/SVG/1.1/DTD/svg11.dtd">
<!-- Generated by graphviz version 5.0.0 (20220707.2338)
 -->
<!-- Title: utilities.h Pages: 1 -->
<svg width="786pt" height="84pt"
 viewBox="0.00 0.00 786.00 84.00" xmlns="http://www.w3.org/2000/svg" xmlns:xlink="http://www.w3.org/1999/xlink">
<g id="graph0" class="graph" transform="scale(1 1) rotate(0) translate(4 80)">
<title>utilities.h</title>
<polygon fill="white" stroke="transparent" points="-4,4 -4,-80 782,-80 782,4 -4,4"/>
<!-- Node1 -->
<g id="node1" class="node">
<title>Node1</title>
<polygon fill="#bfbfbf" stroke="black" points="352.5,-56.5 352.5,-75.5 408.5,-75.5 408.5,-56.5 352.5,-56.5"/>
<text text-anchor="middle" x="380.5" y="-63.5" font-family="Helvetica,sans-Serif" font-size="10.00">utilities.h</text>
</g>
<!-- Node2 -->
<g id="node2" class="node">
<title>Node2</title>
<g id="a_node2"><a xlink:href="add__crc__impl_8h.html" target="_top" xlink:title="add_crc_impl.h">
<polygon fill="white" stroke="black" points="0,-0.5 0,-19.5 83,-19.5 83,-0.5 0,-0.5"/>
<text text-anchor="middle" x="41.5" y="-7.5" font-family="Helvetica,sans-Serif" font-size="10.00">add_crc_impl.h</text>
</a>
</g>
</g>
<!-- Node1&#45;&gt;Node2 -->
<g id="edge1" class="edge">
<title>Node1&#45;&gt;Node2</title>
<path fill="none" stroke="midnightblue" d="M342.09,-59.31C286.68,-51.04 181.12,-35.04 91.5,-20 88.8,-19.55 86.03,-19.07 83.23,-18.59"/>
<polygon fill="midnightblue" stroke="midnightblue" points="341.75,-62.8 352.16,-60.81 342.78,-55.88 341.75,-62.8"/>
</g>
<!-- Node3 -->
<g id="node3" class="node">
<title>Node3</title>
<g id="a_node3"><a xlink:href="data__source__impl_8h.html" target="_top" xlink:title="data_source_impl.h">
<polygon fill="white" stroke="black" points="101,-0.5 101,-19.5 202,-19.5 202,-0.5 101,-0.5"/>
<text text-anchor="middle" x="151.5" y="-7.5" font-family="Helvetica,sans-Serif" font-size="10.00">data_source_impl.h</text>
</a>
</g>
</g>
<!-- Node1&#45;&gt;Node3 -->
<g id="edge2" class="edge">
<title>Node1&#45;&gt;Node3</title>
<path fill="none" stroke="midnightblue" d="M342.62,-56.07C299.64,-45.93 230.03,-29.52 187.74,-19.55"/>
<polygon fill="midnightblue" stroke="midnightblue" points="341.88,-59.49 352.42,-58.38 343.49,-52.68 341.88,-59.49"/>
</g>
<!-- Node4 -->
<g id="node4" class="node">
<title>Node4</title>
<g id="a_node4"><a xlink:href="fft__demod__impl_8h.html" target="_top" xlink:title="fft_demod_impl.h">
<polygon fill="white" stroke="black" points="220.5,-0.5 220.5,-19.5 312.5,-19.5 312.5,-0.5 220.5,-0.5"/>
<text text-anchor="middle" x="266.5" y="-7.5" font-family="Helvetica,sans-Serif" font-size="10.00">fft_demod_impl.h</text>
</a>
</g>
</g>
<!-- Node1&#45;&gt;Node4 -->
<g id="edge3" class="edge">
<title>Node1&#45;&gt;Node4</title>
<path fill="none" stroke="midnightblue" d="M353.26,-52.1C331.96,-42.01 302.96,-28.27 284.48,-19.52"/>
<polygon fill="midnightblue" stroke="midnightblue" points="351.9,-55.33 362.44,-56.44 354.9,-49 351.9,-55.33"/>
</g>
<!-- Node5 -->
<g id="node5" class="node">
<title>Node5</title>
<g id="a_node5"><a xlink:href="frame__sync__impl_8h.html" target="_top" xlink:title="frame_sync_impl.h">
<polygon fill="white" stroke="black" points="331,-0.5 331,-19.5 430,-19.5 430,-0.5 331,-0.5"/>
<text text-anchor="middle" x="380.5" y="-7.5" font-family="Helvetica,sans-Serif" font-size="10.00">frame_sync_impl.h</text>
</a>
</g>
</g>
<!-- Node1&#45;&gt;Node5 -->
<g id="edge4" class="edge">
<title>Node1&#45;&gt;Node5</title>
<path fill="none" stroke="midnightblue" d="M380.5,-45.8C380.5,-36.91 380.5,-26.78 380.5,-19.75"/>
<polygon fill="midnightblue" stroke="midnightblue" points="377,-46.08 380.5,-56.08 384,-46.08 377,-46.08"/>
</g>
<!-- Node6 -->
<g id="node6" class="node">
<title>Node6</title>
<g id="a_node6"><a xlink:href="header__decoder__impl_8h.html" target="_top" xlink:title="header_decoder_impl.h">
<polygon fill="white" stroke="black" points="448,-0.5 448,-19.5 565,-19.5 565,-0.5 448,-0.5"/>
<text text-anchor="middle" x="506.5" y="-7.5" font-family="Helvetica,sans-Serif" font-size="10.00">header_decoder_impl.h</text>
</a>
</g>
</g>
<!-- Node1&#45;&gt;Node6 -->
<g id="edge5" class="edge">
<title>Node1&#45;&gt;Node6</title>
<path fill="none" stroke="midnightblue" d="M409.66,-52.5C433.28,-42.38 465.93,-28.39 486.63,-19.52"/>
<polygon fill="midnightblue" stroke="midnightblue" points="408.28,-49.29 400.47,-56.44 411.04,-55.72 408.28,-49.29"/>
</g>
<!-- Node7 -->
<g id="node7" class="node">
<title>Node7</title>
<g id="a_node7"><a xlink:href="modulate__impl_8h.html" target="_top" xlink:title="modulate_impl.h">
<polygon fill="white" stroke="black" points="583.5,-0.5 583.5,-19.5 671.5,-19.5 671.5,-0.5 583.5,-0.5"/>
<text text-anchor="middle" x="627.5" y="-7.5" font-family="Helvetica,sans-Serif" font-size="10.00">modulate_impl.h</text>
</a>
</g>
</g>
<!-- Node1&#45;&gt;Node7 -->
<g id="edge6" class="edge">
<title>Node1&#45;&gt;Node7</title>
<path fill="none" stroke="midnightblue" d="M418.75,-56.64C464.91,-46.55 542.11,-29.67 588.57,-19.51"/>
<polygon fill="midnightblue" stroke="midnightblue" points="417.86,-53.25 408.83,-58.81 419.35,-60.09 417.86,-53.25"/>
</g>
<!-- Node8 -->
<g id="node8" class="node">
<title>Node8</title>
<g id="a_node8"><a xlink:href="whitening__impl_8h.html" target="_top" xlink:title="whitening_impl.h">
<polygon fill="white" stroke="black" points="689,-0.5 689,-19.5 778,-19.5 778,-0.5 689,-0.5"/>
<text text-anchor="middle" x="733.5" y="-7.5" font-family="Helvetica,sans-Serif" font-size="10.00">whitening_impl.h</text>
</a>
</g>
</g>
<!-- Node1&#45;&gt;Node8 -->
<g id="edge7" class="edge">
<title>Node1&#45;&gt;Node8</title>
<path fill="none" stroke="midnightblue" d="M418.66,-59.52C475.68,-51.27 586.5,-35.03 680.5,-20 683.26,-19.56 686.11,-19.1 688.98,-18.62"/>
<polygon fill="midnightblue" stroke="midnightblue" points="418.05,-56.07 408.65,-60.96 419.05,-63 418.05,-56.07"/>
</g>
</g>
</svg>
