<?xml version="1.0" encoding="UTF-8" standalone="no"?>
<!DOCTYPE svg PUBLIC "-//W3C//DTD SVG 1.1//EN"
 "http://www.w3.org/Graphics/SVG/1.1/DTD/svg11.dtd">
<!-- Generated by graphviz version 5.0.0 (20220707.2338)
 -->
<!-- Title: utilities.h Pages: 1 -->
<svg width="708pt" height="84pt"
 viewBox="0.00 0.00 708.00 84.00" xmlns="http://www.w3.org/2000/svg" xmlns:xlink="http://www.w3.org/1999/xlink">
<g id="graph0" class="graph" transform="scale(1 1) rotate(0) translate(4 80)">
<title>utilities.h</title>
<polygon fill="white" stroke="transparent" points="-4,4 -4,-80 704,-80 704,4 -4,4"/>
<!-- Node1 -->
<g id="node1" class="node">
<title>Node1</title>
<polygon fill="#bfbfbf" stroke="black" points="283,-56.5 283,-75.5 339,-75.5 339,-56.5 283,-56.5"/>
<text text-anchor="middle" x="311" y="-63.5" font-family="Helvetica,sans-Serif" font-size="10.00">utilities.h</text>
</g>
<!-- Node2 -->
<g id="node2" class="node">
<title>Node2</title>
<polygon fill="white" stroke="#bfbfbf" points="0,-0.5 0,-19.5 46,-19.5 46,-0.5 0,-0.5"/>
<text text-anchor="middle" x="23" y="-7.5" font-family="Helvetica,sans-Serif" font-size="10.00">cstdint</text>
</g>
<!-- Node1&#45;&gt;Node2 -->
<g id="edge1" class="edge">
<title>Node1&#45;&gt;Node2</title>
<path fill="none" stroke="midnightblue" d="M282.78,-60.99C237.13,-54.29 144.1,-39.8 55.9,-20.01"/>
<polygon fill="midnightblue" stroke="midnightblue" points="56.53,-16.57 46,-17.77 54.98,-23.39 56.53,-16.57"/>
</g>
<!-- Node3 -->
<g id="node3" class="node">
<title>Node3</title>
<polygon fill="white" stroke="#bfbfbf" points="64.5,-0.5 64.5,-19.5 113.5,-19.5 113.5,-0.5 64.5,-0.5"/>
<text text-anchor="middle" x="89" y="-7.5" font-family="Helvetica,sans-Serif" font-size="10.00">string.h</text>
</g>
<!-- Node1&#45;&gt;Node3 -->
<g id="edge2" class="edge">
<title>Node1&#45;&gt;Node3</title>
<path fill="none" stroke="midnightblue" d="M282.92,-58.5C248,-50.37 186.3,-35.84 123.88,-20.18"/>
<polygon fill="midnightblue" stroke="midnightblue" points="124.42,-16.7 113.86,-17.65 122.71,-23.49 124.42,-16.7"/>
</g>
<!-- Node4 -->
<g id="node4" class="node">
<title>Node4</title>
<polygon fill="white" stroke="#bfbfbf" points="132,-0.5 132,-19.5 182,-19.5 182,-0.5 132,-0.5"/>
<text text-anchor="middle" x="157" y="-7.5" font-family="Helvetica,sans-Serif" font-size="10.00">iomanip</text>
</g>
<!-- Node1&#45;&gt;Node4 -->
<g id="edge3" class="edge">
<title>Node1&#45;&gt;Node4</title>
<path fill="none" stroke="midnightblue" d="M286.6,-56.44C260.8,-47.4 219.92,-33.06 190.98,-22.92"/>
<polygon fill="midnightblue" stroke="midnightblue" points="191.88,-19.52 181.29,-19.52 189.57,-26.13 191.88,-19.52"/>
</g>
<!-- Node5 -->
<g id="node5" class="node">
<title>Node5</title>
<polygon fill="white" stroke="#bfbfbf" points="200.5,-0.5 200.5,-19.5 251.5,-19.5 251.5,-0.5 200.5,-0.5"/>
<text text-anchor="middle" x="226" y="-7.5" font-family="Helvetica,sans-Serif" font-size="10.00">numeric</text>
</g>
<!-- Node1&#45;&gt;Node5 -->
<g id="edge4" class="edge">
<title>Node1&#45;&gt;Node5</title>
<path fill="none" stroke="midnightblue" d="M297.34,-56.32C284.08,-47.9 263.73,-34.97 248.15,-25.07"/>
<polygon fill="midnightblue" stroke="midnightblue" points="249.94,-22.06 239.62,-19.65 246.19,-27.97 249.94,-22.06"/>
</g>
<!-- Node6 -->
<g id="node6" class="node">
<title>Node6</title>
<polygon fill="white" stroke="#bfbfbf" points="269.5,-0.5 269.5,-19.5 352.5,-19.5 352.5,-0.5 269.5,-0.5"/>
<text text-anchor="middle" x="311" y="-7.5" font-family="Helvetica,sans-Serif" font-size="10.00">gnuradio/expj.h</text>
</g>
<!-- Node1&#45;&gt;Node6 -->
<g id="edge5" class="edge">
<title>Node1&#45;&gt;Node6</title>
<path fill="none" stroke="midnightblue" d="M311,-56.08C311,-49.01 311,-38.86 311,-29.99"/>
<polygon fill="midnightblue" stroke="midnightblue" points="314.5,-29.75 311,-19.75 307.5,-29.75 314.5,-29.75"/>
</g>
<!-- Node7 -->
<g id="node7" class="node">
<title>Node7</title>
<polygon fill="white" stroke="#bfbfbf" points="370.5,-0.5 370.5,-19.5 451.5,-19.5 451.5,-0.5 370.5,-0.5"/>
<text text-anchor="middle" x="411" y="-7.5" font-family="Helvetica,sans-Serif" font-size="10.00">sys/resource.h</text>
</g>
<!-- Node1&#45;&gt;Node7 -->
<g id="edge6" class="edge">
<title>Node1&#45;&gt;Node7</title>
<path fill="none" stroke="midnightblue" d="M327.07,-56.32C342.96,-47.74 367.51,-34.49 385.96,-24.52"/>
<polygon fill="midnightblue" stroke="midnightblue" points="387.84,-27.49 394.97,-19.65 384.51,-21.33 387.84,-27.49"/>
</g>
<!-- Node8 -->
<g id="node8" class="node">
<title>Node8</title>
<polygon fill="white" stroke="#bfbfbf" points="470,-0.5 470,-19.5 544,-19.5 544,-0.5 470,-0.5"/>
<text text-anchor="middle" x="507" y="-7.5" font-family="Helvetica,sans-Serif" font-size="10.00">sys/syscall.h</text>
</g>
<!-- Node1&#45;&gt;Node8 -->
<g id="edge7" class="edge">
<title>Node1&#45;&gt;Node8</title>
<path fill="none" stroke="midnightblue" d="M339.08,-57.26C372.41,-48.08 428.25,-32.7 466.31,-22.21"/>
<polygon fill="midnightblue" stroke="midnightblue" points="467.35,-25.55 476.06,-19.52 465.49,-18.81 467.35,-25.55"/>
</g>
<!-- Node9 -->
<g id="node9" class="node">
<title>Node9</title>
<polygon fill="white" stroke="#bfbfbf" points="562,-0.5 562,-19.5 626,-19.5 626,-0.5 562,-0.5"/>
<text text-anchor="middle" x="594" y="-7.5" font-family="Helvetica,sans-Serif" font-size="10.00">volk/volk.h</text>
</g>
<!-- Node1&#45;&gt;Node9 -->
<g id="edge8" class="edge">
<title>Node1&#45;&gt;Node9</title>
<path fill="none" stroke="midnightblue" d="M339,-60.1C382.42,-52.43 468.82,-36.9 551.94,-20.17"/>
<polygon fill="midnightblue" stroke="midnightblue" points="552.68,-23.59 561.79,-18.17 551.3,-16.72 552.68,-23.59"/>
</g>
<!-- Node10 -->
<g id="node10" class="node">
<title>Node10</title>
<polygon fill="white" stroke="#bfbfbf" points="644,-0.5 644,-19.5 700,-19.5 700,-0.5 644,-0.5"/>
<text text-anchor="middle" x="672" y="-7.5" font-family="Helvetica,sans-Serif" font-size="10.00">algorithm</text>
</g>
<!-- Node1&#45;&gt;Node10 -->
<g id="edge9" class="edge">
<title>Node1&#45;&gt;Node10</title>
<path fill="none" stroke="midnightblue" d="M339.33,-62.04C394.24,-56.08 519.16,-41.53 633.79,-20.07"/>
<polygon fill="midnightblue" stroke="midnightblue" points="634.61,-23.47 643.78,-18.17 633.31,-16.6 634.61,-23.47"/>
</g>
</g>
</svg>
