<?xml version="1.0" encoding="UTF-8" standalone="no"?>
<!DOCTYPE svg PUBLIC "-//W3C//DTD SVG 1.1//EN"
 "http://www.w3.org/Graphics/SVG/1.1/DTD/svg11.dtd">
<!-- Generated by graphviz version 5.0.0 (20220707.2338)
 -->
<!-- Title: whitening_impl.h Pages: 1 -->
<svg width="998pt" height="196pt"
 viewBox="0.00 0.00 997.50 196.00" xmlns="http://www.w3.org/2000/svg" xmlns:xlink="http://www.w3.org/1999/xlink">
<g id="graph0" class="graph" transform="scale(1 1) rotate(0) translate(4 192)">
<title>whitening_impl.h</title>
<polygon fill="white" stroke="transparent" points="-4,4 -4,-192 993.5,-192 993.5,4 -4,4"/>
<!-- Node1 -->
<g id="node1" class="node">
<title>Node1</title>
<polygon fill="#bfbfbf" stroke="black" points="314,-168.5 314,-187.5 403,-187.5 403,-168.5 314,-168.5"/>
<text text-anchor="middle" x="358.5" y="-175.5" font-family="Helvetica,sans-Serif" font-size="10.00">whitening_impl.h</text>
</g>
<!-- Node2 -->
<g id="node2" class="node">
<title>Node2</title>
<g id="a_node2"><a xlink:href="whitening_8h.html" target="_top" xlink:title="gnuradio/lora_sdr/whitening.h">
<polygon fill="white" stroke="black" points="131,-112.5 131,-131.5 274,-131.5 274,-112.5 131,-112.5"/>
<text text-anchor="middle" x="202.5" y="-119.5" font-family="Helvetica,sans-Serif" font-size="10.00">gnuradio/lora_sdr/whitening.h</text>
</a>
</g>
</g>
<!-- Node1&#45;&gt;Node2 -->
<g id="edge1" class="edge">
<title>Node1&#45;&gt;Node2</title>
<path fill="none" stroke="midnightblue" d="M333.78,-168.44C307.65,-159.4 266.24,-145.06 236.92,-134.92"/>
<polygon fill="midnightblue" stroke="midnightblue" points="237.7,-131.48 227.1,-131.52 235.41,-138.1 237.7,-131.48"/>
</g>
<!-- Node6 -->
<g id="node6" class="node">
<title>Node6</title>
<g id="a_node6"><a xlink:href="utilities_8h.html" target="_top" xlink:title="gnuradio/lora_sdr/utilities.h">
<polygon fill="white" stroke="black" points="491,-112.5 491,-131.5 624,-131.5 624,-112.5 491,-112.5"/>
<text text-anchor="middle" x="557.5" y="-119.5" font-family="Helvetica,sans-Serif" font-size="10.00">gnuradio/lora_sdr/utilities.h</text>
</a>
</g>
</g>
<!-- Node1&#45;&gt;Node6 -->
<g id="edge5" class="edge">
<title>Node1&#45;&gt;Node6</title>
<path fill="none" stroke="midnightblue" d="M390.03,-168.44C424.09,-159.2 478.51,-144.44 516.02,-134.26"/>
<polygon fill="midnightblue" stroke="midnightblue" points="517.38,-137.51 526.12,-131.52 515.55,-130.76 517.38,-137.51"/>
</g>
<!-- Node3 -->
<g id="node3" class="node">
<title>Node3</title>
<g id="a_node3"><a xlink:href="api_8h.html" target="_top" xlink:title="gnuradio/lora_sdr/api.h">
<polygon fill="white" stroke="black" points="0,-56.5 0,-75.5 115,-75.5 115,-56.5 0,-56.5"/>
<text text-anchor="middle" x="57.5" y="-63.5" font-family="Helvetica,sans-Serif" font-size="10.00">gnuradio/lora_sdr/api.h</text>
</a>
</g>
</g>
<!-- Node2&#45;&gt;Node3 -->
<g id="edge2" class="edge">
<title>Node2&#45;&gt;Node3</title>
<path fill="none" stroke="midnightblue" d="M179.52,-112.44C155.34,-103.44 117.08,-89.19 89.85,-79.05"/>
<polygon fill="midnightblue" stroke="midnightblue" points="90.96,-75.73 80.37,-75.52 88.52,-82.29 90.96,-75.73"/>
</g>
<!-- Node5 -->
<g id="node5" class="node">
<title>Node5</title>
<polygon fill="white" stroke="#bfbfbf" points="133.5,-56.5 133.5,-75.5 271.5,-75.5 271.5,-56.5 133.5,-56.5"/>
<text text-anchor="middle" x="202.5" y="-63.5" font-family="Helvetica,sans-Serif" font-size="10.00">gnuradio/sync_interpolator.h</text>
</g>
<!-- Node2&#45;&gt;Node5 -->
<g id="edge4" class="edge">
<title>Node2&#45;&gt;Node5</title>
<path fill="none" stroke="midnightblue" d="M202.5,-112.08C202.5,-105.01 202.5,-94.86 202.5,-85.99"/>
<polygon fill="midnightblue" stroke="midnightblue" points="206,-85.75 202.5,-75.75 199,-85.75 206,-85.75"/>
</g>
<!-- Node4 -->
<g id="node4" class="node">
<title>Node4</title>
<polygon fill="white" stroke="#bfbfbf" points="5,-0.5 5,-19.5 110,-19.5 110,-0.5 5,-0.5"/>
<text text-anchor="middle" x="57.5" y="-7.5" font-family="Helvetica,sans-Serif" font-size="10.00">gnuradio/attributes.h</text>
</g>
<!-- Node3&#45;&gt;Node4 -->
<g id="edge3" class="edge">
<title>Node3&#45;&gt;Node4</title>
<path fill="none" stroke="midnightblue" d="M57.5,-56.08C57.5,-49.01 57.5,-38.86 57.5,-29.99"/>
<polygon fill="midnightblue" stroke="midnightblue" points="61,-29.75 57.5,-19.75 54,-29.75 61,-29.75"/>
</g>
<!-- Node7 -->
<g id="node7" class="node">
<title>Node7</title>
<polygon fill="white" stroke="#bfbfbf" points="289.5,-56.5 289.5,-75.5 335.5,-75.5 335.5,-56.5 289.5,-56.5"/>
<text text-anchor="middle" x="312.5" y="-63.5" font-family="Helvetica,sans-Serif" font-size="10.00">cstdint</text>
</g>
<!-- Node6&#45;&gt;Node7 -->
<g id="edge6" class="edge">
<title>Node6&#45;&gt;Node7</title>
<path fill="none" stroke="midnightblue" d="M512.84,-112.46C471.72,-104.39 408.82,-91.55 345.31,-76.07"/>
<polygon fill="midnightblue" stroke="midnightblue" points="346.07,-72.66 335.52,-73.67 344.4,-79.46 346.07,-72.66"/>
</g>
<!-- Node8 -->
<g id="node8" class="node">
<title>Node8</title>
<polygon fill="white" stroke="#bfbfbf" points="354,-56.5 354,-75.5 403,-75.5 403,-56.5 354,-56.5"/>
<text text-anchor="middle" x="378.5" y="-63.5" font-family="Helvetica,sans-Serif" font-size="10.00">string.h</text>
</g>
<!-- Node6&#45;&gt;Node8 -->
<g id="edge7" class="edge">
<title>Node6&#45;&gt;Node8</title>
<path fill="none" stroke="midnightblue" d="M529.14,-112.44C497.69,-102.96 446.95,-87.65 413.17,-77.46"/>
<polygon fill="midnightblue" stroke="midnightblue" points="413.86,-74.01 403.27,-74.47 411.83,-80.71 413.86,-74.01"/>
</g>
<!-- Node9 -->
<g id="node9" class="node">
<title>Node9</title>
<polygon fill="white" stroke="#bfbfbf" points="421.5,-56.5 421.5,-75.5 471.5,-75.5 471.5,-56.5 421.5,-56.5"/>
<text text-anchor="middle" x="446.5" y="-63.5" font-family="Helvetica,sans-Serif" font-size="10.00">iomanip</text>
</g>
<!-- Node6&#45;&gt;Node9 -->
<g id="edge8" class="edge">
<title>Node6&#45;&gt;Node9</title>
<path fill="none" stroke="midnightblue" d="M539.67,-112.32C521.78,-103.62 494.02,-90.12 473.45,-80.11"/>
<polygon fill="midnightblue" stroke="midnightblue" points="474.81,-76.88 464.29,-75.65 471.75,-83.18 474.81,-76.88"/>
</g>
<!-- Node10 -->
<g id="node10" class="node">
<title>Node10</title>
<polygon fill="white" stroke="#bfbfbf" points="490,-56.5 490,-75.5 541,-75.5 541,-56.5 490,-56.5"/>
<text text-anchor="middle" x="515.5" y="-63.5" font-family="Helvetica,sans-Serif" font-size="10.00">numeric</text>
</g>
<!-- Node6&#45;&gt;Node10 -->
<g id="edge9" class="edge">
<title>Node6&#45;&gt;Node10</title>
<path fill="none" stroke="midnightblue" d="M550.56,-112.08C544.57,-104.38 535.75,-93.03 528.45,-83.65"/>
<polygon fill="midnightblue" stroke="midnightblue" points="531.21,-81.5 522.31,-75.75 525.68,-85.79 531.21,-81.5"/>
</g>
<!-- Node11 -->
<g id="node11" class="node">
<title>Node11</title>
<polygon fill="white" stroke="#bfbfbf" points="559,-56.5 559,-75.5 642,-75.5 642,-56.5 559,-56.5"/>
<text text-anchor="middle" x="600.5" y="-63.5" font-family="Helvetica,sans-Serif" font-size="10.00">gnuradio/expj.h</text>
</g>
<!-- Node6&#45;&gt;Node11 -->
<g id="edge10" class="edge">
<title>Node6&#45;&gt;Node11</title>
<path fill="none" stroke="midnightblue" d="M564.6,-112.08C570.74,-104.38 579.77,-93.03 587.24,-83.65"/>
<polygon fill="midnightblue" stroke="midnightblue" points="590.04,-85.75 593.53,-75.75 584.56,-81.39 590.04,-85.75"/>
</g>
<!-- Node12 -->
<g id="node12" class="node">
<title>Node12</title>
<polygon fill="white" stroke="#bfbfbf" points="660,-56.5 660,-75.5 741,-75.5 741,-56.5 660,-56.5"/>
<text text-anchor="middle" x="700.5" y="-63.5" font-family="Helvetica,sans-Serif" font-size="10.00">sys/resource.h</text>
</g>
<!-- Node6&#45;&gt;Node12 -->
<g id="edge11" class="edge">
<title>Node6&#45;&gt;Node12</title>
<path fill="none" stroke="midnightblue" d="M580.16,-112.44C603.9,-103.48 641.41,-89.31 668.24,-79.18"/>
<polygon fill="midnightblue" stroke="midnightblue" points="669.83,-82.32 677.95,-75.52 667.36,-75.77 669.83,-82.32"/>
</g>
<!-- Node13 -->
<g id="node13" class="node">
<title>Node13</title>
<polygon fill="white" stroke="#bfbfbf" points="759.5,-56.5 759.5,-75.5 833.5,-75.5 833.5,-56.5 759.5,-56.5"/>
<text text-anchor="middle" x="796.5" y="-63.5" font-family="Helvetica,sans-Serif" font-size="10.00">sys/syscall.h</text>
</g>
<!-- Node6&#45;&gt;Node13 -->
<g id="edge12" class="edge">
<title>Node6&#45;&gt;Node13</title>
<path fill="none" stroke="midnightblue" d="M595.37,-112.44C637.1,-103.02 704.26,-87.84 749.37,-77.65"/>
<polygon fill="midnightblue" stroke="midnightblue" points="750.22,-81.05 759.2,-75.43 748.67,-74.22 750.22,-81.05"/>
</g>
<!-- Node14 -->
<g id="node14" class="node">
<title>Node14</title>
<polygon fill="white" stroke="#bfbfbf" points="851.5,-56.5 851.5,-75.5 915.5,-75.5 915.5,-56.5 851.5,-56.5"/>
<text text-anchor="middle" x="883.5" y="-63.5" font-family="Helvetica,sans-Serif" font-size="10.00">volk/volk.h</text>
</g>
<!-- Node6&#45;&gt;Node14 -->
<g id="edge13" class="edge">
<title>Node6&#45;&gt;Node14</title>
<path fill="none" stroke="midnightblue" d="M618.28,-112.47C673.85,-104.43 758.53,-91.58 841.23,-76.15"/>
<polygon fill="midnightblue" stroke="midnightblue" points="842.13,-79.54 851.31,-74.26 840.83,-72.66 842.13,-79.54"/>
</g>
<!-- Node15 -->
<g id="node15" class="node">
<title>Node15</title>
<polygon fill="white" stroke="#bfbfbf" points="933.5,-56.5 933.5,-75.5 989.5,-75.5 989.5,-56.5 933.5,-56.5"/>
<text text-anchor="middle" x="961.5" y="-63.5" font-family="Helvetica,sans-Serif" font-size="10.00">algorithm</text>
</g>
<!-- Node6&#45;&gt;Node15 -->
<g id="edge14" class="edge">
<title>Node6&#45;&gt;Node15</title>
<path fill="none" stroke="midnightblue" d="M624.15,-115.18C695.8,-108.4 813.17,-95.76 923.34,-76.03"/>
<polygon fill="midnightblue" stroke="midnightblue" points="924.08,-79.45 933.29,-74.22 922.83,-72.56 924.08,-79.45"/>
</g>
</g>
</svg>
