<?xml version="1.0" encoding="UTF-8" standalone="no"?>
<!DOCTYPE svg PUBLIC "-//W3C//DTD SVG 1.1//EN"
 "http://www.w3.org/Graphics/SVG/1.1/DTD/svg11.dtd">
<!-- Generated by graphviz version 5.0.0 (20220707.2338)
 -->
<!-- Title: whitening.h Pages: 1 -->
<svg width="280pt" height="140pt"
 viewBox="0.00 0.00 279.50 140.00" xmlns="http://www.w3.org/2000/svg" xmlns:xlink="http://www.w3.org/1999/xlink">
<g id="graph0" class="graph" transform="scale(1 1) rotate(0) translate(4 136)">
<title>whitening.h</title>
<polygon fill="white" stroke="transparent" points="-4,4 -4,-136 275.5,-136 275.5,4 -4,4"/>
<!-- Node1 -->
<g id="node1" class="node">
<title>Node1</title>
<polygon fill="#bfbfbf" stroke="black" points="96.5,-112.5 96.5,-131.5 162.5,-131.5 162.5,-112.5 96.5,-112.5"/>
<text text-anchor="middle" x="129.5" y="-119.5" font-family="Helvetica,sans-Serif" font-size="10.00">whitening.h</text>
</g>
<!-- Node2 -->
<g id="node2" class="node">
<title>Node2</title>
<g id="a_node2"><a xlink:href="api_8h.html" target="_top" xlink:title="gnuradio/lora_sdr/api.h">
<polygon fill="white" stroke="black" points="0,-56.5 0,-75.5 115,-75.5 115,-56.5 0,-56.5"/>
<text text-anchor="middle" x="57.5" y="-63.5" font-family="Helvetica,sans-Serif" font-size="10.00">gnuradio/lora_sdr/api.h</text>
</a>
</g>
</g>
<!-- Node1&#45;&gt;Node2 -->
<g id="edge1" class="edge">
<title>Node1&#45;&gt;Node2</title>
<path fill="none" stroke="midnightblue" d="M117.93,-112.32C107.08,-104.18 90.62,-91.84 77.62,-82.09"/>
<polygon fill="midnightblue" stroke="midnightblue" points="79.38,-79.03 69.28,-75.83 75.18,-84.63 79.38,-79.03"/>
</g>
<!-- Node4 -->
<g id="node4" class="node">
<title>Node4</title>
<polygon fill="white" stroke="#bfbfbf" points="133.5,-56.5 133.5,-75.5 271.5,-75.5 271.5,-56.5 133.5,-56.5"/>
<text text-anchor="middle" x="202.5" y="-63.5" font-family="Helvetica,sans-Serif" font-size="10.00">gnuradio/sync_interpolator.h</text>
</g>
<!-- Node1&#45;&gt;Node4 -->
<g id="edge3" class="edge">
<title>Node1&#45;&gt;Node4</title>
<path fill="none" stroke="midnightblue" d="M141.23,-112.32C152.34,-104.11 169.24,-91.6 182.48,-81.81"/>
<polygon fill="midnightblue" stroke="midnightblue" points="184.6,-84.59 190.56,-75.83 180.44,-78.97 184.6,-84.59"/>
</g>
<!-- Node3 -->
<g id="node3" class="node">
<title>Node3</title>
<polygon fill="white" stroke="#bfbfbf" points="5,-0.5 5,-19.5 110,-19.5 110,-0.5 5,-0.5"/>
<text text-anchor="middle" x="57.5" y="-7.5" font-family="Helvetica,sans-Serif" font-size="10.00">gnuradio/attributes.h</text>
</g>
<!-- Node2&#45;&gt;Node3 -->
<g id="edge2" class="edge">
<title>Node2&#45;&gt;Node3</title>
<path fill="none" stroke="midnightblue" d="M57.5,-56.08C57.5,-49.01 57.5,-38.86 57.5,-29.99"/>
<polygon fill="midnightblue" stroke="midnightblue" points="61,-29.75 57.5,-19.75 54,-29.75 61,-29.75"/>
</g>
</g>
</svg>
